<svg version="1.2" xmlns="http://www.w3.org/2000/svg" viewBox="0 0 1500 1000" width="1500" height="1000">
	<title>13643324_5312962-ai</title>
	<defs>
		<clipPath clipPathUnits="userSpaceOnUse" id="cp1">
			<path d="m1500 1000h-1500v-1000h1500z"/>
		</clipPath>
		<linearGradient id="g1" x2="1" gradientUnits="userSpaceOnUse" gradientTransform="matrix(0,-690.815,1772.579,0,687.847,760.16)">
			<stop offset="0" stop-color="#000000"/>
			<stop offset="1" stop-color="#f1eb88"/>
		</linearGradient>
		<linearGradient id="g2" x2="1" gradientUnits="userSpaceOnUse" gradientTransform="matrix(0,-732.625,1722.697,0,630.699,842.428)">
			<stop offset="0" stop-color="#000000"/>
			<stop offset="1" stop-color="#f1eb88"/>
		</linearGradient>
	</defs>
	<style>
		.s0 { fill: #f1eb88 } 
		.s1 { opacity: .6;mix-blend-mode: screen;fill: url(#g1) } 
		.s2 { opacity: .6;mix-blend-mode: screen;fill: url(#g2) } 
		.s3 { fill: #c7c270 } 
		.s4 { fill: #c9c472 } 
		.s5 { fill: #d9d37a } 
		.s6 { fill: #51673b } 
		.s7 { fill: #78853f } 
		.s8 { fill: #3c4d2c } 
		.s9 { fill: #6a7538 } 
		.s10 { fill: #969696 } 
		.s11 { opacity: .2;mix-blend-mode: multiply;fill: #969696 } 
		.s12 { fill: #9bab51 } 
		.s13 { fill: #b2c265 } 
		.s14 { fill: #3b493b } 
		.s15 { fill: #818f44 } 
		.s16 { fill: #869446 } 
		.s17 { fill: #a6b857 } 
	</style>
	<g id="BACKGROUND">
		<path id="&lt;Path&gt;" class="s0" d="m1500 1000h-1500v-1000h1500z"/>
	</g>
	<g id="OBJECTS">
		<g id="&lt;Clip Group&gt;" clip-path="url(#cp1)">
			<g id="&lt;Group&gt;">
				<path id="&lt;Path&gt;" class="s1" d="m-63.8 533.3c2-156.3 70.8-310.7 185.7-416.6 31.9-29.4 74.3-56.6 115.9-44.3 45.6 13.5 64.9 66.4 77.6 112.3q24.8 89.4 49.5 178.8c6.6 23.8 13.5 48.1 27.5 68.4 14.1 20.3 37 36.2 61.7 35.3 61.3-2.5 89.7-98.9 150.8-94.4 36.2 2.6 58.4 40 71.9 73.6 13.6 33.6 28.9 72.2 63 84.2 37.2 13.1 75.7-12.3 107.5-35.6 31.7-23.2 72.4-46.7 108.1-30.2 20.5 9.6 34.2 30.7 55.5 38.4 24.9 8.9 53.3-3.8 71.2-23.4 17.8-19.6 27.7-44.9 38.8-69 30-64.7 71.5-124.1 121.9-174.6 12.3-12.3 25.7-24.4 42.4-29 16.7-4.7 37.4 0.6 45.2 16 4.7 9.2 4.1 20 7 29.9 9.2 32.2 52.8 43.5 83.6 30.1 30.8-13.4 51-43 68.4-71.6 17.5-28.7 35.1-59.2 63.7-76.7 28.6-17.5 72-16.1 89.8 12.3 82.2 131.6 75.2 302.8 44.8 454.9-6.3 31.5-16 65.1-41.9 84-22 16.1-51.1 18-78.3 19.4q-385.7 18.7-771.4 37.5c-160.1 7.7-320.2 15.5-480.4 17-85.4 0.8-173.8-0.8-251.5-36.2-77.7-35.5-129.1-105.1-128-190.5z"/>
				<path id="&lt;Path&gt;" class="s2" d="m113.1 174c22.3-33.3 54.6-68.9 94.4-63.7 47.5 6.2 66.5 63.5 75.3 110.6q26.4 140.7 52.8 281.5c7.9 42 22.3 91.8 63.4 103.7 45.9 13.3 86.7-30.5 114.8-69.1 28.2-38.6 70.1-81.7 115.5-66.9 60.5 19.7 64.3 125.3 127.5 132.8 71.8 8.6 100.5-123.5 172.2-113.7 60.2 8.2 67.3 107.9 126.2 122.9 30.7 7.8 62.6-12.9 79.1-39.9 16.5-27 21.5-59.1 28.5-90 16.8-73.7 46.6-144.5 87.7-208 10.4-15.9 26.1-33.4 44.7-29.4 21.8 4.8 26.2 33.3 27.7 55.6 2.3 33.7 9.3 68.3 29.1 95.7 19.8 27.4 54.9 45.8 87.8 37.9 30.9-7.4 52.1-34.7 74.8-57 22.6-22.4 55.5-42 84.8-29.5 30.5 13 38 52 41.4 85 6 59.2 12 119.4 0.5 177.7-11.5 58.3-43.3 115.5-95.8 143.4-37.8 20-81.9 23.1-124.6 25.7q-449.7 27.8-899.3 55.6c-104.7 6.5-210.1 13-314.3 0.2-79-9.7-160.2-32.4-218.1-87.1-53.2-50.4-86.1-142.1-46.7-209.9 40.8-70.4 57.5-151.2 92.3-225.6 22.5-48 48.7-94.4 78.3-138.5z"/>
			</g>
			<path id="&lt;Path&gt;" class="s3" d="m455.9 736.8c-4.7-18.1-13.5-35-25.4-49.4 6.4 4.4 12.3 7.1 18.7 11.5-10.8-20.7-25.1-40.9-38.9-59.8 23 15.8 43.6 36.7 57.5 60.9-6-29.7-16.3-59.4-29.4-86.7 22.7 23.4 37.6 54.2 42.1 86.5-3.5-42.4 7.7-85.1 28.7-122.1 1.3 40.5-2.1 81-10.3 120.6 10.8-30.2 31-56 54.7-77.7-14.2 28.5-25.8 58.2-34.5 88.8 15.7-19.5 36.2-35.5 58.8-46.2-17.6 17.7-32.7 37.9-44.6 59.8 10.7-10.1 22.8-17.4 35.9-24.1-14.3 15.5-26.1 33.2-35 52.3-26.9-1.6-52.7-6-78.3-14.4z"/>
			<path id="&lt;Path&gt;" class="s3" d="m690.1 760.9c-3.6-13.6-10.2-26.3-19.2-37.2 4.8 3.3 9.3 5.4 14.1 8.7-8.2-15.6-18.9-30.8-29.3-45 17.3 11.8 32.9 27.6 43.3 45.8-4.6-22.3-12.3-44.7-22.1-65.2 17 17.6 28.3 40.7 31.6 65-2.6-31.8 5.9-64 21.7-91.8 1 30.4-1.7 61-7.8 90.8 8.1-22.8 23.3-42.2 41.2-58.5-10.7 21.4-19.4 43.8-26 66.8 11.8-14.7 27.2-26.8 44.2-34.8-13.2 13.3-24.5 28.5-33.5 45.1 8.1-7.7 17.2-13.2 27-18.2-10.7 11.7-19.7 25-26.4 39.4-20.1-1.3-39.6-4.5-58.8-10.9z"/>
			<path id="&lt;Path&gt;" class="s3" d="m873.7 704.4l15.7 2.5q-0.1-3.6-0.5-7.2l-30.2 1.4 29.4-6.4c-1.3-6.5-3.4-12.6-6.3-18.3l-20.1 7.3 18.2-10.8q-0.2-0.4-0.5-0.9l-18.1 7.2 14.6-12.4c-6.3-8.7-14.5-15.8-23.9-20.8l-4.9 7 1-9q-0.9-0.4-1.9-0.8l-9.2 20.9 4.3-22.8c-8.3-2.8-17.1-4.1-26.2-3.6l-2.2 14.1-4.2-13.5q-5.5 0.8-10.6 2.4l1.1 13.3-3-12.7q-3.7 1.2-7.1 2.8l1.6 12-5.5-10.1c-6.4 3.5-12.2 7.9-17.2 13l4.8 14.1-6.5-12.2q-1.6 1.7-3 3.6l10.9 18.3-13.7-14.6c-3.7 5.4-6.7 11.3-8.8 17.5l5.3 8-6.3-4.8q-0.5 1.7-0.9 3.5l5.7 8.4-6.5-4.1q-1.2 6.8-1 13.8l15.6 5.5-15.3-1q0.2 1.5 0.4 3.1c5.4 38.7 41.1 65.6 79.8 60.2 34.9-4.9 60.2-34.4 60.9-68.5z"/>
			<path id="&lt;Path&gt;" class="s3" d="m1088.8 657.1l22.5 3.5q-0.1-5.1-0.8-10.2l-43.1 2 42-9.2c-1.8-9.3-4.9-18.1-9-26.2l-28.8 10.4 26.1-15.4q-0.3-0.6-0.7-1.3l-25.9 10.2 20.9-17.6c-9-12.5-20.7-22.7-34.2-29.9l-7 10.1 1.4-12.8q-1.3-0.7-2.7-1.2l-13.1 29.8 6-32.5c-11.8-4-24.4-5.9-37.5-5.2l-3.1 20.2-6-19.3q-7.8 1.1-15.2 3.4l1.7 19-4.4-18.2q-5.2 1.8-10.2 4.1l2.4 17.1-7.9-14.4c-9.2 4.9-17.5 11.3-24.6 18.6l6.9 20.1-9.4-17.4q-2.2 2.5-4.3 5.1l15.6 26.3-19.6-21c-5.3 7.7-9.5 16.2-12.6 25.1l7.7 11.5-9.1-6.9q-0.7 2.5-1.3 5l8.1 12-9.3-5.9c-1.1 6.5-1.5 13.1-1.3 19.9l22.3 7.8-21.9-1.5q0.2 2.2 0.5 4.5c7.8 55.3 58.9 93.9 114.2 86.1 49.9-6.9 86.2-49.2 87.2-98.1z"/>
			<path id="&lt;Path&gt;" class="s3" d="m257.7 572.2l22.5 3.5q-0.1-5.1-0.7-10.2l-43.2 2 42.1-9.3c-1.9-9.2-4.9-18-9-26.1l-28.8 10.4 26.1-15.4q-0.4-0.6-0.8-1.3l-25.8 10.2 20.9-17.6c-9-12.5-20.8-22.7-34.2-29.9l-7 10.1 1.4-12.9q-1.4-0.6-2.7-1.2l-13.2 29.9 6.1-32.5c-11.8-4-24.5-5.9-37.5-5.2l-3.2 20.2-6-19.3q-7.8 1.1-15.1 3.3l1.6 19.1-4.3-18.2q-5.3 1.8-10.3 4.1l2.4 17.1-7.8-14.4c-9.2 4.9-17.5 11.3-24.7 18.6l6.9 20.1-9.3-17.5q-2.3 2.5-4.4 5.2l15.7 26.2-19.6-20.9c-5.3 7.7-9.6 16.2-12.6 25.1l7.6 11.5-9-7q-0.7 2.5-1.3 5.1l8.1 12-9.3-5.9c-1.1 6.4-1.6 13.1-1.3 19.8l22.3 7.9-21.9-1.5q0.2 2.2 0.5 4.5c7.7 55.3 58.9 93.9 114.2 86.1 49.9-6.9 86.2-49.2 87.1-98.1z"/>
			<path id="&lt;Path&gt;" class="s4" d="m268.1-58.3l-86.3 812.2 78.5-23.9 34.7-788.3z"/>
			<path id="&lt;Path&gt;" class="s4" d="m388.4 2.3l-67.7 742.4 61.5-21.8 27.2-720.6z"/>
			<path id="&lt;Path&gt;" class="s4" d="m499 83.6l-155 683.5 60.1-12.6 114.5-668.3z"/>
			<g id="&lt;Group&gt;">
				<path id="&lt;Path&gt;" class="s4" d="m172.2 323.6c-79.8 0-159.3-14.5-234.4-43.2l2.1-5.6c111.2 42.4 231.9 53.6 349 32.3 117.1-21.4 226.2-74.3 315.3-153.2l4 4.5c-90 79.6-200 133.1-318.2 154.6-39 7.1-78.4 10.6-117.8 10.6z"/>
			</g>
			<g id="&lt;Group&gt;">
				<path id="&lt;Path&gt;" class="s4" d="m-26.7 385.1c-41.6 0-83.3-4.3-124.1-12.8l1.2-5.9c126.6 26.5 260.9 11.1 378.1-43.4 117.3-54.5 215.7-147.1 277.1-260.9l5.3 2.8c-62 114.9-161.4 208.5-279.8 263.6-80.6 37.4-169.2 56.6-257.8 56.6z"/>
			</g>
			<g id="&lt;Group&gt;">
				<path id="&lt;Path&gt;" class="s4" d="m1361.5 299.1c79.8 0 159.3-14.6 234.4-43.2l-2.1-5.6c-111.2 42.4-231.9 53.5-349 32.2-117.1-21.3-226.2-74.2-315.3-153.1l-4 4.5c90 79.6 200 133 318.2 154.5 39 7.1 78.4 10.7 117.8 10.7z"/>
			</g>
			<g id="&lt;Group&gt;">
				<path id="&lt;Path&gt;" class="s4" d="m1560.4 360.5c41.6 0 83.3-4.2 124.1-12.7l-1.2-5.9c-126.6 26.5-260.9 11.1-378.1-43.4-117.3-54.5-215.7-147.2-277.1-261l-5.3 2.9c62 114.9 161.4 208.5 279.8 263.5 80.6 37.5 169.2 56.6 257.8 56.6z"/>
			</g>
			<g id="&lt;Group&gt;">
				<path id="&lt;Path&gt;" class="s4" d="m1088.7 221.6c37-19 72.1-41.8 104.5-68.1l-3.7-4.6c-100.5 81.3-227 128.9-356.2 134-129.2 5.1-259.1-32.4-365.7-105.6l-3.4 5c107.7 73.9 238.8 111.8 369.3 106.6 88.8-3.5 176.3-26.9 255.2-67.3z"/>
			</g>
			<path id="&lt;Path&gt;" class="s5" d="m344-15.8l-30.2-11.3-166.7 244 28-322.6h-41.6l-59.8 249.4-116.7-170.8-20.8 7.8 129.4 238.8-65.6 617.4 121.4-36.8 19.4-441.2z"/>
			<path id="&lt;Path&gt;" class="s4" d="m1181.2 9l193.8 793.5-81-13.2-139.5-776.7z"/>
			<path id="&lt;Path&gt;" class="s4" d="m1114.8 62.1l67.7 742.4-61.5-21.8-27.2-720.6z"/>
			<path id="&lt;Path&gt;" class="s4" d="m1024 153.1l99.6 693.8-58.8-17.5-60.6-675.3z"/>
			<path id="&lt;Path&gt;" class="s4" d="m607.2 177.9l13.9 700.8-56.2-24.5 22.6-677.7z"/>
			<path id="&lt;Path&gt;" class="s4" d="m927 91l13.8 700.8-56.2-24.6 22.6-677.6z"/>
			<path id="&lt;Path&gt;" class="s4" d="m730 51.8l-23.1 776.3-27.5-24.8 40.7-752.2z"/>
			<path id="&lt;Path&gt;" class="s4" d="m798.2 32.6l35.2 775.8-29.3-22.6-15.9-753.1z"/>
			<path id="&lt;Path&gt;" class="s5" d="m1248 146.3l23.7-11.4 130.4 244.1-21.9-322.7h32.5l46.8 249.4 91.3-170.8 16.3 7.8-101.3 238.8 51.4 617.5-95-36.9-15.2-441.1z"/>
			<path id="&lt;Path&gt;" class="s6" d="m289.2 665.5c-2.4-22.5-9.7-44.4-21.3-63.7 6.8 6.4 13.4 10.7 20.2 17.1-9.1-26.7-22.5-53.4-35.5-78.5 24.6 23 45.4 51.8 57.6 83.3-1.8-36.6-8.6-74-19.3-109 22.8 32.1 35 71.6 34.4 111 3.6-51.2 24.9-100.2 56.8-140.5-5.9 48.5-17.5 96.4-34.5 142.2 18.4-34.2 47.3-61.2 79.6-82.8-22.2 31.4-41.4 64.8-57.5 99.7 22.3-20.3 49.8-35.8 78.7-44.4-24.3 17.9-46 39.3-64.2 63.3 14.6-10.1 30.4-16.6 47.3-22.3-19.9 16-37.3 35-51.5 56.2-31.7-6.9-61.8-16.9-90.8-31.6z"/>
			<path id="&lt;Path&gt;" class="s7" d="m1516.9 732.3c22.2-32.8 24.6-78 6-113.1-9-17-22.4-31.6-28.9-49.7-7.5-20.9-4.9-43.9-7.8-65.9-5.3-41.6-31.8-79.9-68.7-99.6 16.1 17.1 13.9 44.8 11 68.1-2.8 23.4-8.9 47.1-4.3 70.2 5 25 21.9 45.9 30.3 69.9 12.3 35.1 4.8 76.4-19 105-12 14.4-3.9 38.5-4.2 57.3 0 6.2 0.3 12.9 3.7 18.1 3.4 5.2 9.5 8.2 15.7 8.9 6.2 0.7 12.5-0.6 18.4-2.7 24-8.3 33.6-45.4 47.8-66.5z"/>
			<path id="&lt;Path&gt;" class="s6" d="m1345.1 636c-6.9-21.5-18.5-41.5-33.7-58.1 7.9 4.9 15.2 7.8 23.2 12.8-14.3-24.4-32.9-47.8-50.6-69.8 28.8 17.6 54.9 41.6 73.2 69.9-9.2-35.4-23.3-70.7-40.9-102.8 28.8 26.9 48.8 63.1 56.1 101.8-6.8-51 4.1-103.2 27.2-149.1 4.1 48.7 2.4 97.9-5.1 146.2 11.2-37.2 34.1-69.5 61.3-97.2-15.4 35.2-27.5 71.9-36.2 109.3 17.8-24.4 41.5-45.1 68.2-59.4-20.2 22.4-37.1 47.8-50.1 75 12.3-12.9 26.4-22.4 41.8-31.4-16.3 19.6-29.5 41.8-39.1 65.4-32.4-0.4-64-4-95.3-12.6z"/>
			<path id="&lt;Path&gt;" class="s8" d="m360.7 683.3l20.6 3.2q-0.1-4.7-0.7-9.3l-39.4 1.8 38.3-8.4c-1.6-8.5-4.4-16.5-8.1-23.9l-26.3 9.4 23.8-14q-0.3-0.6-0.7-1.2l-23.6 9.4 19.1-16.2c-8.2-11.3-19-20.6-31.2-27.2l-6.4 9.2 1.3-11.7q-1.2-0.6-2.5-1.1l-12 27.3 5.5-29.8c-10.7-3.6-22.3-5.3-34.2-4.7l-2.9 18.5-5.4-17.6q-7.2 1-13.8 3l1.4 17.4-3.9-16.6q-4.8 1.6-9.4 3.7l2.2 15.6-7.1-13.1c-8.4 4.5-16 10.3-22.5 17l6.3 18.3-8.6-15.9q-2 2.3-3.9 4.7l14.2 23.9-17.9-19c-4.8 7-8.7 14.7-11.4 22.8l6.9 10.5-8.2-6.3q-0.7 2.3-1.2 4.6l7.4 10.9-8.5-5.4c-1 5.9-1.4 12-1.2 18.2l20.4 7.1-20-1.4q0.1 2.1 0.4 4.1c7.1 50.5 53.8 85.7 104.2 78.7 45.6-6.4 78.7-45 79.6-89.6z"/>
			<path id="&lt;Path&gt;" class="s8" d="m1398.9 669.1l20.5 3.2q-0.1-4.6-0.7-9.3l-39.3 1.8 38.3-8.4c-1.7-8.5-4.4-16.5-8.2-23.9l-26.3 9.5 23.9-14q-0.4-0.6-0.7-1.2l-23.6 9.3 19.1-16.1c-8.3-11.4-19-20.7-31.3-27.3l-6.4 9.2 1.3-11.7q-1.2-0.6-2.4-1.1l-12 27.3 5.5-29.7c-10.8-3.7-22.3-5.4-34.2-4.7l-2.9 18.4-5.5-17.6q-7.1 1-13.8 3l1.5 17.4-4-16.6q-4.8 1.6-9.3 3.7l2.2 15.6-7.2-13.1c-8.4 4.5-16 10.3-22.5 17l6.3 18.3-8.5-15.9q-2.1 2.3-4 4.7l14.3 24-17.9-19.1c-4.8 7-8.7 14.7-11.5 22.8l7 10.5-8.3-6.3q-0.6 2.3-1.2 4.6l7.4 10.9-8.5-5.3c-1 5.9-1.4 11.9-1.2 18.1l20.4 7.1-20-1.4q0.2 2.1 0.5 4.1c7 50.5 53.7 85.7 104.2 78.7 45.5-6.4 78.6-45 79.5-89.5z"/>
			<path id="&lt;Path&gt;" class="s8" d="m1110.3 762.1l20.6 3.2q-0.1-4.7-0.7-9.3l-39.4 1.8 38.3-8.4c-1.6-8.5-4.4-16.5-8.1-23.9l-26.3 9.4 23.8-13.9q-0.3-0.7-0.7-1.3l-23.6 9.4 19.1-16.1c-8.2-11.4-18.9-20.7-31.2-27.3l-6.4 9.2 1.3-11.7q-1.2-0.6-2.5-1.1l-12 27.3 5.5-29.8c-10.7-3.6-22.3-5.3-34.2-4.7l-2.9 18.5-5.4-17.6q-7.2 1-13.8 3l1.5 17.4-4-16.6q-4.8 1.6-9.4 3.7l2.2 15.6-7.1-13.1c-8.4 4.5-16 10.3-22.5 17l6.3 18.3-8.6-15.9q-2 2.3-3.9 4.7l14.2 23.9-17.8-19c-4.9 7-8.8 14.7-11.5 22.8l6.9 10.5-8.2-6.3q-0.7 2.3-1.2 4.6l7.4 10.9-8.5-5.4c-1 5.9-1.4 12-1.2 18.2l20.4 7.1-20-1.4q0.2 2.1 0.4 4.1c7.1 50.5 53.8 85.7 104.3 78.7 45.5-6.4 78.6-45 79.5-89.6z"/>
			<path id="&lt;Path&gt;" class="s9" d="m41.9 684.1c-10-33.2-7.6-70.1 7-101.6 14.6-31.5 41.4-57.2 73.8-69.8 38.8-15.1 85.9-10.1 118 16.5-37.9-5-78 13.2-102.9 42.1-24.9 28.9-34.1 70.7-23.7 107.4-10.9 8.2-26.3 14.4-39.7 17-13.4 2.7-28.5 1.5-32.5-11.6z"/>
			<path id="&lt;Path&gt;" class="s7" d="m-27.5 694.4c-13.7-37.2-5.3-81.7 21.1-111.3 12.8-14.3 29.4-25.3 40-41.3 12.2-18.5 15.2-41.5 23.2-62.2 15.1-39.1 50-70 90.6-80.4-19.8 12.9-24.2 40.2-27 63.6-2.9 23.4-2.6 47.8-12.6 69.1-10.8 23.1-32.1 39.4-46.1 60.8-20.3 31.1-22.9 73-6.6 106.4 8.3 16.9-5.3 38.3-9.6 56.7-1.4 6.1-3.3 12.4-7.8 16.7-4.6 4.2-11.3 5.7-17.4 4.9-6.2-0.8-12-3.6-17.2-7-21.3-13.8-21.8-52.1-30.6-76z"/>
			<path id="&lt;Path&gt;" class="s6" d="m240.2 751l34.9 5.4q-0.2-7.9-1.2-15.8l-66.8 3 65.1-14.2c-2.8-14.4-7.6-28-13.9-40.5l-44.7 16 40.5-23.7q-0.6-1.1-1.2-2.1l-40 15.8 32.4-27.3c-14-19.3-32.2-35.1-53.1-46.3l-10.8 15.6 2.2-19.8q-2.1-1-4.2-1.9l-20.4 46.3 9.4-50.5c-18.2-6.1-37.9-9-58-7.9l-5 31.2-9.3-29.9q-12.1 1.8-23.4 5.2l2.5 29.6-6.7-28.2q-8.2 2.7-15.9 6.3l3.7 26.4-12.1-22.2c-14.3 7.6-27.1 17.4-38.2 28.8l10.7 31.1-14.5-27q-3.5 3.9-6.8 7.9l24.3 40.7-30.4-32.4c-8.2 12-14.8 25-19.5 38.9l11.9 17.8-14.1-10.8q-1.1 3.9-2 7.8l12.6 18.6-14.5-9.1c-1.6 10-2.3 20.3-2 30.7l34.6 12.2-34-2.4q0.4 3.5 0.9 7c11.9 85.7 91.2 145.5 176.9 133.5 77.3-10.8 133.5-76.3 135-152z"/>
			<path id="&lt;Path&gt;" class="s6" d="m1297.9 732.6l29.8 4.6q-0.1-6.7-1-13.5l-57.2 2.6 55.7-12.2c-2.4-12.3-6.4-23.9-11.8-34.7l-38.3 13.8 34.7-20.4q-0.5-0.9-1-1.7l-34.3 13.5 27.7-23.4c-11.9-16.5-27.5-30-45.4-39.6l-9.2 13.4 1.9-17q-1.8-0.8-3.6-1.6l-17.5 39.6 8.1-43.2c-15.7-5.3-32.5-7.7-49.7-6.8l-4.2 26.8-8-25.6q-10.3 1.5-20 4.4l2.1 25.3-5.7-24.1q-7 2.3-13.6 5.4l3.1 22.6-10.3-19c-12.2 6.5-23.2 14.9-32.7 24.6l9.1 26.6-12.4-23.1q-3 3.3-5.7 6.8l20.7 34.9-26-27.8c-7 10.2-12.6 21.4-16.7 33.2l10.2 15.3-12-9.2q-1 3.3-1.8 6.7l10.8 15.8-12.4-7.8c-1.4 8.6-2 17.4-1.7 26.4l29.6 10.3-29.1-2q0.3 3 0.7 6c10.3 73.4 78.1 124.5 151.4 114.2 66.2-9.2 114.3-65.3 115.5-130z"/>
			<path id="&lt;Path&gt;" class="s6" d="m568.8 763.6c-7.1-26.7-20-51.9-37.7-73.3 9.5 6.6 18.2 10.6 27.7 17.1-16.1-30.7-37.3-60.7-57.7-88.7 34.2 23.4 64.8 54.5 85.4 90.3-9-44-24.2-88.1-43.7-128.6 33.6 34.8 55.8 80.4 62.4 128.3-5.2-62.9 11.5-126.2 42.7-181.1 2 60-3.2 120.2-15.4 179 16.1-44.9 46.1-83.1 81.2-115.3-21 42.2-38.2 86.3-51.2 131.7 23.3-28.9 53.7-52.8 87.3-68.6-26.2 26.3-48.5 56.3-66.1 88.8 15.8-15 33.8-25.8 53.2-35.8-21.2 23-38.8 49.3-52 77.7-39.8-2.5-78.2-9-116.1-21.5z"/>
			<path id="&lt;Path&gt;" class="s6" d="m897.6 776.1c-11.9-19.1-28-35.6-46.8-48 8.9 2.8 16.6 3.8 25.6 6.7-19.9-20.1-43.5-38.4-66.1-55.4 32.2 10.1 63.4 27 88 50-17.5-32.1-39.9-62.9-64.7-89.8 34.5 19.1 62.7 49.3 79.2 85.1-19-47.8-21.1-101.1-9.9-151.3 15.8 46.3 26.1 94.4 30.7 143.1 1.8-38.8 16-75.7 35.7-109.2-6.3 37.9-9.1 76.4-8.4 114.8 11.3-28 29.2-53.9 51.6-74.2-14.1 26.6-24.3 55.3-30.3 84.9 8.8-15.5 20.1-28.2 32.9-40.6-11 23-18.4 47.7-21.9 72.9-31.6 7.6-63.1 11.7-95.6 11z"/>
			<g id="&lt;Group&gt;">
				<path id="&lt;Path&gt;" class="s10" d="m199 777c-6.9-7.5-9.1-18.7-6.3-28.5 2.9-9.7 10.5-17.8 19.7-22 9.3-4.3 20-4.8 29.9-2.2 0.6-6 5.5-11.9 11.1-14.1 5.5-2.2 12.2-1.1 16.7 2.8 11.1-22.3 30.9-40.9 53.3-51.8 22.4-11 47.6-15.5 72.5-15.2 23.8 0.2 48.4 5 67.1 19.6 18.8 14.6 29.9 40.6 21.8 62.9 15.7-1.4 32.8-7.5 48.3-9.9 15.5-2.3 31.5-3.4 46.8 0 15.3 3.4 30 12 38.2 25.4 8.1 13.4 8.4 32-1.7 44.1-94.5-21.4-193.4-9.9-288.2 10.3-22.9 4.9-46 10.4-69.4 9.2-23.4-1.2-43.9-13.4-59.8-30.6z"/>
				<path id="&lt;Path&gt;" class="s11" d="m579.9 718.6c-15.3-3.4-31.3-2.3-46.8 0-15.5 2.4-32.6 8.5-48.3 9.9 8.1-22.3-3-48.3-21.8-62.9-0.5-0.4-1-0.7-1.5-1.1 6.1 10.5 8.3 23.5 4.2 34.8-6.6 18.3-26.4 27.9-45.1 33.3-28.5 8.3-58.6 11.1-88.2 8.2 67.9 12 139.3 13.9 207.5 4.1 12.5-1.8 25.2-3.9 37.7-2.2 12.6 1.7 25.2 8 31.2 19.1 3.1 5.9 7.7 12.3 13.4 15.6 3.6-10.9 1.9-23.5-4.1-33.4-8.2-13.4-22.9-22-38.2-25.4z"/>
				<path id="&lt;Path&gt;" class="s11" d="m384.3 668.2c0 2-1.6 3.6-3.7 3.6-2 0-3.6-1.6-3.6-3.6 0-2.1 1.6-3.7 3.6-3.7 2.1 0 3.7 1.6 3.7 3.7z"/>
				<path id="&lt;Path&gt;" class="s11" d="m336.5 698.6c0 2.7-2.2 4.9-4.9 4.9-2.7 0-4.9-2.2-4.9-4.9 0-2.7 2.2-4.8 4.9-4.8 2.7 0 4.9 2.1 4.9 4.8z"/>
				<path id="&lt;Path&gt;" class="s11" d="m427.5 689c0 1-0.8 1.8-1.8 1.8-1 0-1.7-0.8-1.7-1.8 0-0.9 0.7-1.7 1.7-1.7 1 0 1.8 0.8 1.8 1.7z"/>
				<path id="&lt;Path&gt;" class="s11" d="m404.5 705.4c0 1-0.8 1.9-1.9 1.9-1 0-1.9-0.9-1.9-1.9 0-1.1 0.9-1.9 1.9-1.9 1.1 0 1.9 0.8 1.9 1.9z"/>
				<path id="&lt;Path&gt;" class="s11" d="m375.9 696.2c0 1.3-1.1 2.4-2.4 2.4-1.4 0-2.5-1.1-2.5-2.4 0-1.3 1.1-2.4 2.5-2.4 1.3 0 2.4 1.1 2.4 2.4z"/>
				<path id="&lt;Path&gt;" class="s11" d="m424 665.6c0 0.6-0.5 1-1.1 1-0.6 0-1.1-0.4-1.1-1 0-0.6 0.5-1.1 1.1-1.1 0.6 0 1.1 0.5 1.1 1.1z"/>
				<path id="&lt;Path&gt;" class="s11" d="m325.8 673c0 0.6-0.5 1.2-1.1 1.2-0.7 0-1.2-0.6-1.2-1.2 0-0.6 0.5-1.2 1.2-1.2 0.6 0 1.1 0.6 1.1 1.2z"/>
				<path id="&lt;Path&gt;" class="s11" d="m295.6 721.3c0 0.8-0.6 1.4-1.4 1.4-0.8 0-1.5-0.6-1.5-1.4 0-0.8 0.7-1.5 1.5-1.5 0.8 0 1.4 0.7 1.4 1.5z"/>
				<path id="&lt;Path&gt;" class="s11" d="m226.6 736.8c0 1.1-0.9 2.1-2 2.1-1.2 0-2.1-1-2.1-2.1 0-1.1 0.9-2 2.1-2 1.1 0 2 0.9 2 2z"/>
				<path id="&lt;Path&gt;" class="s11" d="m295.6 738.1c0 1.9-1.5 3.4-3.3 3.4-1.9 0-3.4-1.5-3.4-3.4 0-1.8 1.5-3.3 3.4-3.3 1.8 0 3.3 1.5 3.3 3.3z"/>
				<path id="&lt;Path&gt;" class="s11" d="m371 720.8c0 2.9-2.4 5.4-5.4 5.4-3 0-5.4-2.5-5.4-5.4 0-3 2.4-5.4 5.4-5.4 3 0 5.4 2.4 5.4 5.4z"/>
				<path id="&lt;Path&gt;" class="s11" d="m456.3 729c0 1.2-1 2.1-2.1 2.1-1.2 0-2.2-0.9-2.2-2.1 0-1.2 1-2.1 2.2-2.1 1.1 0 2.1 0.9 2.1 2.1z"/>
				<path id="&lt;Path&gt;" class="s11" d="m477.4 710.2c0 1.7-1.3 3-3 3-1.6 0-2.9-1.3-2.9-3 0-1.6 1.3-2.9 2.9-2.9 1.7 0 3 1.3 3 2.9z"/>
				<path id="&lt;Path&gt;" class="s11" d="m454.2 688.3c0 0.6-0.5 1.1-1.1 1.1-0.6 0-1.1-0.5-1.1-1.1 0-0.5 0.5-1 1.1-1 0.6 0 1.1 0.5 1.1 1z"/>
				<path id="&lt;Path&gt;" class="s11" d="m548.2 728.6c0 1.4-1.1 2.5-2.4 2.5-1.4 0-2.5-1.1-2.5-2.5 0-1.3 1.1-2.4 2.5-2.4 1.3 0 2.4 1.1 2.4 2.4z"/>
				<path id="&lt;Path&gt;" class="s11" d="m596.7 733c0 1-0.9 1.8-1.9 1.8-1 0-1.8-0.8-1.8-1.8 0-1.1 0.8-1.9 1.8-1.9 1 0 1.9 0.8 1.9 1.9z"/>
				<path id="&lt;Path&gt;" class="s11" d="m499.8 737.4c0 1.4-1.1 2.5-2.5 2.5-1.5 0-2.6-1.1-2.6-2.5 0-1.4 1.1-2.6 2.6-2.6 1.4 0 2.5 1.2 2.5 2.6z"/>
			</g>
			<g id="&lt;Group&gt;">
				<path id="&lt;Path&gt;" class="s10" d="m1557 670.3c-40.3-30.3-89-49.4-139.1-54.7-29.9-3.1-61.5-1-87.7 13.7-26.1 14.8-45.3 44.7-40.6 74.4-21.4-11-49.3-9-68 6.2-20.1-1.9-42 4-56.7 18-14.6 13.9-22.8 34.4-21.9 54.6 70.6 13.7 141.6 21.6 213.5 24.8 37 1.6 74.4 1.9 110.6-5.9 36.2-7.8 71.5-24.2 96.5-51.5 10.4-11.4 19.1-25.1 21-40.4 1.8-15.3-15.3-29.9-27.6-39.2z"/>
				<path id="&lt;Path&gt;" class="s11" d="m1557 670.3c-40.1-30.1-88.3-49.2-138.2-54.6q3.3 1.3 6.5 2.7c14.9 6.5 29.4 15.1 39.2 28.1 9.7 13 13.8 31.2 6.9 45.9-8.8 18.7-31.5 26.1-52 29.6-29.5 5-59.7 6.2-89.5 3.5 18.6 8.7 35.1 16.5 53.8 25.2-46.4 11.2-97.2 2.9-137.7-22.3 7.2 11.6 16 22.7 27.6 30-27.6-2-54.8-10.2-78.9-24-3.5 13.3 1.9 27.7 11.2 37.7 9.3 10 21.9 16.3 34.7 21.1 7.4 2.8 14.9 5.1 22.4 7.1 31 3.3 62.2 5.6 93.5 7 37 1.6 74.4 1.9 110.6-5.9 36.2-7.8 71.5-24.2 96.5-51.5 10.4-11.4 19.1-25.1 21-40.4 1.8-15.3-15.3-29.9-27.6-39.2z"/>
				<path id="&lt;Path&gt;" class="s11" d="m1407.6 688.1c0 1.6-1.4 3-3.1 3-1.6 0-3-1.4-3-3 0-1.7 1.4-3.1 3-3.1 1.7 0 3.1 1.4 3.1 3.1z"/>
				<path id="&lt;Path&gt;" class="s11" d="m1445.9 654.9c0 0.9-0.6 1.5-1.5 1.5-0.8 0-1.5-0.6-1.5-1.5 0-0.8 0.7-1.5 1.5-1.5 0.9 0 1.5 0.7 1.5 1.5z"/>
				<path id="&lt;Path&gt;" class="s11" d="m1412.4 657.3c0 1.4-1.1 2.4-2.4 2.4-1.3 0-2.4-1-2.4-2.4 0-1.3 1.1-2.4 2.4-2.4 1.3 0 2.4 1.1 2.4 2.4z"/>
				<path id="&lt;Path&gt;" class="s11" d="m1450.6 686.6c0 0.8-0.7 1.5-1.5 1.5-0.8 0-1.5-0.7-1.5-1.5 0-0.9 0.7-1.6 1.5-1.6 0.8 0 1.5 0.7 1.5 1.6z"/>
				<path id="&lt;Path&gt;" class="s11" d="m1368 706.2c0 1.2-0.9 2.1-2.1 2.1-1.1 0-2.1-0.9-2.1-2.1 0-1.1 1-2.1 2.1-2.1 1.2 0 2.1 1 2.1 2.1z"/>
				<path id="&lt;Path&gt;" class="s11" d="m1371.3 672.7c0 0.9-0.7 1.6-1.6 1.6-0.9 0-1.7-0.7-1.7-1.6 0-0.9 0.8-1.6 1.7-1.6 0.9 0 1.6 0.7 1.6 1.6z"/>
				<path id="&lt;Path&gt;" class="s11" d="m1331.3 702c0 1.2-1 2.1-2.1 2.1-1.2 0-2.1-0.9-2.1-2.1 0-1.1 0.9-2.1 2.1-2.1 1.1 0 2.1 1 2.1 2.1z"/>
				<path id="&lt;Path&gt;" class="s11" d="m1305 734.7c0 1-0.8 1.7-1.7 1.7-1 0-1.8-0.7-1.8-1.7 0-1 0.8-1.7 1.8-1.7 0.9 0 1.7 0.7 1.7 1.7z"/>
				<path id="&lt;Path&gt;" class="s11" d="m1432.7 743.2c0 2-1.7 3.7-3.7 3.7-2.1 0-3.8-1.7-3.8-3.7 0-2.1 1.7-3.7 3.8-3.7 2 0 3.7 1.6 3.7 3.7z"/>
				<path id="&lt;Path&gt;" class="s11" d="m1496.2 694.2c0 0.5-0.4 0.8-0.8 0.8-0.5 0-0.8-0.3-0.8-0.8 0-0.4 0.3-0.8 0.8-0.8 0.4 0 0.8 0.4 0.8 0.8z"/>
				<path id="&lt;Path&gt;" class="s11" d="m1483.9 643.9c0 1.1-1 2.1-2.1 2.1-1.2 0-2.1-1-2.1-2.1 0-1.2 0.9-2.1 2.1-2.1 1.1 0 2.1 0.9 2.1 2.1z"/>
				<path id="&lt;Path&gt;" class="s11" d="m1481.1 730.6c0 1.3-1.1 2.4-2.4 2.4-1.2 0-2.3-1.1-2.3-2.4 0-1.3 1.1-2.3 2.3-2.3 1.3 0 2.4 1 2.4 2.3z"/>
				<path id="&lt;Path&gt;" class="s11" d="m1457.1 764.9c0 1.3-1 2.2-2.2 2.2-1.2 0-2.2-0.9-2.2-2.2 0-1.2 1-2.2 2.2-2.2 1.2 0 2.2 1 2.2 2.2z"/>
				<path id="&lt;Path&gt;" class="s11" d="m1404.5 788.2c0 1.5-1.1 2.7-2.6 2.7-1.5 0-2.7-1.2-2.7-2.7 0-1.5 1.2-2.7 2.7-2.7 1.5 0 2.6 1.2 2.6 2.7z"/>
				<path id="&lt;Path&gt;" class="s11" d="m1344.1 774.9c0 2.2-1.7 3.9-3.9 3.9-2.1 0-3.8-1.7-3.8-3.9 0-2.1 1.7-3.8 3.8-3.8 2.2 0 3.9 1.7 3.9 3.8z"/>
				<path id="&lt;Path&gt;" class="s11" d="m1275.8 780.8c0 1.1-0.9 2-2 2-1.1 0-2.1-0.9-2.1-2 0-1.1 1-2 2.1-2 1.1 0 2 0.9 2 2z"/>
				<path id="&lt;Path&gt;" class="s11" d="m1305 763.6c0 0.5-0.4 0.9-0.9 0.9-0.5 0-0.8-0.4-0.8-0.9 0-0.5 0.3-0.9 0.8-0.9 0.5 0 0.9 0.4 0.9 0.9z"/>
				<path id="&lt;Path&gt;" class="s11" d="m1242.7 773.8c0 1.5-1.2 2.6-2.7 2.6-1.5 0-2.7-1.1-2.7-2.6 0-1.5 1.2-2.7 2.7-2.7 1.5 0 2.7 1.2 2.7 2.7z"/>
				<path id="&lt;Path&gt;" class="s11" d="m1228.5 721.3c0 0.7-0.6 1.4-1.4 1.4-0.8 0-1.4-0.7-1.4-1.4 0-0.8 0.6-1.5 1.4-1.5 0.8 0 1.4 0.7 1.4 1.5z"/>
				<path id="&lt;Path&gt;" class="s11" d="m1171.6 756.7c0 1.6-1.3 2.9-2.8 2.9-1.6 0-2.9-1.3-2.9-2.9 0-1.6 1.3-2.8 2.9-2.8 1.5 0 2.8 1.2 2.8 2.8z"/>
			</g>
			<g id="&lt;Group&gt;">
				<path id="&lt;Path&gt;" class="s12" d="m1535.5 746.7c-1.7 1.4-3.2 3-4.3 4.8 0.4-2.3 0.3-4.7-0.3-6.9-2 1.8-3.7 3.9-5.1 6.2 1-3.1 1.3-6.4 1-9.7-5 5.7-8.6 12.7-10.2 20.2q3.5-14.7 6.9-29.4-7.8 13.1-15.6 26.1 3.9-17 7.7-34c-10.3 9.3-17.3 22.2-19.5 35.9q-0.9-9-1.7-17.9-1 7.4-2 14.8-1.1-7.4-2.3-14.9-1.4 5.8-2.8 11.5-1.8-5.3-3.7-10.6c-2.5 6-3 12.8-1.5 19.2q-8.3-7.7-16.6-15.3c0.3-6.7 2.6-13.3 6.5-18.8-8.1 6.2-15.6 13.4-22.2 21.3q4-11.6 8.1-23.2-10.9 13.4-21.7 26.7 5.7-13.7 11.5-27.4-12.7 13.6-25.4 27.3c4.8-5.9 8.2-13 9.8-20.5-7.2 3.8-13.6 9.1-18.6 15.5q4.5-7.8 9.1-15.5-18.4 12-36.8 23.9 3.6-4.5 7.3-9.1-15.9 4.4-31.7 8.8 7.5-4.4 15-8.9-15.3 3.2-30.6 6.4 10.9-5.4 21.9-10.8-18.7 4.7-37.4 9.4 18-8.5 36.1-16.9c-18.9 6.6-38 5.2-53.5 15.3q6.1-5.2 12.1-10.4c-12.2 1.9-24.1 6.4-34.7 13q4.9-5 9.8-9.9-9.7 4.6-19.5 9.3c3.3-1.8 5.9-4.9 7.1-8.5-6.9 1.9-13.5 5.3-19.1 9.9q4.7-6.6 9.4-13.1-9.4 6.7-18.7 13.4 9.6-13.9 19.2-27.8c-15.2 5.8-28.6 16.1-38.2 29.2q0.6-5.9 1.3-11.8-4.1 5.1-8.1 10.1 0.7-4.7 1.5-9.4-5.7 6-11.4 12 2.3-7.3 4.5-14.5-6.1 6.9-12.2 13.9 5.3-15.9 10.6-31.8-17.1 16-34.2 32 2.3-3.8 4.6-7.6-10.9 5.1-21.8 10.3 4.9-5.1 9.9-10.1c-9.2 1-18.1 4.2-25.8 9.3q5.8-5.3 11.5-10.5c-10.3 0.8-20.3 4.4-28.9 10.2q10.1-8.2 20.2-16.5c-15.1 5.6-31 10.8-46.2 16.4q5.5-6.7 10.9-13.4c-6.9 0.7-13.6 3.4-19.1 7.6q3.3-3.9 6.5-7.9c-7.5 1.4-14.7 4.9-20.4 10q5.6-6.3 11.1-12.6c-6.7 1.9-13 5.7-17.9 10.8q5.1-6.7 10.2-13.4c-8.4 3.7-16 9.1-22.3 15.8q9.3-12 18.7-24c-11.7 6-21.9 14.8-29.6 25.4q10-15.1 19.9-30.3c-13.8 6-25.8 16.3-33.8 29.1q1.8-7.2 3.6-14.5c-4.2 3.7-7.5 8.4-9.7 13.5 1.6-4.8 2.2-9.9 1.6-14.9q-5.7 8.7-11.4 17.4 0.6-10.5 1.2-21.1-4.6 11.3-9.1 22.6 0.9-13.5 1.8-27-6.2 13-12.4 26 1.9-13.7 3.8-27.4-7 15.8-13.9 31.6 0.1-6.3 0.2-12.6-5.9 7.9-11.9 15.7 2.8-6.6 5.6-13.2-7.6 6.5-15.2 12.9 3.7-6.3 7.3-12.7-7.7 4.2-15.3 8.4c0.3-1.4-0.9-3.8-0.5-5.3q1.3-1 2.7-2.1-7 2.7-14.1 5.4 2.4-2.4 4.9-4.7c-5.2 0.2-10.2 1.9-14.4 4.8q3.2-3.4 6.4-6.9-5.2 2.2-10.4 4.4 5.3-4.3 10.6-8.5-8.4 4.5-16.9 9 15.7-14.6 31.4-29.3c-23.8 4.5-46.1 16.6-62.8 34q2.6-4 5.1-8-6 3-12.1 6 3-3.4 5.9-6.8-6.8 3.2-13.6 6.4 4.2-4.1 8.4-8.2-7.5 3.8-15 7.7 4.4-5 8.8-10-11.6 6.8-23.2 13.7 19.3-18.6 38.5-37.3c-21 9.1-40.3 22.2-56.6 38.3q2.5-4.3 5-8.5-5.8 4.7-11.5 9.4 3.5-5.2 7.1-10.3c-6 1.5-11.5 5.2-15.3 10.3q3.9-6.5 7.8-12.9-8 4.9-16 9.7 3.2-4.2 6.4-8.4c-6.1 2.1-11.6 6-15.6 11q5.1-7.3 10.2-14.7-11.5 9.1-22.9 18.3 16.2-22.9 32.5-45.8c-15.5 12.4-29.5 26.7-41.5 42.5q3.7-9.1 7.3-18.2c-3.5 1.5-6.5 4.2-8.7 7.4 0.5-2.3 0.4-4.7-0.2-6.9-2 1.8-3.7 3.9-5.1 6.2 0.9-3.1 1.3-6.4 1-9.7-5 5.7-8.6 12.7-10.2 20.2q3.5-14.7 6.9-29.4-7.8 13.1-15.6 26.1 3.8-17 7.7-34c-10.3 9.3-17.3 22.2-19.6 35.9q-0.4-4.6-0.8-9.1 0.1-0.2 0.1-0.3c-0.5-8 1.9-16.1 6.6-22.6-6.4 4.9-12.4 10.4-17.8 16.3q-0.3-0.7-0.5-1.4-0.6 1.5-1.1 3.1c-0.9 1.1-1.9 2.2-2.9 3.3q4.1-11.6 8.1-23.2-9.6 11.8-19.1 23.6-0.5-0.4-0.9-0.8 4.9-11.8 9.8-23.5-12.7 13.6-25.4 27.3c4.9-5.9 8.3-13 9.8-20.5-7.1 3.8-13.5 9.1-18.6 15.5q4.6-7.8 9.2-15.5-18.5 12-36.9 23.9 3.7-4.5 7.3-9.1-15.8 4.4-31.6 8.8 7.5-4.4 15-8.9-15.3 3.2-30.7 6.4 11-5.4 21.9-10.8-18.7 4.7-37.4 9.4 18.1-8.5 36.1-16.9c-18.9 6.6-38 5.2-53.4 15.3q6-5.2 12.1-10.4c-12.3 1.9-24.2 6.4-34.7 13q4.9-5 9.8-9.9-9.8 4.6-19.5 9.3c3.3-1.8 5.9-4.9 7.1-8.5-7 1.9-13.6 5.3-19.2 9.9q4.7-6.6 9.4-13.1-9.3 6.7-18.7 13.4 9.6-13.9 19.3-27.8c-15.2 5.8-28.7 16.1-38.3 29.2q0.7-5.9 1.3-11.8-4 5.1-8.1 10.1 0.8-4.7 1.5-9.4-5.6 6-11.3 12 2.2-7.3 4.5-14.5-6.2 6.9-12.3 13.9 5.3-15.9 10.6-31.8-17.1 16-34.2 32 2.4-3.8 4.7-7.6-11 5.1-21.9 10.3 5-5.1 9.9-10.1c-9.1 1-18.1 4.2-25.8 9.3q5.8-5.3 11.5-10.5c-10.2 0.8-20.3 4.4-28.8 10.2q10.1-8.2 20.2-16.5c-15.2 5.6-31.1 10.8-46.2 16.4q5.4-6.7 10.9-13.4c-6.9 0.7-13.7 3.4-19.2 7.6q3.3-3.9 6.6-7.9c-7.6 1.4-14.7 4.9-20.5 10q5.6-6.3 11.2-12.6c-6.8 1.9-13.1 5.7-17.9 10.8q5-6.7 10.1-13.4c-8.4 3.7-16 9.1-22.3 15.8q9.4-12 18.7-24c-11.6 6-21.9 14.8-29.6 25.4q10-15.1 20-30.3c-13.9 6-25.8 16.3-33.9 29.1q1.8-7.2 3.6-14.5c-4.1 3.7-7.4 8.4-9.7 13.5 1.6-4.8 2.2-9.9 1.7-14.9q-5.7 8.7-11.4 17.4 0.5-10.5 1.1-21.1-4.5 11.3-9.1 22.6 0.9-13.5 1.8-27-6.2 13-12.4 26 1.9-13.7 3.8-27.4-6.9 15.8-13.9 31.6 0.1-6.3 0.2-12.6-5.9 7.9-11.8 15.7 2.7-6.6 5.5-13.2-7.6 6.5-15.2 12.9 3.7-6.3 7.4-12.7-7.7 4.2-15.4 8.4c0.3-1.4-0.8-3.8-0.5-5.3q1.4-1 2.8-2.1-7.1 2.7-14.1 5.4 2.4-2.4 4.8-4.7c-5.1 0.2-10.2 1.9-14.4 4.8q3.2-3.4 6.5-6.9-5.2 2.2-10.4 4.4 5.2-4.3 10.5-8.5-8.4 4.5-16.8 9 15.6-14.6 31.3-29.3c-23.8 4.5-46 16.6-62.8 34q2.6-4 5.2-8-6.1 3-12.2 6 3-3.4 6-6.8-6.8 3.2-13.6 6.4 4.2-4.1 8.3-8.2-7.5 3.8-14.9 7.7 4.4-5 8.8-10-11.7 6.8-23.3 13.7 19.3-18.6 38.6-37.3c-21.1 9.1-40.4 22.2-56.6 38.3q2.5-4.3 5-8.5-5.8 4.7-11.6 9.4 3.6-5.2 7.2-10.3c-6.1 1.5-11.6 5.2-15.3 10.3q3.9-6.5 7.7-12.9-8 4.9-15.9 9.7 3.1-4.2 6.3-8.4c-6.1 2.1-11.5 6-15.5 11q5.1-7.3 10.1-14.7-11.4 9.1-22.9 18.3 16.3-22.9 32.6-45.8c-15.6 12.4-29.5 26.7-41.5 42.5q3.6-9.1 7.3-18.2c-3.6 1.5-6.6 4.2-8.7 7.4 0.4-2.3 0.3-4.7-0.3-6.9-2 1.8-3.7 3.9-5 6.2 0.9-3.1 1.2-6.4 1-9.7-5.1 5.7-8.6 12.7-10.2 20.2q3.4-14.7 6.8-29.4-7.8 13.1-15.6 26.1 3.9-17 7.7-34c-10.3 9.3-17.3 22.2-19.5 35.9q-0.8-9-1.7-17.9-1 7.4-2 14.8-1.1-7.4-2.2-14.9-1.5 5.8-2.9 11.5-1.8-5.3-3.6-10.6c-2.6 6-3.1 12.8-1.6 19.2q-8.3-7.7-16.6-15.3c0.4-6.7 2.6-13.3 6.6-18.8-8.2 6.2-15.7 13.4-22.3 21.3q4.1-11.6 8.1-23.2-10.8 13.4-21.7 26.7 5.8-13.7 11.5-27.4-12.7 13.6-25.4 27.3c4.9-5.9 8.3-13 9.8-20.5-7.2 3.8-13.5 9.1-18.6 15.5q4.6-7.8 9.2-15.5-16.3 10.6-32.5 21.1v401.8h1569.5v-396.5q-1.5 1.9-2.9 3.8 1.4-3.7 2.9-7.4z"/>
				<path id="&lt;Path&gt;" class="s12" d="m-34 750.6q1.4-1.9 2.9-3.7-1.5 0.4-2.9 0.8z"/>
			</g>
			<path id="&lt;Path&gt;" class="s13" d="m1657.6 777.3c-228.1-0.4-456.2 12.9-682.7 40-86.2 10.3-172.3 22.7-259.1 25.1-314.3 8.9-624-111.4-937.3-84.6 194.4 15.8 376.4 50.7 561.9 110.8q-232.7-15.1-465.4-30.2c66.3 45.7 151.1 64.9 231.5 70.4 80.5 5.5 161.3-0.2 241.8 3.6 101.9 4.9 202.7 25 304.7 28.3 128.1 4.3 255.4-17.8 381.5-40.6 209.5-37.8 414.4-80.8 623.1-122.8z"/>
			<path id="&lt;Path&gt;" class="s6" d="m1809.6 910.4c-5.3-13.4-16.9-23-26-34.2-9-11.1-20.1-28.8-13.6-41.6-0.7-11.2 2.6-22.5 9.1-31.6-11.4 8.8-21.8 18.7-31 29.8q5.6-16.2 11.3-32.4-15.2 18.7-30.3 37.3 8-19.2 16-38.4-17.7 19.1-35.4 38.2c6.8-8.2 11.5-18.2 13.7-28.7-10.1 5.4-19 12.8-26.1 21.7q6.4-10.8 12.9-21.6-25.8 16.7-51.5 33.4 5.1-6.3 10.2-12.7-22.1 6.1-44.2 12.2 10.5-6.2 20.9-12.3-21.3 4.4-42.7 8.8 15.2-7.5 30.5-15-26.1 6.5-52.2 13.1 25.2-11.8 50.4-23.6c-26.4 9.2-53 7.3-74.7 21.3q8.5-7.2 17-14.5c-17.2 2.7-33.8 9-48.5 18.2q6.9-6.9 13.7-13.9-13.6 6.5-27.2 13c4.6-2.5 8.2-6.8 9.9-11.8-9.8 2.6-18.9 7.4-26.8 13.8q6.6-9.2 13.2-18.3-13.1 9.4-26.2 18.8 13.5-19.5 26.9-38.9c-21.2 8.1-40 22.4-53.4 40.7q0.9-8.2 1.8-16.4-5.6 7.1-11.3 14.1 1.1-6.5 2.1-13.1-7.9 8.3-15.8 16.7 3.1-10.1 6.3-20.2-8.6 9.7-17.2 19.3 7.4-22.1 14.8-44.3-23.8 22.3-47.7 44.6 3.2-5.2 6.5-10.5-15.3 7.2-30.6 14.3 7-7 13.9-14c-12.8 1.3-25.3 5.8-36 12.9q8-7.3 16.1-14.6c-14.4 1.1-28.5 6.1-40.3 14.2q14-11.5 28.1-23c-21.1 7.8-43.3 15-64.5 22.8q7.6-9.3 15.2-18.7c-9.6 1-19 4.8-26.7 10.7q4.6-5.5 9.1-11c-10.5 1.9-20.5 6.7-28.5 13.9q7.8-8.8 15.6-17.6c-9.5 2.7-18.2 7.9-25 15q7.1-9.3 14.1-18.6c-11.7 5.2-22.3 12.7-31.1 22.1q13.1-16.8 26.1-33.6c-16.3 8.4-30.6 20.7-41.4 35.6q14-21.2 28-42.5c-19.4 8.5-36.1 22.9-47.3 40.8q2.5-10.2 5-20.3c-5.8 5.2-10.4 11.7-13.5 18.8 2.2-6.7 3-13.8 2.3-20.7q-8 12.1-16 24.3 0.8-14.8 1.6-29.5-6.3 15.8-12.7 31.6 1.3-18.9 2.5-37.7-8.6 18.1-17.3 36.2 2.7-19.1 5.4-38.3-9.8 22.1-19.5 44.2 0.2-8.8 0.3-17.6-8.3 11-16.6 22 3.9-9.3 7.8-18.5-10.6 9-21.2 18 5.1-8.9 10.2-17.7-10.7 5.9-21.4 11.8c0.5-2-1.2-5.5-0.7-7.5q1.9-1.5 3.9-2.9-9.9 3.7-19.8 7.4 3.4-3.2 6.8-6.4c-7.2 0.2-14.2 2.6-20.1 6.7q4.5-4.9 9-9.7-7.3 3-14.5 6.1 7.3-5.9 14.7-11.9-11.7 6.4-23.5 12.7 21.9-20.5 43.7-40.9c-33.1 6.2-64.2 23.1-87.6 47.4q3.6-5.6 7.2-11.2-8.5 4.2-17 8.4 4.2-4.7 8.3-9.5-9.5 4.5-19 9 5.9-5.8 11.7-11.5-10.5 5.4-20.9 10.8 6.1-7 12.3-14-16.2 9.5-32.5 19.1 26.9-26 53.9-52c-29.4 12.7-56.3 30.9-79.1 53.4q3.5-6 7-11.9-8.1 6.6-16.1 13.1 5-7.2 10-14.3c-8.5 2.1-16.2 7.3-21.4 14.3q5.4-8.9 10.8-17.9-11.1 6.8-22.3 13.6 4.5-5.9 8.9-11.8c-8.5 2.9-16.1 8.3-21.7 15.4q7.1-10.3 14.2-20.6-16 12.8-32 25.5 22.7-31.9 45.4-63.8c-21.6 17.2-41.1 37.2-57.9 59.3q5.1-12.7 10.2-25.4c-5 2.1-9.2 5.8-12.1 10.2 0.5-3.1 0.4-6.4-0.4-9.6-2.8 2.6-5.2 5.5-7.1 8.7 1.3-4.3 1.8-9 1.4-13.5-7 7.9-12 17.7-14.2 28.1q4.8-20.5 9.5-41-10.8 18.3-21.7 36.5 5.4-23.8 10.7-47.5c-14.3 13-24.1 30.9-27.3 50q-1.1-12.4-2.3-24.9-1.4 10.3-2.7 20.6-1.6-10.3-3.2-20.7-2 8.1-4 16.1-2.6-7.4-5.1-14.9c-3.5 8.4-4.3 18-2.2 26.8q-11.6-10.6-23.1-21.3c0.4-9.4 3.6-18.6 9.1-26.3-11.4 8.8-21.9 18.7-31.1 29.8q5.7-16.2 11.3-32.4-15.1 18.7-30.3 37.3 8.1-19.2 16.1-38.4-17.8 19.1-35.5 38.2c6.8-8.2 11.5-18.2 13.7-28.7-10 5.4-18.9 12.8-26 21.7q6.4-10.8 12.8-21.6-25.7 16.7-51.5 33.4 5.1-6.3 10.2-12.7-22.1 6.1-44.2 12.2 10.5-6.2 21-12.3-21.4 4.4-42.8 8.8 15.3-7.5 30.6-15-26.2 6.5-52.3 13.1 25.2-11.8 50.5-23.6c-26.4 9.2-53.1 7.3-74.7 21.3q8.4-7.2 16.9-14.5c-17.1 2.7-33.7 9-48.4 18.2q6.8-6.9 13.6-13.9-13.6 6.5-27.2 13c4.6-2.5 8.3-6.8 9.9-11.8-9.7 2.6-18.9 7.4-26.7 13.8q6.5-9.2 13.1-18.3-13.1 9.4-26.1 18.8 13.4-19.5 26.8-38.9c-21.2 8.1-39.9 22.4-53.4 40.7q0.9-8.2 1.8-16.4-5.6 7.1-11.3 14.1 1.1-6.5 2.2-13.1-8 8.3-15.9 16.7 3.2-10.1 6.3-20.2-8.6 9.7-17.1 19.3 7.4-22.1 14.8-44.3-23.9 22.3-47.8 44.6 3.3-5.2 6.5-10.5-15.3 7.2-30.5 14.3 6.9-7 13.9-14c-12.9 1.3-25.3 5.8-36.1 12.9q8.1-7.3 16.1-14.6c-14.4 1.1-28.4 6.1-40.3 14.2q14.1-11.5 28.2-23c-21.2 7.8-43.3 15-64.5 22.8q7.6-9.3 15.2-18.7c-9.7 1-19 4.8-26.7 10.7q4.5-5.5 9.1-11c-10.6 1.9-20.6 6.7-28.5 13.9q7.7-8.8 15.5-17.6c-9.5 2.7-18.2 7.9-25 15q7.1-9.3 14.2-18.6c-11.7 5.2-22.4 12.7-31.2 22.1q13.1-16.8 26.2-33.6c-16.3 8.4-30.6 20.7-41.4 35.6q13.9-21.2 27.9-42.5c-19.4 8.5-36.1 22.9-47.3 40.8q2.5-10.2 5-20.3c-5.8 5.2-10.4 11.7-13.5 18.8 2.2-6.7 3-13.8 2.3-20.7q-8 12.1-15.9 24.3 0.8-14.8 1.5-29.5-6.3 15.8-12.7 31.6 1.3-18.9 2.6-37.7-8.7 18.1-17.3 36.2 2.6-19.1 5.3-38.3-9.7 22.1-19.4 44.2 0.1-8.8 0.3-17.6-8.3 11-16.6 22 3.9-9.3 7.7-18.5-10.6 9-21.2 18 5.1-8.9 10.3-17.7-10.7 5.9-21.5 11.8c0.5-2-1.2-5.5-0.7-7.5q2-1.5 3.9-2.9-9.9 3.7-19.7 7.4 3.4-3.2 6.7-6.4c-7.1 0.2-14.2 2.6-20.1 6.7q4.5-4.9 9-9.7-7.2 3-14.5 6.1 7.4-5.9 14.8-11.9-11.8 6.4-23.5 12.7 21.8-20.5 43.7-40.9c-33.2 6.2-64.3 23.1-87.7 47.4q3.6-5.6 7.2-11.2-8.5 4.2-16.9 8.4 4.1-4.7 8.2-9.5-9.4 4.5-18.9 9 5.8-5.8 11.6-11.5-10.4 5.4-20.9 10.8 6.2-7 12.3-14-16.2 9.5-32.4 19.1 26.9-26 53.8-52c-29.4 12.7-56.3 30.9-79.1 53.4q3.5-6 7.1-11.9-8.1 6.6-16.2 13.1 5-7.2 10-14.3c-8.5 2.1-16.2 7.3-21.3 14.3q5.4-8.9 10.8-17.9-11.2 6.8-22.3 13.6 4.4-5.9 8.8-11.8c-8.5 2.9-16.1 8.3-21.7 15.4q7.1-10.3 14.2-20.6-16 12.8-32 25.5 22.7-31.9 45.5-63.8c-21.7 17.2-41.2 37.2-57.9 59.3q5-12.7 10.1-25.4c-4.9 2.1-9.1 5.8-12.1 10.2 0.6-3.1 0.5-6.4-0.4-9.6-2.7 2.6-5.1 5.5-7 8.7 1.2-4.3 1.7-9 1.3-13.5-7 7.9-11.9 17.7-14.2 28.1q4.8-20.5 9.6-41-10.9 18.3-21.8 36.5 5.4-23.8 10.8-47.5c-14.4 13-24.2 30.9-27.3 50q-1.2-12.4-2.3-24.9-1.4 10.3-2.8 20.6-1.6-10.3-3.2-20.7-2 8.1-4 16.1-2.5-7.4-5.1-14.9c-3.5 8.4-4.3 18-2.2 26.8q-12.9-11.9-25.9-23.9c-28.9 15.8-59.8 63.4-45.5 93 14.4 29.6 45.8 48 78 55 32.1 7 65.5 4.2 98.3 1.8 268.3-20 538.2-17.2 805.9 8.4 28.5 2.7 58.4 5.5 84.8-5.8 4.7-2 9.2-4.7 13.4-7.8q6.4 2 12.8 3.4c32.2 7 65.6 4.2 98.4 1.8 268.2-20 538.1-17.2 805.9 8.4 28.5 2.7 58.4 5.5 84.7-5.8 26.3-11.3 46.7-42 36.2-68.7z"/>
			<path id="&lt;Path&gt;" class="s14" d="m-15.7 872.5q19.6 18 39.2 36.1c-3.2-13.4-2.1-27.7 3.2-40.4q3.9 11.2 7.8 22.4 3-12.1 6-24.2 2.4 15.6 4.8 31.2 2-15.6 4.1-31.2 1.8 18.9 3.5 37.7c4.8-28.8 19.6-56 41.2-75.6q-8.1 35.9-16.2 71.7 16.4-27.5 32.8-55-7.2 31-14.4 61.9c3.4-15.7 10.8-30.5 21.5-42.5 1 11.7-1.8 23.7-7.8 33.8 2.8-10.1 8.6-19.4 16.4-26.5 2.6 9.7 0.5 20.5-5.5 28.5 2.9-12.9 12.2-24.2 24.3-29.4q-7.7 19.1-15.3 38.3c25.2-33.3 54.7-63.5 87.4-89.5q-34.3 48.2-68.6 96.3 24.1-19.2 48.3-38.5-10.7 15.5-21.4 31.1c8.4-10.6 19.9-18.8 32.7-23.2q-6.7 8.9-13.4 17.7 16.9-10.2 33.7-20.4-8.2 13.5-16.3 27c7.8-10.6 19.4-18.4 32.2-21.7q-7.6 10.9-15.1 21.7 12.2-9.9 24.4-19.8-5.3 9-10.6 17.9c34.3-33.9 75-61.4 119.3-80.5q-40.6 39.2-81.2 78.5 24.5-14.5 48.9-28.9-9.2 10.5-18.5 21.1 15.8-8.1 31.5-16.3-8.8 8.7-17.5 17.5 14.3-6.8 28.6-13.6-6.3 7.2-12.5 14.3 12.8-6.3 25.6-12.7-5.5 8.5-10.9 16.9c35.3-36.7 82.2-62.1 132.3-71.6q-33 30.9-66 61.8 17.7-9.6 35.5-19.2-11.2 9-22.3 18 11-4.6 21.9-9.2-6.8 7.3-13.6 14.6c8.9-6.2 19.6-9.8 30.4-10.1q-5.1 4.9-10.2 9.7 14.9-5.6 29.7-11.3-2.9 2.3-5.8 4.5c-0.7 3 1.8 8.2 1.1 11.2q16.1-8.8 32.3-17.7-7.7 13.3-15.5 26.6 16.1-13.5 32.1-27-5.9 13.9-11.8 27.8 12.6-16.6 25.1-33.2-0.2 13.3-0.5 26.6 14.7-33.3 29.4-66.7-4 28.9-8 57.8 13-27.3 26.1-54.7-2 28.5-3.9 56.9 9.6-23.8 19.2-47.7-1.2 22.3-2.4 44.5 12-18.3 24.1-36.6c1.3 13-0.8 26.4-6.2 38.4 4.4-13.6 12.5-26 23.1-35.5q-3.8 15.3-7.6 30.6c17-27 42.2-48.7 71.4-61.5q-21.1 32-42.1 64c16.2-22.4 37.8-40.9 62.4-53.6q-19.7 25.3-39.4 50.6c13.3-14.1 29.3-25.5 47-33.3q-10.7 14.1-21.4 28.1c10.2-10.7 23.4-18.6 37.7-22.6q-11.7 13.2-23.5 26.4c12.1-10.7 27.2-18 43.1-20.9q-6.9 8.3-13.8 16.7c11.6-9 25.8-14.7 40.4-16.2q-11.5 14.1-23 28.2c32-11.7 65.4-22.6 97.3-34.4q-21.2 17.4-42.5 34.7c18-12.2 39.2-19.7 60.8-21.5q-12.1 11.1-24.2 22.1c16.2-10.7 35-17.5 54.4-19.5q-10.5 10.6-21 21.2 23.1-10.8 46.1-21.6-4.9 7.9-9.8 15.9 36.1-33.7 72.1-67.3-11.2 33.4-22.4 66.8 12.9-14.5 25.9-29.1-4.7 15.2-9.5 30.4 12-12.6 23.9-25.2-1.6 10-3.2 19.9 8.5-10.7 17.1-21.3-1.4 12.4-2.8 24.7c20.3-27.6 48.7-49.2 80.7-61.5q-20.3 29.4-40.6 58.7 19.7-14.2 39.5-28.4-10 13.9-19.9 27.7c11.8-9.7 25.7-16.8 40.4-20.9-2.5 7.6-8 14.1-15 17.9q20.6-9.8 41.1-19.6-10.3 10.5-20.6 21c22.2-14 47.2-23.4 73.1-27.5q-23.2 19.9-46.5 39.9 3.3-3.2 6.6-6.4c34.6-34.1 81.1-27.8 127-43.8q-38 17.8-76.1 35.6 39.4-9.9 78.9-19.8-23.1 11.4-46.1 22.7 32.2-6.7 64.5-13.3-15.8 9.3-31.6 18.6 33.3-9.2 66.6-18.4-7.6 9.6-15.3 19.2 38.8-25.2 77.7-50.4-9.7 16.2-19.4 32.5c10.7-13.4 24.2-24.6 39.3-32.7-3.3 15.8-10.4 30.8-20.7 43.3q26.8-28.8 53.6-57.6-12.1 29-24.3 57.9 22.9-28.1 45.7-56.3-8.5 24.4-17 48.8c13.9-16.6 29.7-31.7 46.9-44.8-9.9 13.6-14.8 30.7-13.8 47.5-9.9 19.4 6.9 46.1 20.5 63 13.7 16.8 31.3 31.3 39.2 51.6 15.9 40.2-14.9 86.5-54.6 103.6-39.7 17-84.9 12.9-127.9 8.7-404-38.6-811.4-42.8-1216.1-12.7-49.6 3.7-99.9 7.9-148.5-2.7-48.5-10.5-96-38.2-117.6-82.9-21.7-44.8 24.9-116.6 68.6-140.4z"/>
			<g id="&lt;Group&gt;">
				<path id="&lt;Path&gt;" class="s7" d="m332.2 56c-4.6 22.7-9.1 46.3-3.4 68.8 5.6 22.5 24.7 43.3 47.8 43.1-1.6 11.1 7.2 22.7 17.5 27.2 10.3 4.5 23.4 1.3 30.5-7.4 7.7 13.6 30.5 16.5 41.1 5.1 10.3 14.6 33.5 18.8 49.2 10.3 5.9 17.9 23.7 27.1 42.3 30.3 18.5 3.1 38.6-4.7 50.1-19.7 18.6 7.3 51.7 10.4 70.1 2.7 18.4-7.7 33.7-22.7 41.6-41 11 6 21.5 12.8 33 7.9 11.6-4.9 20.6-15.3 23.9-27.4 22.3 3.5 46.2-13.1 48.1-35.6 16.9-0.2 34.3-13.3 35.9-30.1 12.5 4.3 27.7-2.3 30.8-15.1 10.5 4.2 23.3-4 24.7-15.2 16.7-1.3 32.1-6.5 41.9-20.1 9.9-13.6 13.5-31.5 9.5-47.8 6.8-21.4-14.2-47.8-35-55.9-20.9-8.1-44-6.4-66.4-7.8-96.6-6-181.4-71.4-277.8-79.9-60.8-5.3-123.4 13.4-171.2 51.3-47.8 37.9-72.3 96.5-84.2 156.3z"/>
				<g id="&lt;Group&gt;">
					<path id="&lt;Path&gt;" class="s15" d="m374.4 146.8c-4 9.9-3.3 20.6 1.2 29.5 9.4-3.2 17.4-10.3 21.5-20.3 4-9.9 3.3-20.6-1.2-29.5-9.4 3.2-17.4 10.3-21.5 20.3z"/>
					<path id="&lt;Path&gt;" class="s15" d="m409.3 99.1c0 8.3 3.7 15.7 9.4 20.7 5.8-5.1 9.4-12.5 9.4-20.7 0-8.3-3.7-15.6-9.5-20.7-5.7 5.1-9.3 12.5-9.3 20.7z"/>
					<path id="&lt;Path&gt;" class="s15" d="m450.3 139.9c2.3 7.9 7.9 14 14.8 17.2 4.1-6.5 5.5-14.6 3.2-22.5-2.3-8-7.9-14-14.9-17.2-4.1 6.4-5.5 14.6-3.1 22.5z"/>
					<path id="&lt;Path&gt;" class="s15" d="m564.8 177.1c8.1 1.3 16-1.1 21.9-5.9-4-6.5-10.7-11.3-18.9-12.7-8.1-1.3-16 1.1-21.9 5.9 4 6.5 10.7 11.3 18.9 12.7z"/>
					<path id="&lt;Path&gt;" class="s15" d="m500.7 111.6c5.3 6.3 12.9 9.6 20.5 9.7 1.1-7.6-0.9-15.6-6.2-21.9-5.4-6.3-13-9.5-20.6-9.6-1.1 7.5 0.9 15.5 6.3 21.8z"/>
					<path id="&lt;Path&gt;" class="s15" d="m606.1 146.8c6.5 2.3 13.3 1.5 18.8-1.6-2.3-5.9-7.1-10.8-13.6-13.1-6.4-2.3-13.2-1.5-18.8 1.6 2.4 5.9 7.2 10.8 13.6 13.1z"/>
					<path id="&lt;Path&gt;" class="s15" d="m669 147.2c2.6 6.3 7.8 10.8 13.8 12.8 2.8-5.7 3.2-12.5 0.6-18.9-2.7-6.3-7.8-10.8-13.8-12.8-2.8 5.7-3.3 12.5-0.6 18.9z"/>
					<path id="&lt;Path&gt;" class="s15" d="m584.5 101.3c4.8 1.9 10 1.4 14.2-0.8-1.6-4.5-5.1-8.3-9.9-10.1-4.9-1.9-10-1.4-14.2 0.8 1.6 4.5 5.1 8.3 9.9 10.1z"/>
					<path id="&lt;Path&gt;" class="s15" d="m644.5 95.1c5.3 4.3 12 5.8 18.3 4.7-0.3-6.3-3.2-12.6-8.6-16.8-5.3-4.3-12-5.8-18.3-4.7 0.3 6.4 3.2 12.6 8.6 16.8z"/>
					<path id="&lt;Path&gt;" class="s15" d="m719.9 110.8c2.4 6.4 7.3 11.2 13.3 13.4 3-5.5 3.7-12.4 1.4-18.8-2.4-6.4-7.4-11.2-13.3-13.4-3.1 5.6-3.8 12.4-1.4 18.8z"/>
					<path id="&lt;Path&gt;" class="s15" d="m805.1 68.7c-3.2 6-3.4 12.9-1.1 18.8 6.2-1.5 11.8-5.5 14.9-11.6 3.2-6 3.4-12.9 1.1-18.8-6.1 1.5-11.7 5.5-14.9 11.6z"/>
				</g>
				<path id="&lt;Path&gt;" class="s16" d="m-46.1 190.5c5.2 15.4 20.2 27.1 36.4 28.5 16.3 1.4 33-7.6 40.7-22 10.8 11.4 34.7 3.8 40.5-10.8 14.1 8.7 37.6-0.8 41.8-16.9 17.1 9.6 35.9 2.4 47.7-13.1 11.8-15.6 15.3-35.8 18.1-55.1-32.7-12.1-51.9-42-83.3-57.1-44.2-21.4-102.2-9.2-134 28.2-31.9 37.4-23.7 71.8-7.9 118.3z"/>
				<path id="&lt;Path&gt;" class="s12" d="m-65.2 117.4c35.3 15 80 3.7 104-26.3 6 16.6 25 30.8 42.6 29.2 11 10.5 35.5 9.1 43-4.1 3.9 12.5 23.3 18.9 32.2 9.4 5.6 12 22.6 19.6 34.3 13.3-0.3 7.3 11.3 11.1 18.2 13.6 6.9 2.5 15.3 0.1 19.8-5.7 9.1 17.5 29.9 26.5 47 16.8 18.4 10.6 43.5 4.8 55.2-12.9 16.3 11.2 35.4 8.6 43.2-9.6 17.1 11.3 38.5 9.9 48.5-8 18.8 9.9 43 4.4 55.5-12.7 16 5.8 31.9 1.8 40.1-13.1 21.1 2 43.7-15.1 48.1-35.9 12.1 1.1 22.8-8.5 30.7-17.8 7.9-9.3 12.2-21.1 15.3-32.9 5.4-21.2 7-43.4 4.5-65.2-53.6-34.4-123-28.6-186.3-35.3-51.1-5.4-100.6-20.3-149.7-35.1-49.2-14.8-98.6-29.7-149.7-35.2-51-5.4-104.3-0.8-150.4 21.8-46.1 22.5-84 64.9-93.2 115.4-9.2 50.5-0.2 110.2 47.1 130.3z"/>
				<g id="&lt;Group&gt;">
					<path id="&lt;Path&gt;" class="s17" d="m-13.1 63.8c-6.4 11.5-7.1 24.6-3 36.1 11.9-2.5 22.8-10 29.2-21.5 6.4-11.5 7.1-24.6 3-36.1-11.9 2.6-22.8 10-29.2 21.5z"/>
					<path id="&lt;Path&gt;" class="s17" d="m36.4 11c-1.2 10.1 2.1 19.6 8.4 26.6 7.7-5.3 13.3-13.8 14.5-23.8 1.2-10-2.2-19.6-8.4-26.5-7.8 5.2-13.3 13.7-14.5 23.7z"/>
					<path id="&lt;Path&gt;" class="s17" d="m80.2 66.7c1.6 10 7.5 18.2 15.5 23.1 5.9-7.2 8.8-16.9 7.2-26.9-1.7-9.9-7.6-18.2-15.5-23.1-6 7.2-8.9 16.9-7.2 26.9z"/>
					<path id="&lt;Path&gt;" class="s17" d="m213.9 129c9.7 2.9 19.6 1.1 27.5-3.9-3.9-8.5-11.3-15.3-21-18.2-9.7-2.8-19.7-1.1-27.6 3.9 3.9 8.5 11.4 15.4 21.1 18.2z"/>
					<path id="&lt;Path&gt;" class="s17" d="m145.7 39.8c5.5 8.5 14.3 13.6 23.5 14.8 2.5-9 1.3-19-4.3-27.5-5.6-8.4-14.3-13.5-23.6-14.8-2.5 9.1-1.2 19.1 4.4 27.5z"/>
					<path id="&lt;Path&gt;" class="s17" d="m268.7 98.4c7.5 3.7 15.9 3.8 23.1 0.8-1.9-7.5-7-14.2-14.6-17.9-7.5-3.8-15.9-3.8-23.1-0.9 2 7.6 7.1 14.2 14.6 18z"/>
					<path id="&lt;Path&gt;" class="s17" d="m345.1 108.1c2.3 8.1 7.9 14.4 14.9 17.7 4.3-6.5 5.8-14.7 3.5-22.8-2.3-8.1-7.9-14.4-14.9-17.7-4.2 6.5-5.8 14.8-3.5 22.8z"/>
					<path id="&lt;Path&gt;" class="s17" d="m249.2 39.8c5.6 3 11.9 3.2 17.4 1.1-1.3-5.7-5-10.8-10.6-13.8-5.6-3-11.9-3.2-17.4-1.1 1.3 5.7 5 10.9 10.6 13.8z"/>
					<path id="&lt;Path&gt;" class="s17" d="m323 41.2c5.9 6.1 13.8 8.9 21.6 8.4 0.6-7.7-2-15.7-7.9-21.7-5.9-6-13.8-8.8-21.5-8.4-0.7 7.7 1.9 15.7 7.8 21.7z"/>
					<path id="&lt;Path&gt;" class="s17" d="m412.4 71.5c2 8.2 7.3 14.7 14.2 18.3 4.5-6.3 6.4-14.5 4.5-22.7-1.9-8.1-7.3-14.6-14.2-18.3-4.5 6.4-6.4 14.5-4.5 22.7z"/>
					<path id="&lt;Path&gt;" class="s17" d="m522.4 33c-4.8 6.9-6.1 15.2-4.2 22.7 7.8-0.9 15.1-4.9 19.9-11.8 4.8-6.9 6-15.2 4.1-22.8-7.7 0.9-15 4.9-19.8 11.9z"/>
				</g>
			</g>
			<g id="&lt;Group&gt;">
				<path id="&lt;Path&gt;" class="s7" d="m1259.5 50.4c1.8 23.1 3.4 47.1-5 68.7-8.4 21.6-29.8 40-52.8 37 0.3 11.2-9.8 21.6-20.6 24.8-10.7 3.2-23.4-1.5-29.3-11.1-9.4 12.6-32.3 12.7-41.5 0.1-12 13.2-35.5 14.5-50.1 4.2-8 17.1-26.8 24-45.6 24.9-18.8 0.9-37.8-9.4-47.3-25.6-19.4 4.9-52.6 4-70-5.9-17.3-9.8-30.6-26.6-36.3-45.7-11.6 4.6-22.9 10-33.7 3.7-10.9-6.3-18.6-17.6-20.4-30-22.6 0.7-44.2-18.7-43.4-41.3-16.7-2.2-32.4-17.3-31.9-34.2-12.9 2.7-27.3-5.6-28.8-18.8-10.9 2.9-22.6-6.8-22.6-18.1-16.4-3.3-31.1-10.3-39.2-25-8.1-14.7-9.5-33-3.6-48.7-4.1-22 19.9-45.6 41.6-51.2 21.7-5.5 44.5-0.9 66.8 0.4 96.6 5.9 188.8-48.7 285.6-45.4 60.9 2.1 120.7 28.3 163.6 71.8 42.8 43.4 60 104.6 64.5 165.4z"/>
				<g id="&lt;Group&gt;">
					<path id="&lt;Path&gt;" class="s15" d="m1206.5 135.3c2.8 10.4 0.8 20.9-4.7 29.2-9-4.3-16.1-12.4-18.9-22.7-2.8-10.4-0.8-20.9 4.7-29.2 9 4.3 16.1 12.4 18.9 22.7z"/>
					<path id="&lt;Path&gt;" class="s15" d="m1177.7 83.8c-1 8.2-5.5 15.1-11.9 19.4-5-5.8-7.7-13.5-6.7-21.7 1-8.2 5.5-15.1 11.9-19.4 5.1 5.7 7.7 13.5 6.7 21.7z"/>
					<path id="&lt;Path&gt;" class="s15" d="m1132.1 119.2c-3.3 7.6-9.6 12.9-16.8 15.3-3.3-6.9-3.7-15.2-0.5-22.7 3.3-7.6 9.6-12.9 16.9-15.3 3.3 6.9 3.7 15.2 0.4 22.7z"/>
					<path id="&lt;Path&gt;" class="s15" d="m1013.9 142.2c-8.2 0.4-15.8-3-21-8.5 4.7-6 12-9.9 20.2-10.3 8.3-0.3 15.8 3 21.1 8.6-4.8 5.9-12 9.9-20.3 10.2z"/>
					<path id="&lt;Path&gt;" class="s15" d="m1085.5 85c-6.1 5.6-14 7.9-21.6 7.1-0.2-7.6 2.8-15.3 8.9-20.9 6.1-5.6 14-7.9 21.6-7.1 0.2 7.7-2.8 15.3-8.9 20.9z"/>
					<path id="&lt;Path&gt;" class="s15" d="m976.5 107.1c-6.7 1.5-13.3-0.1-18.4-3.9 3-5.6 8.4-9.8 15.1-11.3 6.6-1.5 13.3 0.1 18.4 3.9-3 5.6-8.4 9.8-15.1 11.3z"/>
					<path id="&lt;Path&gt;" class="s15" d="m914.1 99.8c-3.4 5.9-9.1 9.8-15.3 11-2.1-6-1.7-12.8 1.7-18.8 3.4-5.9 9.1-9.7 15.3-11 2.1 6 1.7 12.8-1.7 18.8z"/>
					<path id="&lt;Path&gt;" class="s15" d="m1003.5 64.6c-5 1.3-10 0.2-14-2.5 2.2-4.3 6.2-7.6 11.2-8.9 5-1.2 10-0.2 14 2.6-2.2 4.2-6.2 7.6-11.2 8.8z"/>
					<path id="&lt;Path&gt;" class="s15" d="m944.8 51.2c-5.8 3.6-12.7 4.2-18.7 2.3 1-6.2 4.7-12 10.5-15.6 5.8-3.6 12.6-4.3 18.7-2.4-1 6.2-4.7 12.1-10.5 15.7z"/>
					<path id="&lt;Path&gt;" class="s15" d="m868 57.5c-3.1 6.1-8.6 10.2-14.8 11.7-2.3-5.9-2.2-12.7 0.9-18.8 3.1-6.1 8.7-10.2 14.8-11.8 2.4 5.9 2.2 12.8-0.9 18.9z"/>
					<path id="&lt;Path&gt;" class="s15" d="m788.6 5.3c2.4 6.4 1.7 13.2-1.3 18.8-5.9-2.2-10.9-6.9-13.3-13.3-2.5-6.4-1.8-13.2 1.2-18.8 5.9 2.2 10.9 6.9 13.4 13.3z"/>
				</g>
				<path id="&lt;Path&gt;" class="s16" d="m1618.6 230c-7.1 14.7-23.4 24.5-39.7 23.9-16.3-0.6-31.7-11.6-37.7-26.8-12.1 10-34.9-0.5-38.8-15.7-15.1 6.9-37.2-5.3-39.5-21.8-18.1 7.4-35.9-2-45.7-18.9-9.8-16.9-10.8-37.3-11.2-56.9 33.9-8 56.6-35.3 89.6-46.5 46.5-15.8 102.5 3.4 129.6 44.4 27 41 14.7 74.1-6.6 118.3z"/>
				<path id="&lt;Path&gt;" class="s12" d="m1646.5 159.8c-37 10.6-79.9-6.1-100.1-38.8-7.9 15.8-28.6 27.5-45.9 23.8-12.1 9.1-36.3 4.7-42.1-9.3-5.4 11.9-25.4 15.9-33.1 5.4-7 11.2-24.8 16.7-35.6 9-0.6 7.3-12.7 9.7-19.8 11.3-7.2 1.7-15.2-1.8-19-8.1-11.1 16.3-32.9 22.7-48.7 10.9-19.5 8.4-43.7-0.5-53.1-19.5-17.6 9.2-36.3 4.2-41.8-14.8-18.3 9.1-39.4 5.2-47.1-13.8-19.9 7.5-43.3-0.9-53.6-19.5-16.5 3.9-31.8-2-38.2-17.8-21.2-0.6-41.5-20.3-43.3-41.5-12.2-0.4-21.6-11.2-28.3-21.4-6.7-10.2-9.6-22.5-11.2-34.6-2.8-21.7-1.6-43.9 3.5-65.2 57.3-27.6 125.6-13.4 189.2-12.3 51.4 0.8 102.3-7.9 152.9-16.6 50.6-8.7 101.5-17.5 152.8-16.6 51.3 0.8 103.6 11.8 146.6 39.9 43 28 75.6 74.7 78.5 126 2.9 51.2-13.3 109.4-62.6 123.5z"/>
				<g id="&lt;Group&gt;">
					<path id="&lt;Path&gt;" class="s17" d="m1601.3 100.3c4.9 12.1 4 25.3-1.5 36.2-11.5-4-21.3-12.7-26.3-24.9-5-12.2-4.1-25.3 1.4-36.2 11.5 3.9 21.4 12.7 26.4 24.9z"/>
					<path id="&lt;Path&gt;" class="s17" d="m1558.6 41.8c-0.1 10.2-4.5 19.2-11.6 25.4-7-6.2-11.5-15.3-11.5-25.4 0.1-10.1 4.5-19.2 11.6-25.3 7 6.2 11.5 15.2 11.5 25.3z"/>
					<path id="&lt;Path&gt;" class="s17" d="m1508.3 91.8c-2.8 9.6-9.6 17.1-18.2 21-5-7.9-6.7-17.9-3.8-27.6 2.8-9.7 9.7-17.1 18.2-21 5 7.9 6.7 17.9 3.8 27.6z"/>
					<path id="&lt;Path&gt;" class="s17" d="m1368 137.3c-9.9 1.7-19.6-1.3-26.8-7.2 4.9-8 13.1-13.9 23.1-15.5 10-1.7 19.6 1.3 26.9 7.2-5 8-13.2 13.9-23.2 15.5z"/>
					<path id="&lt;Path&gt;" class="s17" d="m1446.6 57.1c-6.5 7.7-15.8 11.7-25.2 11.8-1.4-9.3 1.1-19 7.7-26.7 6.5-7.7 15.8-11.7 25.2-11.9 1.3 9.3-1.1 19.1-7.7 26.8z"/>
					<path id="&lt;Path&gt;" class="s17" d="m1317.3 100.2c-7.9 2.8-16.2 1.8-23-2 2.9-7.2 8.7-13.2 16.7-16 7.9-2.8 16.2-1.9 23 2-2.9 7.2-8.7 13.2-16.7 16z"/>
					<path id="&lt;Path&gt;" class="s17" d="m1240.3 100.6c-3.2 7.7-9.5 13.2-16.9 15.7-3.5-7-4-15.4-0.7-23.1 3.2-7.8 9.6-13.3 16.9-15.7 3.5 6.9 4 15.3 0.7 23.1z"/>
					<path id="&lt;Path&gt;" class="s17" d="m1343.8 44.5c-5.9 2.3-12.2 1.7-17.3-1 2-5.5 6.3-10.2 12.2-12.5 5.9-2.2 12.2-1.7 17.4 1.1-2.1 5.5-6.4 10.1-12.3 12.4z"/>
					<path id="&lt;Path&gt;" class="s17" d="m1270.4 36.9c-6.5 5.2-14.7 7-22.4 5.7 0.3-7.8 3.9-15.4 10.4-20.7 6.6-5.2 14.8-7 22.5-5.7-0.4 7.8-3.9 15.4-10.5 20.7z"/>
					<path id="&lt;Path&gt;" class="s17" d="m1178 56c-2.9 7.9-9 13.7-16.3 16.5-3.7-6.9-4.6-15.2-1.7-23.1 2.9-7.9 9-13.7 16.3-16.5 3.7 6.9 4.6 15.2 1.7 23.1z"/>
					<path id="&lt;Path&gt;" class="s17" d="m1073.6 4.3c3.9 7.5 4.1 15.9 1.3 23.1-7.6-1.8-14.4-6.7-18.3-14.2-3.9-7.4-4.1-15.8-1.3-23.1 7.6 1.8 14.3 6.8 18.3 14.2z"/>
				</g>
			</g>
			<path id="&lt;Path&gt;" class="s14" d="m965.6 965.6c-12.4-39-33.4-75.1-61.1-105.2 14.5 8.9 27.7 14.1 42.1 23-26-44.1-59.5-86.6-91.7-126.4 52.1 31.9 99.6 75.4 132.7 126.7-16.6-64.2-42.3-128.2-74.1-186.4 52.2 48.8 88.3 114.4 101.6 184.5-12.4-92.3 7.5-187 49.4-270.2 7.3 88.3 4.2 177.5-9.2 265 20.2-67.4 61.6-126 111-176.1-27.9 63.8-49.9 130.2-65.6 198 32.2-44.3 75.2-81.7 123.5-107.6-36.5 40.6-67.2 86.6-90.8 135.9 22.3-23.3 47.9-40.6 75.8-56.8-29.5 35.5-53.5 75.6-70.8 118.4-58.8-0.6-116-7.3-172.8-22.8z"/>
			<path id="&lt;Path&gt;" class="s14" d="m303.2 933.3c-10.5-32.8-28.2-63.3-51.5-88.7 12.2 7.5 23.3 11.9 35.5 19.4-21.9-37.2-50.3-73.1-77.4-106.7 44 26.9 84 63.7 112 107-14.1-54.2-35.8-108.2-62.6-157.3 44.1 41.1 74.6 96.5 85.8 155.7-10.4-77.9 6.3-157.8 41.6-228.1 6.3 74.5 3.7 149.8-7.7 223.7 17.1-56.9 52-106.4 93.7-148.7-23.5 53.9-42.1 109.9-55.4 167.2 27.2-37.4 63.5-69 104.3-90.9-30.9 34.3-56.8 73.1-76.7 114.7 18.8-19.6 40.5-34.3 64-47.9-24.9 30-45.1 63.8-59.7 99.9-49.7-0.5-97.9-6.1-145.9-19.3z"/>
			<g id="&lt;Group&gt;">
				<g id="&lt;Group&gt;">
					<path id="&lt;Path&gt;" class="s8" d="m-26.5 380.8q6.7 15.5 14.3 30.5 7.6-4.7 15.4-9c18-9.8 36.7-18.4 55.7-26.1q-5.6-14-12.3-27.5c8.5 7 17.9 14 25.7 22.2q2.6-1 5.2-2-4.6-14.6-9.2-29.1c7.8 7.2 14.4 15.9 19.4 25.3 14.8-5.3 29.7-10.3 44.7-15.2-1.6-15.9-4.1-31.5-10.1-46.6 12.3 11.6 22.8 25.1 31 40q3.1-1 6.2-2c28.9-9.2 61.7-16.4 92-15.4-31.6-25.7-69.3-45.2-109.9-49.3-57.4-5.8-114 19.9-159.8 55-45.8 35.2-83.5 79.7-125.5 119.3 7.9 22.1 15.8 44.7 26.7 65.5 22.2-41.5 57.3-74.8 97.1-100.3q-3.3-17.7-6.6-35.3z"/>
					<path id="&lt;Path&gt;" class="s6" d="m2.4 324.9q10.4 18 22 35.2 8.7-6.8 17.6-13.3c20.6-14.8 42.1-28.2 64.2-40.5q-8.9-16.3-19.2-31.8c11.5 7.3 24.1 14.5 34.9 23.3q3-1.7 6-3.2-7.8-17.2-15.6-34.4c10.6 7.8 19.9 17.4 27.5 28.2 17.3-8.8 34.9-17.2 52.5-25.4-4.4-19.3-9.9-38-19.5-55.7 16.9 12.4 31.8 27.4 44.1 44.3q3.7-1.7 7.3-3.3c34-15.6 73.1-29.4 110.4-32.8-42.6-26.7-91.9-44.9-142.1-43.8-71.3 1.6-136.7 41.7-187.5 91.8-50.8 50-90.2 110.2-135.6 165.1 13 25.9 26.1 52.4 42.6 76.2 20.9-54.3 58.9-100.3 103.8-137.7q-6.7-21.1-13.4-42.2z"/>
				</g>
				<g id="&lt;Group&gt;">
					<path id="&lt;Path&gt;" class="s8" d="m-86.5 589.4q8.3 9.2 17.3 17.8 4.2-5.1 8.5-10c10.1-11.2 21-21.7 32.3-31.7q-7.2-8.4-15.2-16.1c7.6 2.8 15.9 5.4 23.3 9.2q1.5-1.4 3.1-2.7-6.7-9-13.4-18c7.1 3.2 13.8 7.6 19.6 13 8.9-7.4 18.1-14.5 27.3-21.4-5-10.7-10.5-20.9-18.3-30 11.4 5.1 21.9 11.9 31.2 20.2q2-1.4 3.9-2.8c17.8-13.4 38.8-26.4 60.1-33-28.1-10.2-59.1-14.6-88.2-7.6-41.3 9.9-74.4 41.5-97.7 77-23.3 35.5-38.7 75.5-58.2 113.2 10.8 13.5 21.7 27.2 34.4 39.1 5.3-34.3 21.7-65.9 43.1-93.3q-6.5-11.4-13.1-22.9z"/>
					<path id="&lt;Path&gt;" class="s6" d="m-80 543.6q11.6 10 23.8 19.1 4.4-6.9 9-13.5c10.7-15.3 22.4-29.8 34.8-43.7q-10.2-9.2-21.1-17.4c9.8 2.3 20.3 4.2 29.9 7.7q1.7-1.9 3.4-3.7-9.6-10-19.2-20.1c9.2 2.8 18.1 7.3 26 12.9 9.9-10.3 20-20.4 30.3-30.4-7.8-12.3-16.1-24-27.1-33.9 14.7 4.5 28.7 11.3 41.4 20.1q2.1-2.1 4.3-4.1c19.8-19.1 43.6-38.2 68.7-49.5-36.1-8.3-74.7-9-109.3 4-49.1 18.4-84.9 62.1-108 109.2-23.2 47-35.9 98.4-54.1 147.6 15.3 14.8 30.7 30 48 42.6 1.4-42.8 16.6-84 38.7-120.8q-9.8-13.1-19.5-26.1z"/>
				</g>
				<g id="&lt;Group&gt;">
					<path id="&lt;Path&gt;" class="s8" d="m1665.3 449.1q-6.6 15.5-14.3 30.5-7.6-4.7-15.4-9c-18-9.9-36.7-18.4-55.7-26.2q5.6-14 12.3-27.4c-8.5 7-17.9 14-25.7 22.1q-2.6-1-5.2-1.9 4.6-14.6 9.2-29.2c-7.8 7.3-14.3 16-19.4 25.4-14.8-5.4-29.7-10.4-44.7-15.2 1.6-16 4.1-31.5 10.1-46.7-12.3 11.6-22.8 25.2-31 40q-3.1-1-6.2-2c-28.9-9.1-61.7-16.3-92-15.3 31.6-25.7 69.4-45.3 109.9-49.4 57.4-5.8 114 20 159.8 55.1 45.8 35.2 83.5 79.6 125.5 119.3-7.9 22.1-15.7 44.6-26.7 65.4-22.2-41.5-57.3-74.7-97.1-100.3q3.3-17.6 6.6-35.2z"/>
					<path id="&lt;Path&gt;" class="s6" d="m1636.4 393.2q-10.4 18-22 35.2-8.7-6.9-17.6-13.3c-20.6-14.9-42.1-28.2-64.2-40.5q8.9-16.4 19.2-31.9c-11.5 7.4-24.1 14.5-34.9 23.3q-3-1.6-6-3.2 7.8-17.1 15.6-34.3c-10.5 7.7-19.9 17.4-27.5 28.2-17.3-8.9-34.9-17.2-52.5-25.5 4.4-19.3 9.9-38 19.5-55.6-16.9 12.4-31.8 27.4-44.1 44.3q-3.6-1.7-7.3-3.4c-34-15.6-73.1-29.4-110.4-32.7 42.6-26.8 91.9-45 142.1-43.8 71.3 1.6 136.7 41.7 187.5 91.7 50.8 50 90.2 110.2 135.6 165.2-13 25.9-26.1 52.3-42.6 76.1-20.9-54.2-58.9-100.2-103.8-137.6q6.7-21.1 13.4-42.2z"/>
				</g>
				<g id="&lt;Group&gt;">
					<path id="&lt;Path&gt;" class="s8" d="m1613 337.1q-10.7 9.4-22.1 18.2-4.2-6.4-8.6-12.6c-10.2-14.3-21.4-27.7-33.2-40.7q9.4-8.7 19.6-16.6c-9.1 2.3-19 4.2-28 7.6q-1.6-1.7-3.2-3.4 8.9-9.5 17.8-19.1c-8.7 2.8-16.9 7-24.3 12.4-9.4-9.5-19-18.9-28.8-28.2 7.2-11.6 14.8-22.7 25-32.1-13.7 4.4-26.8 10.9-38.6 19.3q-2-1.9-4-3.8c-18.9-17.7-41.5-35.3-65.1-45.7 33.7-8.2 70-9.3 102.7 2.5 46.3 16.7 80.3 57.4 102.6 101.3 22.3 43.9 34.9 92 52.6 138-14.2 14.1-28.6 28.6-44.7 40.5-1.8-40.1-16.5-78.6-37.7-112.9q9-12.4 18-24.7z"/>
					<path id="&lt;Path&gt;" class="s6" d="m1611.5 283.4q-14.7 10-30 19-4.1-8.5-8.6-16.7c-10.3-19-22-37.2-34.4-54.9q12.8-9.2 26.5-17.4c-11.6 1.5-23.9 2.3-35.4 5.1q-1.8-2.4-3.5-4.7 12.3-10.3 24.7-20.6c-11 2-21.8 6-31.6 11.5-10.1-13.2-20.5-26.1-31-38.9 10.5-13.3 21.6-25.6 35.5-35.7-17.5 3.3-34.5 9.4-50.2 17.9q-2.2-2.7-4.4-5.3c-20.4-24.5-45.4-49.6-72.8-65.9 42.6-4.9 87.2-0.7 125.4 18.7 54.2 27.5 89.8 82.5 110.4 139.7 20.6 57.2 28.8 118 43.4 177-19.5 15.2-39.3 30.7-60.8 42.9 3.9-49.4-8.4-98.8-29.1-144.1q12.9-13.8 25.9-27.6z"/>
				</g>
			</g>
		</g>
	</g>
</svg>