<svg version="1.2" xmlns="http://www.w3.org/2000/svg" viewBox="0 0 550 600" width="550" height="600">
	<title>4847443_2546810-ai</title>
	<style>
		.s0 { fill: #514943 } 
		.s1 { fill: #658f56 } 
		.s2 { fill: #4b83d1 } 
		.s3 { fill: #dd4f31 } 
		.s4 { fill: #de593c } 
		.s5 { fill: #c55037 } 
		.s6 { fill: #f7f0d7 } 
		.s7 { fill: #302f61 } 
		.s8 { fill: #272555 } 
		.s9 { fill: #ffffff } 
	</style>
	<g id="BACKGROUND">
		<g id="&lt;Group&gt;">
		</g>
	</g>
	<g id="OBJECTS">
		<g id="&lt;Group&gt;">
			<g id="&lt;Group&gt;">
				<g id="&lt;Group&gt;">
				</g>
			</g>
			<g id="&lt;Group&gt;">
				<g id="&lt;Group&gt;">
				</g>
			</g>
			<g id="&lt;Group&gt;">
				<g id="&lt;Group&gt;">
				</g>
			</g>
		</g>
		<g id="&lt;Group&gt;">
			<g id="&lt;Group&gt;">
				<g id="&lt;Group&gt;">
				</g>
			</g>
			<g id="&lt;Group&gt;">
				<g id="&lt;Group&gt;">
				</g>
			</g>
			<g id="&lt;Group&gt;">
				<path id="&lt;Path&gt;" class="s0" d="m441.5 423.2h25.9l20.2-59.1h-12.4z"/>
				<g id="&lt;Group&gt;">
					<path id="&lt;Path&gt;" class="s1" d="m452.9 373.9c-6.5-8-21.7-14.3-21.7-14.3 0 0 3.3 16.1 9.9 24.1 6.5 7.9 17.8 9.5 17.8 9.5 0 0 0.6-11.3-6-19.3z"/>
					<path id="&lt;Path&gt;" class="s1" d="m465.4 365.9c-0.7-7.7-7.3-18-7.3-18 0 0-4.8 11.3-4.2 19 0.7 7.7 7 13.5 7 13.5 0 0 5.2-6.8 4.5-14.5z"/>
				</g>
			</g>
		</g>
		<g id="&lt;Group&gt;">
			<g id="&lt;Group&gt;">
			</g>
			<g id="&lt;Group&gt;">
			</g>
			<g id="&lt;Group&gt;">
			</g>
			<g id="&lt;Group&gt;">
			</g>
			<g id="&lt;Group&gt;">
			</g>
		</g>
		<g id="&lt;Group&gt;">
			<g id="&lt;Group&gt;">
				<g id="&lt;Group&gt;">
					<g id="&lt;Group&gt;">
					</g>
					<g id="&lt;Group&gt;">
					</g>
					<g id="&lt;Group&gt;">
					</g>
				</g>
			</g>
			<g id="&lt;Group&gt;">
				<g id="&lt;Group&gt;">
				</g>
			</g>
			<g id="&lt;Group&gt;">
				<g id="&lt;Group&gt;">
				</g>
			</g>
			<g id="&lt;Group&gt;">
			</g>
		</g>
		<g id="&lt;Group&gt;">
			<g id="&lt;Group&gt;">
			</g>
			<g id="&lt;Group&gt;">
			</g>
			<g id="&lt;Group&gt;">
				<g id="&lt;Group&gt;">
				</g>
				<g id="&lt;Group&gt;">
				</g>
			</g>
			<g id="&lt;Group&gt;">
			</g>
			<g id="&lt;Group&gt;">
			</g>
			<g id="&lt;Group&gt;">
				<g id="&lt;Group&gt;">
				</g>
			</g>
		</g>
		<g id="&lt;Group&gt;">
			<g id="&lt;Group&gt;">
				<g id="&lt;Group&gt;">
					<path id="&lt;Path&gt;" class="s2" d="m166.3 177c2.4-0.2 159.1 24.4 158.6-15.6-0.6-40-159-9.4-159-9.4z"/>
					<path id="&lt;Path&gt;" class="s2" d="m169.9 176.3c2.3-0.9 159.2-23.8 146.8-61.9-12.4-38-154.5 38.2-154.5 38.2z"/>
					<path id="&lt;Path&gt;" class="s2" d="m173.2 174.6c1.8-1.5 144.9-70 121.8-102.7-23.2-32.6-136.3 82.4-136.3 82.4z"/>
					<path id="&lt;Path&gt;" class="s2" d="m175.8 172c1.3-1.9 117.6-109.8 85.8-134.2-31.8-24.2-105.7 119.1-105.7 119.1z"/>
					<path id="&lt;Path&gt;" class="s2" d="m177.5 168.8c0.7-2.3 79.7-139.8 42.1-153.6-37.5-13.8-65.6 145-65.6 145z"/>
					<path id="&lt;Path&gt;" class="s2" d="m178.2 165.2c0-2.4 34.6-157.2-5.4-159.2-39.9-2-19.6 158-19.6 158z"/>
					<path id="&lt;Path&gt;" class="s2" d="m177.7 161.6c-0.7-2.3-13.5-160.4-52.3-150.5-38.7 10 28.2 156.7 28.2 156.7z"/>
					<path id="&lt;Path&gt;" class="s2" d="m176.3 158.2c-1.4-1.9-60.6-149.1-94.7-128.1-34 21 73.4 141.2 73.4 141.2z"/>
				</g>
				<g id="&lt;Group&gt;">
					<path id="&lt;Path&gt;" class="s3" d="m164.7 178.4c2.2-0.2 147.3 22.6 146.7-14.5-0.5-37-147-8.6-147-8.6z"/>
					<path id="&lt;Path&gt;" class="s4" d="m168.1 177.8c2-0.8 147.3-22.1 135.8-57.3-11.5-35.2-143 35.3-143 35.3z"/>
					<path id="&lt;Path&gt;" class="s3" d="m171.1 176.2c1.7-1.4 134.1-64.8 112.7-95-21.4-30.2-126.1 76.2-126.1 76.2z"/>
					<path id="&lt;Path&gt;" class="s4" d="m173.5 173.8c1.2-1.8 108.9-101.7 79.4-124.2-29.4-22.5-97.8 110.2-97.8 110.2z"/>
					<path id="&lt;Path&gt;" class="s3" d="m175.1 170.8c0.6-2.1 73.8-129.4 39-142.1-34.8-12.8-60.7 134.2-60.7 134.2z"/>
					<path id="&lt;Path&gt;" class="s4" d="m175.7 167.5c0-2.2 32.1-145.5-5-147.3-36.9-1.9-18.1 146.2-18.1 146.2z"/>
					<path id="&lt;Path&gt;" class="s3" d="m175.3 164.1c-0.7-2.1-12.5-148.4-48.4-139.2-35.9 9.2 26 145 26 145z"/>
					<path id="&lt;Path&gt;" class="s4" d="m173.9 161c-1.2-1.8-56-138-87.5-118.6-31.6 19.5 67.9 130.8 67.9 130.8z"/>
				</g>
			</g>
			<g id="&lt;Group&gt;">
				<g id="&lt;Group&gt;">
					<path id="&lt;Path&gt;" class="s2" d="m277.4 362.5c3.5 2.6 220.3 194.1 220.3 194.1-24.6 0-48.7-6.4-69.9-18.6l-193-111.1z"/>
					<g id="&lt;Group&gt;">
						<path id="&lt;Path&gt;" class="s4" d="m467.8 530.2c-21.4-1.4-42.3-7.6-60.9-18.4l-165.3-95.1-6.8 10.2 193 111.1c21.2 12.2 45.3 18.6 69.9 18.6 0 0-11.8-10.4-29.9-26.4z"/>
					</g>
				</g>
				<g id="&lt;Group&gt;">
					<path id="&lt;Path&gt;" class="s2" d="m273.3 357.6c3.8 2 247.8 157.3 247.8 157.3-24.2 3.8-49 1.2-71.9-7.5l-208-79.5z"/>
					<g id="&lt;Group&gt;">
						<path id="&lt;Path&gt;" class="s4" d="m487.5 493.5c-21.4 1.9-42.9-1-63-8.7l-178.2-68.1-5.1 11.2 208 79.5c22.9 8.7 47.7 11.3 71.9 7.5 0 0-13.3-8.5-33.6-21.4z"/>
					</g>
				</g>
				<g id="&lt;Group&gt;">
					<path id="&lt;Path&gt;" class="s2" d="m268.4 353.3c4.1 1.4 269.4 116.7 269.4 116.7-23.4 7.6-48.3 8.9-72.3 3.8l-217.8-46z"/>
					<g id="&lt;Group&gt;">
						<path id="&lt;Path&gt;" class="s4" d="m501.2 454.1c-20.8 5.3-42.5 5.8-63.6 1.3l-186.6-39.4-3.3 11.8 217.8 46c24 5.1 48.9 3.8 72.3-3.8 0 0-14.5-6.3-36.6-15.9z"/>
					</g>
				</g>
			</g>
			<path id="&lt;Path&gt;" class="s4" d="m270 451.3c-89.4 0-161.8-72.5-161.8-161.9v-91.4c0-44.7 36.2-80.9 80.9-80.9 44.7 0 80.9 36.2 80.9 80.9z"/>
			<g id="&lt;Group&gt;">
				<path id="&lt;Path&gt;" class="s5" d="m109.1 290.3h-0.9c0.4 89 72.7 161 161.8 161v-16.3c-36.9-18-65.9-49.5-80.6-88.2-12.7-33.7-44.3-56.5-80.3-56.5z"/>
			</g>
			<path id="&lt;Path&gt;" class="s2" d="m183 222.4c0 0-2.6 227.2 189.8 302.9 0 0 25.2-284.6-189.8-302.9z"/>
			<g id="&lt;Group&gt;">
				<g id="&lt;Group&gt;">
					<g id="&lt;Group&gt;">
						<path id="&lt;Path&gt;" class="s6" d="m128.5 143.8c-50.7 0-91.7 41-91.7 91.6v0.3c0 3.7 3 6.7 6.7 6.7 2.2 0 4.3-1.2 5.6-3.1 1.6-2.6 3.6-5 6-7.1 2.5-2.2 5.4-2.1 8.3-1 16.7 6.5 34.1 11.2 52 11.2h13.1c0 0 37.1-63.2 0-98.6z"/>
					</g>
					<g id="&lt;Group&gt;">
						<path id="&lt;Path&gt;" class="s6" d="m110.8 209.5c-19.4 2.7-36.2 8.2-50 21q1.3 0.2 2.6 0.7c16.7 6.5 34.1 11.2 52 11.2h13.1c0 0 8.5-14.6 13.3-33.6-10.3-1.3-21.1-0.6-31 0.7z"/>
					</g>
				</g>
				<g id="&lt;Group&gt;">
					<g id="&lt;Group&gt;">
						<path id="&lt;Path&gt;" class="s7" d="m62.8 171.5c-16.1 16.5-26 39.1-26 63.9v0.3c0 3.7 3 6.7 6.7 6.7 2.2 0 4.3-1.2 5.6-3.1 1.6-2.6 3.6-5 6-7.1 2.5-2.2 5.4-2.1 8.3-1 7.9 3.1 16 5.8 24.3 7.7 7-24.7-1.4-56.9-24.9-67.4z"/>
					</g>
					<g id="&lt;Group&gt;">
						<path id="&lt;Path&gt;" class="s8" d="m89.7 214.1c-10.7 3.4-20.4 8.5-28.9 16.4q1.3 0.2 2.6 0.7c7.9 3.1 16 5.8 24.3 7.7 2.2-7.8 2.9-16.4 2-24.8z"/>
					</g>
				</g>
			</g>
			<g id="&lt;Group&gt;">
				<path id="&lt;Path&gt;" class="s8" d="m192.9 187.4c-7 0-12.7-5.7-12.7-12.7 0-7 5.7-12.7 12.7-12.7 7 0 12.7 5.7 12.7 12.7 0 7-5.7 12.7-12.7 12.7z"/>
			</g>
			<g id="&lt;Group&gt;">
				<path id="&lt;Path&gt;" class="s9" d="m187.7 175.6c-2.9 0-5.3-2.4-5.3-5.4 0-2.9 2.4-5.3 5.3-5.3 3 0 5.4 2.4 5.4 5.3 0 3-2.4 5.4-5.4 5.4z"/>
			</g>
			<path id="&lt;Path&gt;" class="s4" d="m331.9 316c-27.8-48.1-73.6-87.2-148.9-93.6 0 0-0.6 54.8 21.6 119.6 27.7 51.3 72.5 101.4 144.9 129.9 0 0 7-78.7-17.6-155.9z"/>
		</g>
		<g id="&lt;Group&gt;">
			<g id="&lt;Group&gt;">
				<g id="&lt;Group&gt;">
					<g id="&lt;Group&gt;">
					</g>
				</g>
				<g id="&lt;Group&gt;">
					<g id="&lt;Group&gt;">
					</g>
				</g>
				<g id="&lt;Group&gt;">
					<g id="&lt;Group&gt;">
					</g>
				</g>
				<g id="&lt;Group&gt;">
					<g id="&lt;Group&gt;">
					</g>
				</g>
			</g>
			<g id="&lt;Group&gt;">
			</g>
			<g id="&lt;Group&gt;">
			</g>
			<g id="&lt;Group&gt;">
			</g>
			<g id="&lt;Group&gt;">
			</g>
		</g>
		<g id="&lt;Group&gt;">
			<g id="&lt;Group&gt;">
			</g>
			<g id="&lt;Group&gt;">
				<g id="&lt;Group&gt;">
				</g>
				<g id="&lt;Group&gt;">
				</g>
			</g>
			<g id="&lt;Group&gt;">
			</g>
			<g id="&lt;Group&gt;">
			</g>
			<g id="&lt;Group&gt;">
			</g>
			<g id="&lt;Group&gt;">
			</g>
		</g>
	</g>
	<g id="DESIGNED BY FREEPIK">
		<g id="&lt;Group&gt;">
			<g id="&lt;Group&gt;">
				<g id="&lt;Group&gt;">
				</g>
			</g>
			<g id="&lt;Group&gt;">
			</g>
		</g>
	</g>
</svg>