<svg version="1.2" xmlns="http://www.w3.org/2000/svg" viewBox="0 0 500 500" width="500" height="500">
	<title>11701402_4783114-svg</title>
	<style>
		.s0 { fill: #231f33 } 
		.s1 { fill: #000000 } 
	</style>
	<g id="OBJECTS">
		<g id="Layer">
			<path id="Layer" fill-rule="evenodd" class="s0" d="m39.8 266.2c-0.1 0-0.3 0.1-0.3 0.2-0.1 0.1-0.1 0.4-0.1 0.8-0.3 0.5 0.3 1 0.6 1.6 0 0.1 0.3 0.1 0.3 0.1q0.7-0.7 1.4-1.4c0.1 0 0.1-0.2 0.1-0.3-0.5-0.7-1.1-1.3-2-1z"/>
			<path id="Layer" fill-rule="evenodd" class="s0" d="m37.8 268c-0.2-0.4-0.5-0.7-1.1-0.7-0.1 0.1-0.2 0.1-0.3 0.2-0.1 0 0 0.2 0.1 0.3 0.4 0.3 0.6 0.7 0.5 1.3 0 0.3 0 0.6 0 0.8 0 0.1 0.2 0.2 0.3 0.2 0.5 0.1 1.1-0.6 0.8-1-0.2-0.3-0.2-0.7-0.3-1.1z"/>
			<path id="Layer" fill-rule="evenodd" class="s0" d="m44.4 272.1c-0.1-0.1-0.2-0.4-0.5-0.2-0.1 0.1-0.4 0.4-0.3 0.4 0.3 0.4-0.2 0.8-0.2 1.2 0.1 0.1 0.1 0.1 0.2 0.2q0.2-0.1 0.4-0.3c0.8-0.4 0.8-0.7 0.4-1.3z"/>
			<path id="Layer" fill-rule="evenodd" class="s0" d="m35.7 261.9c-0.1 0-0.3 0.1-0.3 0.1 0 0.2 0 0.4 0 0.6q0 0 0 0c0 0.3 0 0.6 0 0.8 0.1 0.2 0.2 0.3 0.3 0.2 0.3-0.2 0.5-0.5 0.5-1 0-0.3-0.3-0.7-0.5-0.7z"/>
			<path id="Layer" fill-rule="evenodd" class="s0" d="m68.2 288.9c0 0 0-0.2 0-0.2-0.4-0.5-1.1-0.7-1.6-0.9-0.1 0.1-0.3 0.2-0.3 0.3 0 0.1 0.1 0.3 0.1 0.4q0.3 0 0.5 0.1 0.1 0.1 0.3 0.2 0.1 0 0-0.1 0.3 0.1 0.7 0.3c0.1 0 0.2-0.1 0.3-0.1z"/>
			<path id="Layer" fill-rule="evenodd" class="s0" d="m38.7 271c-0.2-0.1-0.5 0.1-0.5 0.4q-0.1 0.7 0.4 0.7c0.2 0 0.7-0.3 0.7-0.5 0.1-0.2-0.3-0.5-0.6-0.6z"/>
			<path id="Layer" fill-rule="evenodd" class="s0" d="m42.6 269.6c-0.1-0.1-0.1-0.1-0.2-0.2 0 0.1-0.1 0.1-0.1 0.2q0 0.7 0 1.5c0 0.1 0 0.1 0.1 0.2 0 0 0.1-0.1 0.2-0.1 0.5-0.4 0.5-0.5 0.2-1.1-0.1-0.2-0.2-0.4-0.2-0.5z"/>
			<path id="Layer" fill-rule="evenodd" class="s0" d="m40.2 264.8c0-0.1-0.1-0.2-0.1-0.2-0.3 0.1-0.7 0.6-0.6 0.9 0 0.1 0 0.1 0.1 0.2 0.3-0.1 0.6-0.6 0.6-0.9z"/>
			<path id="Layer" fill-rule="evenodd" class="s0" d="m40.3 273.2c-0.1 0.1-0.1 0.3 0.1 0.5 0.1-0.1 0.2-0.2 0.2-0.2q-0.1-0.2-0.2-0.5c0 0.1-0.1 0.1-0.1 0.2z"/>
			<path id="Layer" fill-rule="evenodd" class="s0" d="m72.3 298.2c0.1 0 0.2-0.1 0.3-0.2-0.1 0-0.2-0.1-0.3-0.1q0 0-0.1 0c-0.2-0.1-0.4-0.2-0.5-0.1q0.2 0.1 0.1 0.2 0.2 0.1 0.4 0.1 0 0.1 0.1 0.1z"/>
			<path id="Layer" fill-rule="evenodd" class="s0" d="m49.6 206.9c-0.1 0-0.1 0.2-0.1 0.3 0.1-0.1 0.2-0.1 0.2-0.2 0.1-0.1 0-0.2-0.1-0.1z"/>
			<path id="Layer" fill-rule="evenodd" class="s0" d="m49.5 207.2q0 0-0.1 0 0 0 0 0 0 0 0.1 0 0 0 0 0z"/>
			<path id="Layer" fill-rule="evenodd" class="s0" d="m49.2 207.5c0 0 0.1 0 0.2 0.1q0-0.2 0-0.4c-0.1 0-0.3 0-0.2 0.3z"/>
			<path id="Layer" fill-rule="evenodd" class="s0" d="m49.4 207.6q0 0 0 0 0 0 0.1 0 0 0 0 0-0.1 0-0.1 0z"/>
			<path id="Layer" fill-rule="evenodd" class="s0" d="m35.9 218.5c0 0 0 0.2 0 0.2q0.2 0 0.3 0.1c0-0.2 0-0.3-0.3-0.3z"/>
			<path id="Layer" fill-rule="evenodd" class="s0" d="m36.2 218.8q0 0 0 0 0 0 0 0 0 0 0 0 0 0 0 0z"/>
			<path id="Layer" fill-rule="evenodd" class="s0" d="m34.4 221.6q0.1-0.1 0.1-0.2-0.1-0.3-0.2 0c0 0 0.1 0.1 0.1 0.2z"/>
			<path id="Layer" fill-rule="evenodd" class="s0" d="m33.1 223.4c0 0 0 0.1-0.1 0.2q0.2 0 0.4 0c0-0.1-0.1-0.3-0.3-0.2z"/>
			<path id="Layer" fill-rule="evenodd" class="s0" d="m32.6 224q0 0 0 0 0 0 0 0.1 0 0 0-0.1 0 0 0 0z"/>
			<path id="Layer" fill-rule="evenodd" class="s0" d="m33 223.7q-0.3 0-0.4 0.3 0.2 0 0.4 0 0-0.2 0-0.3z"/>
			<path id="Layer" fill-rule="evenodd" class="s0" d="m32.6 224.1q-0.2 0-0.3 0.1c0 0 0 0.1 0 0.1 0.2 0 0.3-0.1 0.3-0.2z"/>
			<path id="Layer" fill-rule="evenodd" class="s0" d="m56.1 286.1c0 0 0.1-0.1 0.1-0.1 0 0-0.1-0.1-0.1-0.1q-0.1 0.1-0.1 0.1 0 0.1 0.1 0.1z"/>
			<path id="Layer" fill-rule="evenodd" class="s0" d="m62.3 288q0.1 0.2 0.3 0.1 0-0.1 0-0.2c-0.1 0-0.1 0-0.1 0-0.1 0-0.2 0.1-0.2 0.1z"/>
			<path id="Layer" fill-rule="evenodd" class="s0" d="m69.6 297.2c0 0.1 0 0.1 0.1 0.2q0.1-0.1 0.1-0.2 0 0-0.1-0.1c0 0-0.1 0.1-0.1 0.1z"/>
			<path id="Layer" fill-rule="evenodd" class="s0" d="m77 298c0 0 0-0.1-0.1-0.1q-0.2 0.1 0 0.2c0 0.1 0.1 0 0.1-0.1z"/>
			<path id="Layer" fill-rule="evenodd" class="s0" d="m141.7 196c0.2-0.3 0.1-0.8-0.3-1.3-0.4 0.2 0.3 0.9 0.3 1.3z"/>
			<path id="Layer" fill-rule="evenodd" class="s0" d="m96.2 179.4c-0.8-0.1 1-0.2 0-0.4 0 0.3-0.8 0.1-1.1 0.1-0.2 0.3 0.9 0.6 1.1 0.3z"/>
			<path id="Layer" fill-rule="evenodd" class="s0" d="m69.8 181.7c-0.5 0.2-0.6 0.5-0.4 0.7 0.6-0.1 0.6-0.4 0.4-0.7z"/>
			<path id="Layer" fill-rule="evenodd" class="s0" d="m104.3 180c-0.4 0.1-0.7 0.2-1.2 0.2 0-0.3-2.8-0.9-3.3-0.5 1.5 0.2 2.8 0.4 4.1 0.6q1.1 0.2 2.1 0.4 1.1 0.2 2.3 0.5c-0.4-0.5-1.1-0.6-1.9-0.7-0.8-0.2-1.6-0.2-2.1-0.5z"/>
			<path id="Layer" fill-rule="evenodd" class="s0" d="m99.2 178.9c-0.8-0.1-0.8 0.3-1.6 0.2 0.2 0.3-0.7 0.4-0.1 0.5 0.3-0.4 1.3-0.3 1.7-0.7z"/>
			<path id="Layer" fill-rule="evenodd" class="s0" d="m33.1 223c0.2-0.9 0.5-1.5 0.7-2-0.1 0-0.4 0.5-0.5 1.1-0.2 0.5-0.3 1-0.2 0.9z"/>
			<path id="Layer" fill-rule="evenodd" class="s0" d="m63.4 195.2c0.4-0.2 0.5 0 0.9-0.3 0-0.3-1.1 0.1-0.9 0.3z"/>
			<path id="Layer" fill-rule="evenodd" class="s0" d="m107.4 174.1l0.5 0.1c0.1-0.1-0.1-0.2-0.1-0.3-0.3-0.1-0.5-0.1-0.7 0 0.5 0.1 0.6 0.1 0.3 0.2z"/>
			<path id="Layer" fill-rule="evenodd" class="s0" d="m111.6 183.8l0.7 0.2c0.2-0.3-0.7-0.5-0.7-0.2z"/>
			<path id="Layer" fill-rule="evenodd" class="s0" d="m114.7 181c-0.1-0.1-0.9-0.5-1-0.3 0.4 0 0.7 0.5 1 0.3z"/>
			<path id="Layer" fill-rule="evenodd" class="s0" d="m115.3 184.8q-0.7-0.2-1-0.1c0.3 0 1 0.5 1 0.1z"/>
			<path id="Layer" fill-rule="evenodd" class="s0" d="m117.1 184.7c0.2-0.1-0.1-0.3-0.4-0.4-0.3-0.1-0.6-0.1-0.3 0.1 0.3-0.2 0.4 0.2 0.7 0.3z"/>
			<path id="Layer" fill-rule="evenodd" class="s0" d="m117.4 184.8c0.6 0.3 0.7 0.2 1.1 0.5 0.2-0.2-1.1-0.7-1.1-0.5z"/>
			<path id="Layer" fill-rule="evenodd" class="s0" d="m124.5 188.1c-0.3-0.2-0.4-0.2-0.5-0.6-0.1 0.1-0.3 0-0.4 0 0.1 0.2 0.6 0.7 0.9 0.6z"/>
			<path id="Layer" fill-rule="evenodd" class="s0" d="m128.8 182.3c-0.4-0.2-1.1-0.8-1.1-0.5 0.4 0.2 0.9 0.7 1 0.5z"/>
			<path id="Layer" fill-rule="evenodd" class="s0" d="m128.5 192.5q0.6 0.5 1.1 1c0.1-0.3-0.8-1-1.1-1z"/>
			<path id="Layer" fill-rule="evenodd" class="s0" d="m134.7 192.5c0.3 0.3 0.6 0.5 0.9 0.5-0.2-0.3-0.7-0.5-0.9-0.5z"/>
			<path id="Layer" fill-rule="evenodd" class="s0" d="m136.4 197.3c-0.3-0.3-0.8-0.6-0.6-0.8 0.2 0.1 0.6 0.7 0.7 0.6-0.5-1-1.7-1.2-2.6-1.9 0.4 0.7 1.9 1.9 2.5 2.1z"/>
			<path id="Layer" fill-rule="evenodd" class="s0" d="m147.4 201.9c0.3 0.4 0.6 0.2 0.6 0l-0.3-0.4c-0.2 0.1 0 0.4-0.3 0.4z"/>
			<path id="Layer" fill-rule="evenodd" class="s0" d="m150.2 209.3c-0.7-0.7-0.5-1.1-1.2-1.8 0 0.3 0.8 2 1.2 1.8z"/>
			<path id="Layer" fill-rule="evenodd" class="s0" d="m153.5 215.9q0.2-0.1 0.4 0c-0.5-0.8-0.6-1.6-1.1-2.2 0.1 0.3-0.5-0.1-0.6-0.6-0.1 0.1-0.3 0.1-0.2 0.3 0.6 1 1.3 1.1 1.5 2.5z"/>
			<path id="Layer" fill-rule="evenodd" class="s0" d="m154.2 215.4l0.3 0.7c0.4 0.2-0.1-1.1-0.3-0.7z"/>
			<path id="Layer" fill-rule="evenodd" class="s0" d="m154 217.4c0.1-0.1 0.3 0 0.3-0.3-0.5 0.2 0-0.9-0.5-0.8 0.1 0.4 0.1 0.5 0.2 1.1z"/>
			<path id="Layer" fill-rule="evenodd" class="s0" d="m149 278.2c-0.3 0.2-0.2 0.4-0.6 0.9 0.1 0.3 0.8 0 0.7-0.4q-0.2 0.2-0.4 0.3c-0.1-0.1 0.4-0.6 0.3-0.8z"/>
			<path id="Layer" fill-rule="evenodd" class="s0" d="m123.9 300.8c0.6-0.4 1.2-0.7 1.2-0.9-0.5 0.4-1.3 0.6-1.6 0.9 0.2-0.1 0.4-0.2 0.4 0z"/>
			<path id="Layer" fill-rule="evenodd" class="s0" d="m108.5 306.6c0.4-0.1 0.7-0.2 0.8-0.4-0.4 0.1-1 0.1-0.8 0.4z"/>
			<path id="Layer" fill-rule="evenodd" class="s0" d="m94 309.1c-1.3 0.2-1.9 0.1-2.9 0.2 0.8 0.1 2 0.3 2.7 0-0.3-0.1 0.1-0.1 0.2-0.2z"/>
			<path id="Layer" fill-rule="evenodd" class="s0" d="m92.3 308.5c0.3-0.1 1-0.2 1.3-0.5-0.8 0.1-1.2 0.1-1.3 0.5z"/>
			<path id="Layer" fill-rule="evenodd" class="s0" d="m91 308.6c0.3-0.2 0.6 0.3 1.1 0q0-0.3-0.3-0.4c-0.5 0.1-0.9 0.2-1.5 0.2 0.1 0.3 0 0.2 0.2 0.5-0.3 0-0.5 0.1-0.2 0.2 0.2-0.3 1-0.2 1.1-0.4-0.1 0-0.4 0-0.4-0.1z"/>
			<path id="Layer" fill-rule="evenodd" class="s0" d="m88.3 309.4c0.8 0.5 0 0.1 0.6 0 0.4 0 1 0.2 1.2-0.1-0.8 0.1-1.1-0.1-1.8 0.1z"/>
			<path id="Layer" fill-rule="evenodd" class="s0" d="m83.1 308.9c0.5 0.1 2 0.2 1.8 0.1-0.7-0.1-1.4-0.2-1.8-0.1z"/>
			<path id="Layer" fill-rule="evenodd" class="s0" d="m80.8 307.8c0.5 0.1 0.6-0.1 0.9 0.1 0.2-0.3-1-0.5-0.9-0.1z"/>
			<path id="Layer" fill-rule="evenodd" class="s0" d="m79.3 306.2c0.5 0 0.6 0.2 0.9 0.1-0.1-0.1-1-0.4-0.9-0.1z"/>
			<path id="Layer" fill-rule="evenodd" class="s0" d="m77.4 296.6c0.4 0.2 0.8 0.5 1.2 0.4l0.1-0.3c-0.6-0.1-0.9 0-1.3-0.1z"/>
			<path id="Layer" fill-rule="evenodd" class="s0" d="m70.8 298c0.6 0.1 0.8 0.3 1.1 0.3q-0.2-0.1-0.1-0.2c-0.5-0.2-0.9-0.4-1-0.1z"/>
			<path id="Layer" fill-rule="evenodd" class="s0" d="m67.6 299.5c0.2 0.1 0.2 0.2 0.3 0.3 0.7 0.1 0.9 0.2 1.4 0.2-0.6-0.3-0.7-0.2-1.1-0.5 0.1 0.4-0.5-0.2-0.6 0z"/>
			<path id="Layer" fill-rule="evenodd" class="s0" d="m65.4 288.9c0.4 0.2 0.6 0.4 0.9 0.6 0.2-0.6 0.9 0.7 1.4 0.2-0.4-0.1-1-0.2-0.8-0.5 0.5-0.1 1.1 0.8 1.3 0.3-0.8-0.3-1.3-0.5-1.9-1 0.4 0.6-0.4 0.1-0.2 0.6-0.2-0.1-0.7-0.6-0.7-0.2z"/>
			<path id="Layer" fill-rule="evenodd" class="s0" d="m50.8 288.1c-0.4 0.3 0.1 0.6 0.4 0.7-0.4-0.3-0.1-0.4-0.4-0.7z"/>
			<path id="Layer" fill-rule="evenodd" class="s0" d="m45.5 285.9c0.5 0.1-0.5-1.1-0.8-1.2 0 0.4-0.2 0.7 0 1.2 0.2-0.1 0.4-0.3 0.7-0.1 0 0.2 1 1.4 1.1 1.2-0.2-0.5-0.6-0.7-1-1.1z"/>
			<path id="Layer" fill-rule="evenodd" class="s0" d="m69.8 292.4q0 0 0 0 0 0 0 0z"/>
			<path id="Layer" fill-rule="evenodd" class="s0" d="m99.6 304.7v0.1q0.4-0.1 0.8-0.2-0.4 0.1-0.8 0.1z"/>
			<path id="Layer" fill-rule="evenodd" class="s1" d="m492.8 277.7l-0.9-0.1c0.5 0.4 1 4.7-0.1 3.1 0.8 2.8-1 8.2-1.4 11.2q0-1.5 0-3.2 0-1.7 0-3.5c0.1-2.5 0.2-5.1 0.5-7.7 0.5-5.3 1.4-10.7 2.3-14.8-1.1 1.7-1.1-6 0-4.4-1.4-6.6-0.4-11.9-1.2-19.1 0.5 0.7 0.8 0.6 1-0.6-1.2-2-1.4-5.3-0.9-8 0.1-1.7-0.7-1.2-0.8-2.4-0.1 1.6-0.6 4.4-1.2 6q0.1 1.9 0.3 3.8c0.2 1.7 0.1 2.4 0.6 4.3-0.2 0-0.2 0-0.3-0.1q0.4 5.7 0.8 11.4c-0.4-0.2-0.8-0.2-1.2-0.2 0.3 3.2 0.4 6.6 0.2 10.1-0.5 4.5-1.2 9-1.7 13.1-0.1 1.5-0.6 2.9-0.6 2.4 0.1 4-1 11-3.3 11.3 1.7 1.4-1.4 3.8-1.1 7.3-1.8-1.4-3.2 5.7-2.7 8.2 1.4-1.2 2.3-4.8 2.6-7.6 1.2 4.1-3.4 11.7-1.6 14.9-1.6 5.9-4.7 8.8-5.4 14.6-0.6-0.8-1.1-1.4-2-0.1-1 2.8 0.7 0.9 1.1 2.4-2.6 5.7-3.3 13.4-8.1 20.2-0.6 2 0.6 0.3 0.6 1.6-1.3 3.3-2.4 5.3-3.3 6.9-0.9 1.6-1.7 2.8-2.2 4.4-0.9 0-1.9 1-3 3.3-0.3-0.3 0.3-1.1 0.6-1.8-0.5-0.7-1.1 0.9-1.7 1.2-0.2 0.7 0.9 0.1-0.8 2.4-0.2-0.4 0.8-1.8-0.4-1.6 0.9-2.7 2.9-4 1.4-4.9 1.8-0.7 2.3-2.2 2.7-4 0.3-1.8 0.5-4 2.2-5.9-2.5-0.5-1.7 5.6-3.9 5.6-0.9 2-0.4 3-1.9 4.5-0.5-0.3 0.9-1.9 0.7-2.4-1.2 0.5-2.3 3.6-2.8 4.8 0.3 0.1 0.6-0.6 0.9-0.9-0.2 0.8-2.3 4.8-2.2 3-0.3 1.1-0.9 2.3-0.7 3.1-0.9 1.5-1.5 1.5-1.5 0.6-0.6 1.2 0 1.6 0.8 0.4-0.2 1.9-1.7 2-3.4 4.4 3.4-2.4-2.3 2.6-2.7 4.1 0.4-0.1 0.8-0.2 1.2 0.1-0.8 0.9-1.3-0.3-2.2 1.4-0.2 2.7-5.7 7.7-7.5 12.9l-0.7-0.6c-1.3 1.4-1.1 2-2 3.1q0.9 0 1.9-0.9c0.1 0.6-1.6 1.8-2 3.2-0.3-0.6 0.6-1.8-0.5-2-1.3 2.1-2.2 3.2-3.8 4.1-1 1.2 0.9-0.3 0.9 0.8-2.1 1.2-4.7 2.7-3.2 4.5-2.7 2-1.5 6.1-6.6 10.7 0.7-1.9 0.1-0.5-1.1-0.2-0.4 1-0.4 1.8-0.9 2.7-1.8 1-1.7 0.7-3.4 2.8-0.6-0.6 0.3-1.2-0.9-0.9-0.5 1.9-1.4 2.3-2.5 4.5-0.3-0.8-1.5-0.9-2.7 1.7-1-0.4-3.1 2.3-3.9 1.3-1.3 1.1 0.5 1.3-1.2 2.4-1-0.7-1.2-0.4-0.8-1.8-1.1 1.1-2.2 2-3 2.2 0.5 1 1.9-0.7 2.2 0.6-2.5 2.5-9.4 6.9-9.9 5.6-0.6 0.6 0.1 0.9 0.3 1.3-1.8 1.5-2.2 0.3-3.2 0.1 2.2-1.3 0.9-1.9 3.1-3.2-4 1.1-4.7 3.4-8.3 5.5 1 0.6 2.3 0.4 4.4-1.3-0.4 0.9-1.8 2-3 3.1-0.3-0.5-1-0.1-1.3-0.7-2.2 1.3-1.5 2-3.1 3.1-0.4-0.4 0.2-1-0.2-1.4-1.7 3.8-4.8 5.4-7.9 7.1-3.1 1.6-6.4 3.1-9.1 6.4 1.5-1.8 0.2-1.9 2-3.8-0.4-0.3-1.2 0.3-1.1 0.6-1.1-2.7-6.3 2.4-9.5 4.4 0.2-1.3 2.6-2.6 4-4-0.6 0-1.8 0.4-2.6 0.9-0.9 0.5-1.4 1.1-0.8 1.7-2 0.5-2.4 1.1-4.4 2.2-1.7 0.4 2.9-1.6 2.3-2.2-2-0.4-7.4 3-7.9 3.3-1.4 0.7-2.7 1.4-2.2 1-2.7 2-4.7 1.3-6.4 2.1-0.7 0.3-0.9 1.6-2.4 2.1-4.1 1.4-12.8 4.1-18.5 8-0.5 0-0.6-0.6-1.4-0.4 0.5-1.3 1.6 0.1 2.9-0.8-1.1-1.4-5.1 0.5-7.3 1.2 0.5 0.2 1.5-0.1 1.5 0.6-2.9 0.5-8.2-0.2-9.5 2.3-1.2 0.4-1.2-0.2-1.4-0.6-2.6 0.8-2.7 0.7-4.1 1.4 0 0.5 0.6 0.4 1.4 0.3-2.1 2-4.4 0.6-7.5 2.6 0-1.4-2.7-0.2-3.4-0.9-3.6 1.3-9 2.6-14.6 3.6-2.8 0.5-5.7 0.9-8.5 1.2-2.8 0.2-5.5 0.2-8 0.2-4.3 2.2-9.1 0.3-13.8 1.7-1.3-0.3-3.1-0.3-3.1-1.4-1.3 0.6-1.8 0.7-3.6 0.3-1.6 0 0.8 0.5 0 1.2-4.9-0.7-6.7 1.8-11 1.8 0.7-2 3.8-0.8 5.5-2-2.2-0.5-5.4-1.4-7.9-0.9 0.4-0.3 0.7-0.5 0.7-0.9-2.4 1.1-5.2 0.5-8.5-0.2-0.9 0.1 0.2 0.5-0.1 1-4.4-0.8-8.8-1.5-13.4-2-4.6-0.6-9.3-1.1-14.2-2.7-0.9-0.1-0.7 0.7-0.9 1.1-3.5-0.9-4-1-6.5-1.9 2.7 2-3.3-0.8-4-1.6-1.1-0.2-0.6 1-1.5 0.9-2.1-0.7 1-1.3-1.3-2.3-1.8 1-3.9-0.3-7.4-0.6-1.5-0.7 2.4 0.2 3.1 0.2 0.8-1.4-3-1.5-5-2.4-1.3-0.5-0.6 1-1 1.3-2.2-0.9-1.4-2.3-4.9-3-1.7-0.3 0.6 1.1-0.9 1-1.5-2.1-7-3.2-9.9-5.2 0.2-0.4 1.2 0.1 1.8 0.3-0.1-1.1-1.9-0.5-2.8-1.1 0.1 0.4 0.3 0.8 0.9 1.1-1.2-0.5-3.9-1.5-6-3.1-1.2-1.3 2.1-0.2 0.7-1.7-0.3 0.3-1 1.5-3.1-0.4 0.9-0.4 2.6 0.3 2.5-1.3-0.7-0.3-1-0.5-1-0.8-2.4-1.1 0.1 1.7-2.1 0.4 1.7-1.4-2.1-2.5-3.6-3.8 0.3-0.6 2.3 1 3.4 1.2 0.4-0.8-1.3-1.6-2.9-2.4-1.4-1.3 3.1 1.5 3.5 1-2.9-1.9-10.9-5.8-13.6-4.7-1.2-0.7-2.6-2.1-3.3-1.4-2.5-3.6-8.9-5.1-10.5-6.9 0.8-0.1 2.2 0.7 3 0.7 0.1-0.7-0.7-1.4-0.2-2-3.4-1.9-6.8-4.3-10-6.8-3.2-2.6-6.3-5-9.5-6.6-3.1-4.2-5.3-4.5-9.3-9.1 2.9 2.5 7 5.5 11 9 4.2 3.3 8.4 7.1 12.5 9.6 2 1.3 6.4 2.2 5.6 4.5 2 1.1 4.4 2.8 5.4 2.4 1.2 0.9 0.5 1.7 2.6 2.6 0.5 0.2 0.7 0.1 1.2 0.4 1 0.5-0.3-1.6 1.2-1.2 1.1 0.5 0.8 3 1.8 1.7 2.8 2.3 6.1 4.2 10 6.2 3.8 1.8 8.1 3.9 13.2 5.6 1.3 2.3 7.2 3.8 9.8 4.5 0.3-0.8-3.8-0.9-2.5-1.9 1.8 0.8 3.1 1 4.5 1.3-2.4 1.5 5.8 3.4 7.6 3.8 0.1-0.9-2.3-1.2-3.8-1.8 6.3-0.5 13.2 4.5 20.6 5.3-0.3 0.7 1.6 0.8 1.5 1.4 2.9-0.1 5.7 0.3 8.4 0.9 2.7 0.6 5.4 1.3 8.1 1.2 4.3 1.2 7.4 1.8 10.6 2.2 3.1 0.1 6.4-0.1 11.2-0.2-0.5-0.3-0.7-0.8-0.6-1.3-1.3 1.3-2.2-0.4-3.5-0.8-0.5 0.1-0.9 0.3-1.8 0.2 0.9 0.7 3.3 0.8 3.5 1.8-1.8-0.2-2.1-1.1-4.7-0.9-0.5-1.3 1-1.7-2.2-1.7 1.3-0.2 1.6-1 3.5-0.8 0.1-1-3.2-1.3-5.7-1.5-2.5-0.2-4.3-0.1-1.2 0.4-1.6 0.7-6.9-1.5-5.9 0.2-4.1-0.1-4.8-1.9-7.9-2.2-2.5-0.2-3.7 1.1-6.1 1 0.1 0 0-0.6 0.1-0.6-1.5 0.1-5.1 0.9-5.1-1.3 1.3 1 4.2 1.2 4.2-0.1-3.3 0.7-11.5-3.6-17.7-3.9-0.7-0.2-0.4-0.7-0.3-1.1-1.8-0.2-3.6-0.6-5.4-1.1-1.8-0.6-3.5-1.3-5.2-2.1-3.4-1.4-6.6-2.8-9.4-3.3l0.3-0.9c-2.1 0.5-3.3-0.4-5.5-1.7 2.6 0.6 1.3-0.7 4.7 0.7-3-1.5-6.6-2.1-8.2-4.5-0.2 0.4-0.4 0.8 0.2 1.1-0.9 0.1-3.5-2.1-4.4-3-0.6 0-4-1.2-2.6 0.1-3.7-1.8-7.9-3.7-12-5.7 0.6-1.1 2.7 0.2 2.1-1.5 3.9 2.2 6.7 4.8 10.6 4.4 0.6 0.3 0.2 0.7 0.1 1.1 0.6 0.2 0.6-0.4 1.3-0.1-1-1.2-6-4.8-7.8-3.7-1.1-1-3.2-2-4.2-3.1 0.9-1.2 1.3-2 4.7-0.5-0.3 0.5-1.8-0.6-1.9 0.1-0.8 0.6 0.7 1.1 0.4 1.6 1.2 0.4 5 2 3.6 0.4 1.7 0.1 0.8 1.1 1.6 2.1 1.2-0.3 1.7-0.4 2.7 0.9 0.8 0.1 1.3-0.3 2-0.4 1.8 1 3.9 2 6.3 3.1 2.5 1.1 5.3 1.9 8.3 2.9-0.1 0.3-0.6 0.1-0.7 0.5 2.4 0.1 3.7 0.6 7.7 2 0.2-0.4 0.3-0.8-0.3-1.1 1.7 0.6 4.1 1.3 6.7 1.9 2.5 0.6 5.2 0.8 7.1 1-1.1 1.6 3.9 0.9 5 3 1-0.5 3.3 0.2 3.7-0.8 2.3 0.7-1.2 0.4 0.2 1.7 2.2 0.4 4.9-0.7 6.8 0.3 0.1 0.1 0.1 1 0.4 1.1 1.4 0.1 2.3-0.6 4-0.4-0.2 0-0.6 0.6-0.7 0.6 0.8 0 2.5-0.3 3.5-0.2 1.5 0.3 3 1.8 4.8 2 1.6 0.2 3-1 4.6-0.9 2.9 0 5.3 2.4 7.7 1.2 1.7 0.1 1.9 1 3.3 1.2 5.5-0.6 10.5-0.3 16.7-1 0.6-0.7 3.1-2.6 0.9-2.8 3.4 0.1 9.3-1.2 5.6-2.4-1.1-0.4-2.8 0.4-2.2 0.4-3.8-0.3-8.9-1.1-13 0.4-12.4-1.1-24.1-1.8-35.1-5.3 1-3-8-4.3-11.4-4-9-2.7-18.1-5.3-27.9-8.8-0.5-0.6 0-0.5 0.3-0.9-1.1-0.4-1.7-0.4-1.8 0.3-1.4-1.8-8.2-3.5-6.7-5.1-1.2-0.2-1.7 0.7-3.8-0.8 0.7-0.4 0.6-0.6 0.6-0.9-0.4-0.2-0.8-0.3-1.3-0.5 0.6-0.4 1.5-0.7 2.6-0.9-1.6-1.2-3.2-2.5-5.1-3.4-0.3 0.3-3.2 0.4-1.2 1.2-1.6 0.3-1.6-1.9-1.7-2.6-3.5-2.1-5.3-5.2-8.7-5.1-0.5-2.3-4.5-4.2-3.4-5.7-1.2-0.7 0.4 0.8-0.6 1-3.6-1.9 0.8-1-1-2.4 4.7 1.6 5 6.4 9.4 6.7-0.7 0.1-0.4 0.4-0.4 0.9 2.1 0 4.2 4.6 5.6 2.9 2.3 2.3 5.8 5 10.2 6.3 1.7 0.1 3.4 0.8 4.2 2.6 4.2 0 8.2 1.1 12.5 2.5 3.3 1 6.8 2.2 10.5 3 0 0-0.1 0-0.2 0-1.1-0.6 1.4-0.2 1.8-0.4 0.3 0.4 0.9 0.7 1.5 1q0.1 0 0.2 0.1 0 0-0.1 0c1.1 0.5 2.3 0.9 2.5 1.6-0.8-0.3-1.8-0.7-2.6-1.1 0 1.3 3.9 2.2 5.2 1.9 0.1-1.6-3.3 0.4-2-1.6q2.8 0.5 5.4 1.1c-0.1-0.2-0.4-0.3-0.5-0.6 2.9 1.5 4.9 0.8 7.7 1.3 0.1-0.2 0.2-0.3 0.3-0.4q-0.1-0.1-0.1-0.1c-3-1.1-5.7-2.7-8-5-0.9-1-2.5-1.5-3.7-2.3-0.9-0.5-1.2 0.4-1.8 0.7-0.7 0.2-1.4 0.4-2-0.3-0.8-0.7-1.3-1.5-1.8-2.4-2.3-0.2-4.4-1.8-7.6-1.5 0.1 1.3 1.5 2.3 3.9 3 0.1 0.6-0.1 1.4 0.5 1.9-0.3 0.9-1.2-0.7-1.5-0.5 0.2-0.8-1.6-2.3-3.3-3.2-0.5-0.1-0.5 0.5-1.1 0.2 0.4 1.5 1.5 1.2 3.6 2.3-1 1.2-2.1-1.7-3.7-0.6 0 1.9 3.5 2.5 5 3.4-3.6-0.1-9.4-4.1-13.7-5.2-1.4-1.3-3.8-2.4-5.2-3.6 1.2 0.1 1.4 1.5 1.8 0.8-0.6-0.3-0.2-0.4 0.2-0.6-0.6-0.4-0.7-0.8-1.7-1.1l-0.4 0.8c-1.1-1-1.6-2.1-0.2-3.5 2.8 0.5 4.2-0.6 8.2 1.5-1.4-3.4-7.8-2.3-9.5-3.6 0-1.2 2.3 1 2-0.8 1.2 1 2.5 1.5 3.5 0.9-0.8-0.5-3.4-2.3-4.1-0.8-1.8-1.7-3.8-2.9-5.7-3.4 0.5-0.7 1.9 0 2.5-0.5-0.1-0.6-0.7-1-1.5-1.5 2 0.7 2.6-0.9 4.2-0.8-0.7-0.7-1.3-1.3-1.1-1.9-1-0.4-1.7-1.2-2-2.1-0.6-2-1.6-2.2-3.2-2.2-1.6 0-3 0.1-4.5-0.6 0.1 0.2 0.2 0.5 0.1 0.8-0.1 1.1-1.6-0.5-1.9 0.3-1-0.4-1.8-1.2-2.6-2-0.9 0.1-1.8 0.2-2.7 0-0.8-0.1-1.4 0.4-2.1 0.9q1 0.7 2.1 1.4c0-0.1 0.1-0.3 0.2-0.4q1.6-1 3.2 0c0.1 0.1 0.3 0.4 0.2 0.5-0.1 0.2-0.3 0.4-0.5 0.5q-1.1 0-2.3 0 1.9 1.2 3.9 2.4c-2.1-0.3-5.5-2.8-8.3-3.8q-0.2 0-0.5-0.2c-0.6-0.1-1.1-0.2-1.5-0.2-1.2-0.7-0.7-0.6-0.2-0.8-1-0.3-2-0.2-3-0.3-0.7-0.1-1.6-0.4-1.9-0.8-0.4-0.6-0.3-1.4-0.3-2.2-0.6-0.3-1.3-0.6-1.8-1-0.7-0.6-1.4-0.4-2.1-0.1-0.8 0.5-0.6 1.3-0.3 1.9 0.1 0.5 0.5 0.9 0.8 1.3 0 0.1-0.1 0.5-0.1 0.5-0.4 0.1-0.7 0.3-1 0.4 0.4 0.4 1.1 0.8 1.8 1.3 1.9 1.2 4.4 2.3 4.9 4.1 2.8 0.4 5.9 2.9 9.9 4.5-0.9 0.1-1.6 0.6-3.3-0.5 2.5-0.4-2.8-1.1-3.8-2.6-0.4-0.2-1.5 0.3-1.3 0.6-0.9-0.8-2.9-2.1-5-3.6-1.9-1.4-3.7-3.2-4.7-4.7q-0.3-0.2-0.5-0.4c-1.9 0.7-2.5-2.4-4.1-1.9-0.1 1.2 0 2.4 0.9 3.1 1.3 1 1.8 4.2 4.5 1.9 0 0 0.4 0.3 0.4 0.5 0.2 0.7 0 1.3-0.3 2.1-0.9 1.9-1.5 4-2.3 6q1.2 1.9 2.3 3.7c0.3 0.2 0.6 0.4 1.1 0.6q-0.4 0-0.6 0.1 0.8 1.2 1.6 2.3c0.3 0.5 1.2 1 1.8 0.9 2.8-0.2 3.9 2 5.3 3.6 1 1.2 0.4 2.9 0.3 4.3 0 0.7-0.5 0.9-0.9 0.6-1.6-1.1-3.3-2.1-4.7-3.3-0.2-0.2-0.3-0.3-0.4-0.4-2.5-0.3-5.2-0.5-7.8-1.4-1.8-1.4-4.4-3-5.5-1.9-1.1-0.9-0.3-1.6-1.8-2.5-1.8-0.5-0.8 1.5-3.9-1.3-0.8-0.2-1.3 0-1.7 0.4 0.5 2.1 6.4 4 4.4 4.8 1 0.9 1-0.1 1.8 0.4 0.6-0.5-2.2-1.3-0.9-1.8 1.2 0.1 2.3 1.5 1.4 2.2 2.5 1.4 3.7 0.3 6.7 2.2-0.8 0.2-1.9-0.3-3.3-1.2-0.9 0.5 0.2 1.1-0.3 1.6-2.8-1.6-4.5-1.9-6.5-2.7 2.2-0.7-9-8-8.1-10.6-0.5-0.1-1.2-0.5-2-1.1-0.2-1.4-1.3-2.7-3.1-4.4-0.7-3.6-5-8.1-5-10.7 0.9 1.4 3.9 3 3.2 2.3 1.9 1.4 4 3.4 6.2 5.5 2.3 2 4.7 4.2 7.1 6.3 3 2.6 6.1 5 9 6.5q-0.1-0.3-0.1-0.6c-0.5-0.3-0.9-0.7-1.4-1.1q0.7 0.2 1.3 0.3c-0.1-0.3-0.1-0.6-0.1-1 0.1-0.7 0-1.5 0.1-2.2 0.5-2.7-0.2-4.9-2.5-6.5-2.4-1.7-2.5-4.1-1.6-6.6q0.7-2.4 1.8-4.7c-0.8-0.9-1.5-1.8-2.4-2.3-0.5-0.5 2.1-1.6-0.4-1.9 0.1-1.5 2.6 1.1 2.1 2.3q0.6 0.5 1.2 0.9c0.2-0.7 0.4-1.4 0-1.8-0.4-0.3-0.7-0.6-0.8-1q-0.3-0.2-0.5-0.5 0.1 0.1 0.3 0.3c-0.2-0.7 0-1.4 0.3-2.1-0.9 0.3-2 0-3.1-0.6-2.9 0-4.6 1.1-5.3 4-0.2 0.6-0.9 1.1-1.5 1.6-0.1 0.2-0.4 0.4-0.5 0.3-0.2 0-0.4-0.3-0.5-0.6-0.3-1.5-0.3-2.9 0.9-4.1-0.5-1.3-1.2-2.6 1.2-2.7 0.7-0.1 0.6-0.6 0-1-0.5-0.6-2.4 0.2-1.7-1.4 0.4-1.1 0.8-1.9-0.8-1.8-1.7 0-2.7-0.5-3.1-2.3-0.2-0.9 0.4-1.1-0.4-0.6-0.2 0.1-0.4 0.4-0.5 0.6-0.3 0.6-0.5 1.3-0.8 2-0.7 1.8-2 3.6-2 5.4 0.1 1.4 1.7 2.9 2.6 4.3 1.3 1.9 3.2 3.4 4.5 5.4 0.2 0.1 0.4 0.3 0.7 0.6q-0.2 0-0.4-0.1c0.2 0.4 0.4 0.7 0.6 1.2 0.2 0.5 1 1.1 1.7 1.3 1 0.3 1.9 0.7 1.7 1.9q0 0.2-0.1 0.3c1.1 1.4 2.1 3 3 3.9-1.3-0.9-2.6-1.9-3.7-2.8q-0.2 0.2-0.3 0.5c-0.2 0.4-0.2 0.9-0.4 1.4-0.3 0.6-0.8 0.7-1 0.3-0.8-3-4.1-3.2-5.7-5.4-1.5-1.9-3.5-3.5-4.6-5.8-2.4-0.5-3.6-2.5-5.2-4-2.1-2.1-4.7-3.8-4.7-7.3 0-0.4-0.4-0.9-0.8-1.2-2.2-1.6-1.9-3.9-2-6.1-0.1-2.6-0.6-3.1-3.4-4.1-3.3-1.1-3.6-1.6-5.7-5.1-1.3-2.1-1.9-4.3-0.9-6.3 1.6-2.9 0.8-5.8 0.9-8.7 0-0.2-0.3-0.4-0.5-0.6-0.2 0.4-0.6 0.7-0.8 1-0.2 0.5-0.4 1.9-1 1-1.5-2.2-2.2-4.9-4.3-6.8-1-0.9-0.8-2.2-0.8-3.5 0.1-2 0.1-3.8-1.8-5.3-1.8-1.4-3-3.2-2.7-5.8 0.1-0.6-0.5-1.3-0.8-2-1.2-2.4-2.4-4.8-3.5-7.2-1-2.2-1.9-4.5-2.7-6.8-0.7-1.9-1.6-3.5-3.9-4.1-1.4-0.4 0.4-1.6 0-2.3-0.7-1.5-2.7-2.2-2.8-4.2 0-0.2-0.3-0.4-0.5-0.6-0.1 0.2-0.4 0.4-0.4 0.5-0.4 2.5-0.9 5 0 7.4 0.4 1.2 1.1 1.9-0.2 3-1.3 1.1-2.5 2.4-3.9 3.5-0.5 0.4-1.8 0.5-1.9-0.3-0.1-1.5-2.4-2.6-0.7-4.6 0.7-0.8 0.4-2.4 1-3.5 0.7-1.3 0.1-1.6-1-1.9-0.7-0.2-0.9-0.9-1.1-1.7-0.6-2.3-1-4.8-2.2-6.9-1.1-1.9-0.4-2.9 0.6-4q-0.4-1.3-0.9-2.5-0.4-0.3-0.2-0.7-0.5-1.3-1-2.5c-1.9-0.9-3.7-1.7-5.5-2.6-1.7-1-2.1-4-5-3.2-0.2 0-0.6-0.7-0.8-1.2-1.6-3.2-3.5-6.4-3.1-10.3-1.1-2-1.5-4.1-1.6-6.4-0.1-0.8-0.9-1.8-1.6-2.3-1.9-1.5-2.7-3.6-3.7-5.5-0.7-1.3-0.8-2.7-0.5-5.9 0.1-1.4 0.4-3-0.8-4.2-0.8-0.8 0.1-1.3 0.3-1.9 0.2-0.6 0.6-1.5 0.4-2-2.1-4-1.3-8.2-1.5-12.4q-0.1-1.5-0.1-3c0.1-1.3-0.9-1.5-1.8-1.9-0.8-0.3-1.2-1.3-0.8-1.8 2-2.4 1.2-5.3 1.3-7.9 0.1-2.7 0.5-5.5-1.4-7.9 0.4-1.5 1.1-3 0.1-4.6-0.2-0.3 0.2-1.2 0.5-1.3 1.6-0.5 2.6-1.5 2.3-3.2-0.4-2.4 0.7-4.3 1.3-6.4 0.5-1.9 0.1-4 0.2-6 2.7-2.7 0.3-6.8 2.7-9.7-0.6-1-2-2.3-0.5-3.1 0.7-0.4 1.1-0.8 1.6-1.3 0.1-0.4 0.2-0.7 0.3-1q0.1 0.2 0.1 0.4 0.4-0.5 0.8-1.2c0.6-1 1.5-2 2.5-2.7 2-1.3 0.2-2.5 0-3.7 0.9-0.1 1.4-0.6 1.5-1.5 0.4-0.1 0.8-0.2 1.2-0.5 4.5-2.6 4.6-2.6 4.7-7.6 0.1-1.8 0.9-2.9 2.2-3.5 0.7-0.3 1.4-0.7 2-1.1q0.4-1.7 0.9-3.4 0.1-0.4 0.3-0.7c-0.4-0.3-0.7-0.6-0.7-1.1q0.5 0 1 0c3.7-11.7 8.7-22.5 17.6-31.6 1.2-4.4 4-7.1 5.8-11.8 0.6-0.5 1.2-1 1.7-0.9 1.3-0.6 1.9 1.5 2.3 2.6-4.1 3-1.1 4.3-4.8 5.5-3 8.4-10.5 17.5-13.5 26-0.6 1.4-0.9 2.8-1.2 4.2 0.7-1 1.6-2 3-2.7 1.3-0.6 2.2-2.7 2.6-4.2 0.1-0.8-1.6-2.2 0.8-2.2 2 0.1 3.1-1.3 4.3-2.5 0.8-0.8 0.5-1.5 0.5-2.4-0.2-1.9 0.9-3.7 2.5-4.9q0.3-0.2 0.6-0.4c0.2 0.4 0.5 0.8 0.5 1.3 0 0.4-0.3 0.9-0.6 1.3-1 1.3 0.3 1.7 0.9 2.3 0.8 0.9 1.2-0.1 1.7-0.5q1.4-1.2 2.8-2.5c0.5-0.5 1.4-1.2 1.3-1.7-0.5-4.1 2.6-5.1 5.3-6.2 2-0.8 3.3-2.2 4.6-3.6 2.7-2.6 5.4-5 9.1-6.1 0.3-0.1 0.4-0.7 0.6-1.1 1.1-0.2 2.5 0.2 3-1.5 0.7-2.6 3.2-3.7 4.9-5.5 0.3-0.3 0.9-0.5 1.3-0.4 2.5 0.1 3.6-1.3 4.4-3.4 0.5-1.1 1.1-2.1 2.4-2.4 1.4 1.6 2.1 0.1 2.9-0.7 0.3-0.3 0.5-0.8 0.7-1.3 0.2-0.8 0.6-1.3 1.5-1.3 2.4 0.1 4.8 0 6.7-1.5q0.4-0.4 0.9-0.8c0.1-0.2 0.3-0.3 0.4-0.6q0.2 0 0.3-0.1 2.2-2 4.8-4c0.2-0.4 0.4-0.7 0.6-1.2 1.1-2.4 3.7-3.2 6.1-3.7q0.1-0.1 0.3-0.1 0.8-0.9 1.6-1.8c1.8-1.9 3.8-3.8 5-5.6-1.7-1.4-6.7 0.8-6.6-1.7 2.5-0.5 4.4 0.5 6.7 0.5 6.2-3.6 11.4-7.7 16.8-12.1 2.7-2.1 5.5-4.2 8.3-6.3 3-2 6-4 9.2-5.8-1-2.6-5.1-0.4-6.7-2.2 1.2 0.2 3.2-1 5-1.7-1.1-1.8-3.3-1.8-5.7-1.6-1.7 1.2 1.9 0.9 0.3 2.5-3.6 1.3-6.4 1.3-7.4-1.3-3.2 1.3-5.2 2.9-7.4 1.2-9.6 4.1-16.7 9-23.2 13.7-3.3 2.3-6.5 4.6-9.7 6.9q-2.5 1.7-5.2 3.3-2.6 1.7-5.5 3.4c-3.5 2.8-7.3 6.5-11.3 9.9-3.7 3.6-7.6 6.8-10.6 9.1-1.3 2.3-3.4 4.8-5.6 7.5-2.3 2.6-4.9 5.3-7.5 7.9 0.2-3.7 3.8-4.7 5.7-6.9 8.6-9.9 17.4-21 28-28.9 5.4-4.1 10-6.4 17.7-12.6 1.3-1 1.4-2 2.7-3.2 8.9-8.1 22.2-12.1 32.6-19-1.8-2.2-4.9-2.7-8.4-2.2-14.3 7.2-20.3 12.5-28.3 18.3-1.1-5.4 3.9-8.8 10.4-14.4 2.8-1.1 5.6-2.4 7.5-2.2 12.4-7.6 24.8-14.1 37.9-18.7 13-4.5 26.9-7.2 41.8-6.6-1.2 0.4 0 0.5 0.9 0.3-2.7 0.9-6.5 1.9-9.5 3 0.4-0.7 1.5-1.2 3-1.5-2.5-2.2-6 2.2-7.7-0.5-2.2 0.9-0.7 0.9-0.4 2.1-2.4-0.1-3.4-1.4-7.5 0.3-1.8 0.7-2.1 1.9-2.7 3.1 3.1-0.5 3.3-1.7 6.3-2.1 1 1.3 3.1 1.6 4.7 2.4 0.8-0.5 0.6-1.2 2.2-1.4 3.4-0.8 0.1 0.7 0.3 1.4 2.1 0.1 4.7 0.1 7-0.2 2.3-0.3 4.3-1.1 4.8-2.8 4.7 1.6 17.9 2.8 21.9-2.1 2.3 0.8 5.5 0.9 9.1 0.8 1.8-0.1 3.7-0.2 5.7-0.4 2-0.1 4.1-0.2 6.1-0.3 8.2-0.5 16.7 0.1 21 3.9 4.2 0 7.7 0.6 11 1.3 3.3 0.6 6.3 1.8 9.5 3.3 13.9 1.5 30.5 5.8 46.1 13 14.1 6.4 27.1 15.1 37 24.1q1 0.6 1.9 1.2 0.7 0.8 1.6 1.8 2.5 0.9 5.1 2.4c0.1-0.1 0.3-0.2 0.4-0.4q0.3 0.3 0.5 0.6-0.1 0.1-0.2 0.2 0.8 0.5 1.6 1c2.5 1.6 5 3.7 7.6 6.3-0.2-0.6-0.5-1.3-1-1.8q-0.1-0.1-0.1-0.3c-1.1-1.1-2.1-1.7-3.1-2.4-0.2-0.5 0-0.9 0.4-1.3 0.3 1.6 1.7 2.3 3 2.9q0-0.2 0.1-0.3c0-0.2 0.3-0.4 0.5-0.4 0.5 0.1 1.2 0.1 1.3 0.3 0.7 1.6 1 3.2 0.6 4.8q1.3 0.9 2.6 1.6 0.4-0.7 0.7-1.4c0.6-1.4 3.4-1.5 4.4-0.2 0.7 1 1 2.3 1.8 3.1 0.7 0.8 1.8 1.1 2.8 1.7q0 0 0 0c0.2-0.3 0.1-0.7-0.4-1.2 0.4-1.1 1.1 0.4 0.7 0.8q0.3 0.3 0.6 0.6 0.6 0.1 1.1 0.2-0.3-0.4-0.8-0.8l0.6-0.7q0.4 0.8 1 1.7c2.7 0.7 5.5 1.5 8.5 3.1 0.1-0.3 0-0.7 0-1.2q-0.6-0.5-1.2-1.2c0.2 0 0.5 0.1 0.9 0.3-0.3-0.8-0.8-1.6-1.2-2.4q0.6 0.1 1 0.4c-0.4-0.6-0.9-1.1-1.2-1.7-1.8-1.3-4.1-2.7-5.3-4.7 0.4 0 0.8 0.1 1.1-0.3-2.2-2.5-4.3-4.1-6.2-5.4-2-1.4-3.7-2.9-5.1-5.6 1.3 0.1 1 2.1 3.3 3.4 0-2.4-3-5.1-5.3-7.3 1-0.6 3.2 1.9 4.1 0.6 1.1 2.1 2.3 3.5 3.8 4.8 1.5 1.3 3.2 2.6 5.2 4.7-0.4 0.4-1.5-1.3-1.9-0.6 2.8 2.1 4 3.4 5.7 4.9q-0.1-0.4-0.1-0.7c-3.6-3.7-6-6.9-8.4-10-2.4-3-4.8-5.8-8.2-8.7-3.5-2.7-7.5-3.1-10.7-5.2-4.7-2.8-6.6-7.1-11.4-8.4-0.9-1.2 0.8-2.2-0.8-3.4-8.6-2.5-18.4-11-30.2-15.1-12.2-4.1-23.8-5-33.6-5.2-1.7-0.4-2-1-3.1-1.5-4.3 0.4-6.4-0.4-11.3-0.8 1.4-1.2 0.4-1 0.8-2.8 0.7 0.5 0.6 1.3 2.2 1.6 2.3 0.8 2.4-0.7 3.8-0.8 5.6 4.2 14.4 1.4 20.6 4 3.1-1 6.4-1.3 10-1 3.5 0.3 7.3 1.3 11.5 2.7 7.2 2.7 12.7 7.7 19.1 11.7 4.6 2.6 9.4 5.7 14.2 8.5 4.6 3.1 9.2 6 12.6 9.2 1.1 0.8 1.1-0.9 2.3 0.1 5.9 3 10.3 7.6 14.3 12.6 3.8 5.1 7.2 10.6 10.5 15.9 1.1 1.6 2.5 3.2 4 4.7 1.4 1.7 2.8 3.3 4.2 4.9q0.5 0.6 0.9 1.2c0.2-0.1 0.6 0 1.3 0.9q-0.2 0.2-0.3 0.4c1 1.5 1.8 3.1 2.3 4.7 2 2.2 4.5 4.6 4.7 7 0.6 0.5 1.1 0.8 1.5 0.4 1.4 2.5 2.6 4.7 3.9 6.8 3.5 4.6 6.8 9.5 9.5 14.7q0.1 0 0.1 0.1c1.3 2.2 2.5 4.5 3.6 7q-0.1 0-0.2 0 0.5 1.1 0.9 2.2 1.4 1.5 2.8 2.8c-0.3 0.1-0.1 1 0.4 2.1 0.6-0.1 1.1 0.1 1 0.7q0 0.7 0 1.3c0.7 1.2 1.6 2.2 2.3 2.1-0.2 2 2 9.7 4 10.7-0.7 1.3-0.2 2.9 0.5 4.6 0.6 0.5 0.7 1.1 0.8 1.8q0.3 0.8 0.5 1.6c0.2 0.2 0.3 0.3 0.4 0.2q1.3-0.5 2.5-1.2c-0.4-1.4-1-3.9-0.2-4.2 0.1 1.6-0.1 1.9 0.9 3.5q-0.4 0.1-0.4 0.6 0.5-0.4 1.1-0.7c0.2 0 0.4-0.1 0.6-0.1q-0.2-0.4-0.6-0.7c-0.4-1.8 0.8 0.3 1.2-0.5-0.7-1.8-1.8-0.8-2.5-2.9 0.9 0.3 1.7 1.5 2.7 1.6-0.7-2.1-1.7-1.8-2.4-3.7 0.6-0.3-0.2-1.7 0.7-1.7-0.2 2.4 0.8 2.8 2 4.6 0.4-1.2-2.1-7.8-3.5-8.6 0-1.1-1.5-3.6-0.5-3.8 0.9 1.7 0.2 1.9 1.1 3.6 0.5 0 0.3-0.7 0.1-1.4 1.4 1.6 1.2 4.9 2.6 6.9 0.5 0.8 0.3-0.4 0.9-0.4 1.5 1.2 0.9 4.7 2.4 4.5-0.5 2.6 2.6 7.2 3.7 9.9-0.7 2.8 1.2 6.3 1.7 9.9 1.2-1.5-0.3-3.7-1-7.5 1.4 0.9 0.9 4.6 2.3 7.2-1.6-0.3 1.3 4.3-0.8 3.4 1.5 3.2 1.6 4.4 1.7 7.9 3 2 2.8 10.8 4.3 13.1q0.6 4.3 1.3 8.9 0.3 2.3 0.6 4.7 0.2 2.4 0.3 4.8c0.4 6.4 0.8 13.1 1.2 20-0.1 13.6-0.3 27.7-2.7 41.1zm-319.7 159.7q0.1-0.2 0.1-0.3 0 0.2-0.1 0.3zm3 3.4q0 0 0-0.1 0 0.1 0 0.1zm63.4 20.5q0.3 0 0.4 0-0.2 0-0.4 0zm-44.4 10.2q0 0 0 0 0 0 0 0zm-0.1 0.6q0 0 0 0 0 0 0 0zm172.1-18.1q0 0 0 0 0 0 0 0zm121.1-175q0 0 0 0 0 0 0 0zm-80-213.6c-0.4-0.9-1.1-2.5-2.2-2 0.1 0.4 1.6 2.5 2.2 2zm-261.8 383.8c-0.3 0.4-2.9-2-3-0.3 1.3 0.8 4.3 1.5 3 0.3zm19.1 11.3c-2.2-0.5-3.2-2.6-4-1 1.2 0.2 3.5 1.6 4 1zm3.9-5c-0.6-0.6-3.1-1.6-3.3-0.8 1 0.2 3 1.5 3.3 0.8zm38.7 16.3c-0.7-0.1-0.6-0.5-0.5-1-1-0.1-1.7-0.2-2.3 0-0.8 0.8 2.3 1.7 2.8 1zm18.5 1.4c-2.6-0.2-4.1-0.9-4.5-2.1 1.4 0.2 2 0.5 2.9-0.2-1.2-0.1-1.5-0.7-2.3-1.1-3.1 0.5-4.7 1.4-8.6 0.3 1.4 2.6 6.2 1.9 10.8 3-0.1 0.7-1.6 0.4-1.2 1.2 1.9 0.3 3.3 0.1 2.9-1.1zm247.9-173.4c0.4-1.1 1.4-6.6 0.6-7.7 0.5-0.3 0.9-0.2 1.7-1.5-0.2-1.5 0.5-3.2 0.9-4.9 0.3-1.7 0.5-3.4-0.4-4.6q0.1-0.1 0.1-0.1c-0.4 0.3-0.8 0.6-1.3 0.6q-0.5 3.6-1.3 6.9 0 0.1-0.1 0.2c1.3-1.1 1.2-2.2 1.9-4.8 1.1 1-1.2 4.9-1.6 7.5-0.9 0 0.9-2.9-0.3-2.5-0.4 1.4-0.8 2.7-1.3 4.1 0.2 0.5 0.4 0.7 0.8 0.1 0.8-0.1-0.8 2.6 0.6 1.9-0.5 1-0.6 0-1-0.2-0.3 4.4-2.4 9.5-2.9 13.9-0.2-0.8-0.5-0.8-1 0.3 0.7 0.2 0.1 3.6 1.2 2.2 0.2 0.9-0.3 3-0.8 3.5 0 0.6 0.6 0.6 1.6 1.1 0.8-2.9 1.9-7.3 0.3-6.8 0.3-1 1.1-0.1 1.3-1.4 0.1-2.9-0.4-5.1 0.8-10.9 0.7 0.4-0.8 3.2 0.2 3.1zm-10.8 41.9c-1.2 1.9-0.2 3 0.7 2.2 1.2-2.5 0.8-2.2 2.1-4.4-1.8-0.4-1.8 4.6-2.8 2.2zm-139.1 115.5c-1.3-0.3-2.2-0.9-4.8 0.4 0.5 0.8 0.3 1.4-1.2 1.8 0.4-0.5 0.4-1 0-1.7-1.8 1.3-3.7 2.3-6.4 2.7-0.4 1.6 2.9-0.9 3.1-0.1-4 2-3.9 1.1-7.9 1.9-1.5 1 1.8 0.5 0.4 1.2-1.5-0.9-3.2 0.9-4.3-0.1-5.8 1.7-6.2 2-11.6 3.7-0.2-0.4-0.1-1.2-0.8-1.1-0.1 0.8-3.1 0.8-2.6 1.7 1-0.1 2.4-0.5 2.9-0.1-3.2 0.7-5.6 1.2-6.6 2-0.9 0.7-0.3 1.5 2.3 2.2-0.9-1.2-0.8-1.5 0.6-2.4 0.2 1 3.6 0.5 3.5-0.5-0.5-0.3-2.2 0.5-2.4 0 7-1.4 13-3.2 19.9-4.3 3.3-2.5 13.9-4.1 15.9-7.3zm-41.3 10.9c-3.3 1.1-6.7 0.4-8.4 2.1 3.6 0 5.1 0.5 8.3 0.2-0.5-0.9 0.1-1.5 0.1-2.3zm-18.4 1.4c0 0.6-1.9 0.3-1.6 1 0.4 0.2 1.9 1.2 2.3 0.1-2 0.2 1.3-1.4-0.7-1.1zm0.3 2.2c0.4 1.2 4.4-0.4 5.3 0.4 0.3-0.8 1.8-1.1 2.1-1.9-3.1-0.2-4.8 2-7.4 1.5zm10.4-7.4c0.1 0.3-0.4 0.4-0.5 0.7 3.3-1 2.6-2.1 0.2-2.6-1.6 0.4-5.6 1-8.9 1.7-3.3 0.8-6 1.4-4.6 3 3-0.4 4.7-1 6.5-1.4 1.8-0.5 3.8-0.9 7.3-1.4zm-24.4 6c-2.3 1.7 7.4 1.7 11.6 0.6-4.8-1-8.6 0.6-11.6-0.6zm29.2-8.1c-1.1 0.3-2.4 0.5-2.1 1.3 1.1 0.4 2.2-0.5 2.1-1.3zm5-8.8q1.4-0.4 2.7-0.8c1.8-0.5 3.4-1.2 4.8-1.9-0.6 0.1-0.7-0.3-0.8-0.8q-4 1.1-7.5 1.7-3.5 0.4-6.6 0.7c-4.1 0.5-7.6 1.3-11.1 3.4 1.2 0 3.5-1 3.8-0.3 0.2 0.6-0.5 0.8-0.3 1.3 0.9-0.2 2.8 0.5 3.2-0.5-1.2 0.4-3.1-0.4-1.8-1 3-0.4 6.9-0.7 10.7-1.3q1.5-0.3 2.9-0.5zm-130.8-37.2c0.2 0.1 0.5 0.2 1.2 0.3 0.1-0.1 0.1-0.2 0.1-0.2-0.2-0.1-0.5-0.2-0.7-0.1-0.2 0-0.4 0-0.6 0zm-29.9-13.3q-0.2 0.2-0.3 0.4-0.1 0.1-0.2 0.3 0.2 0.1 0.4 0.2 0.3-0.2 0.5-0.4-0.2-0.2-0.4-0.5zm92.1-348.6c0.6 0 1.3-0.1 1.7 0q0.2 0 0.4 0c1-0.1 1.7-0.3 2.1-0.7-1.5-0.1-2.9 0-4.2 0.7zm264 121.2q-0.2 0.4-0.2 0.9c0.5 1.7 0.7 3.4 1.1 5.1 0.4-0.5 0.7-1.1 0.3-2.5-1.6-0.2-0.2 0.1-1.2-3.5zm1.7 8q0.2 0.5 0.6 0.9c0.1 0 0.1 0.1 0.2 0.1-0.2-0.7-0.3-1.5-0.5-2.6-0.8-0.2-0.6 0.7-0.3 1.6zm-0.3 73.1c0.4-1.9-0.4-1.9-0.4-3-0.3 0.1-0.4 0.3-0.4 0.6 0 0.2 0 0.4 0.1 0.5-0.1 0.1-0.1 0.2-0.1 0.3 0 0.7 0.3 1.6 0.2 2.1q-0.3-0.6-0.6-1.2c-0.3 1-0.5 2.3-0.6 3.7 0.2 0.3 0.4 0.8 0.3 1.6 0.8-3.6-0.6-2.3 1.5-4.6zm-198.2-200.2q-0.4 0.1-0.7 0.2c0.1 0.2 0.3 0.3 0.7 0.2 0 0 0-0.2 0-0.4zm150.7 59.3q0 0 0 0c0.1 1.3 0.9 1.5 1.9 1.6q-0.9-0.9-1.9-1.6zm46.4 137.5q0.8-1.7 1.2-4.3c-0.1-0.8-0.8-0.5-1.3-0.6-0.1-1.3 0.5-1.2 1-1.2-0.3-2-0.5-4.1-0.5-6.3q0-1.4 0-2.9c-0.6 0.6-1.3 1.2-1.5 1.9q-0.1 0.1-0.1 0.2 0.1 1.5 0.2 2.9c0.2 3.8 0.4 7.4 1 10.3zm0.2-18.2q0-0.2 0-0.5-0.1 0.3 0 0.5zm-27.6-101.1q-1.3-2.5-2.9-4.4-0.2 0-0.3 0.1c-0.9 0.7-1 1.7-0.3 2.5 1.5 1.5 2.2 2 3.5 1.8zm-6.7-8.3q0.5 1.6 2.2 2.1-1.1-1.2-2.2-2.1zm33.3 136.8c0.1-0.8 0.1-1.6 0-2.3q0 1.2 0 2.3zm7.2-56.5c0.4-0.4 0.6-1.2 0.5-2.2q-0.3 0.7-0.6 1.4c0 0.2 0.1 0.5 0.1 0.8zm-0.2-6.1c-0.2-0.6-0.4-1-0.6-1.2 0 0.1 0 0.4 0 0.6q0.3 0.3 0.6 0.6zm-2.6-7.2q-0.3-0.1-0.6-0.1c-0.8-0.1-1.5 0.7-1.3 1.4 0.1 0.1 0.2 0.4 0.4 0.8q0.5 0.4 1 1 0.1 0.3 0.2 0.6 0.3 0.5 0.7 1.1c0.3-0.1 0.5-0.4 0.6-1.1-0.6 0.2-1.7-1.9-0.9-3.6q-0.1 0-0.1-0.1zm-4.5-17.8c-0.1 0.2 0 0.4 0.1 0.7q0 0 0 0.1 0-0.4-0.1-0.8zm-256.6-120.7q0.5 0.2 1 0.2-0.5-0.1-1-0.2zm73.9 404.9c1.5-0.9 3.6 0.2 3.1-1.2-1.4 0.2-2.6 0.2-3.1 1.2zm121.5-56.6c0.4 0.5 1 0 1.4 0.4 1.3-2 3.5-2.7 2.9-3.8-1.3 0.7-2.8 2.1-4.3 3.4zm5.9-3.7c0.8-0.3 3.2-2.7 2.5-3.3-0.5 0.5-0.8 0.2-1.2-0.2-1.2 1.5-1.8 2.7-1.3 3.5zm47.3-102.1c0.2 0.1 0.4 0.1 0.7-0.8-0.1-0.1-0.2-0.1-0.3-0.2q-0.2 0.5-0.4 1zm7.7-26.5q-0.3 0.1-0.6 0.4 0.1 0.6 0.2 1.3c0.2-0.6 0.4-1.2 0.4-1.7zm1.1-2.2c-0.1-1.9 0.1-2.8 0.3-5.5-0.5 1.2-0.8 2-1 2.8 0.1 1.1 0.2 2 0.3 2.8q0.2 0 0.4-0.1zm7.5-50.2c0.9-1.5 1.6-5.7-0.2-6.4 0.3 1.8 0.2 3.3-0.1 4.7q0.1 0.9 0.3 1.7zm0.4-7.1c-0.3-1.5-0.6-2.9-1.2-3.5-0.3 1 0.1 4.2 1.2 3.5zm-6.8-37.9q-0.3 0.3-0.6 0.6c0.5 0.5 0.9 1 0.8 1.8-0.3 0.1-1.3-2.4-1.1-0.3 1 0.2 0.3 1.9 0.8 2.9l1.2-0.3c0.2-1.9-0.3-3.4-1.1-4.7zm-1.3-8c-0.2 0.3-0.5 0.5-0.8 0.5q0 0-0.1 0c0.3 0.9 0.5 1.9 0.9 2-0.1-1 0.8-0.8 0-2.5zm-5.6-2.8c-0.2 1.1 0.9 1.7 1 2.6 0.2 0.8-0.7 1.7-0.9 2.6-0.1 0.3 0.4 1 0.7 1.1 1 0.1 2 0.1 3 0.1q-0.1-0.5-0.2-1.1c-1.8-1.3-0.3-2.3 0.5 0.5 0.2-0.2 0.1-0.7 0.4-0.8 0-0.7-0.1-1.2-0.2-1.7-0.6 0-1.1-0.3-1.2-0.9-0.3-1.3-1-2.2-2.1-2.9-0.1-0.1-0.4-0.2-0.6-0.1-0.1 0.1-0.3 0.4-0.4 0.6zm-12.2-23.2q0 0.6 0.1 1.2 0.4 0.6 0.7 1.4c0.4-0.2 0.8 0 1.2 0.2-0.7-0.9-1.4-1.9-2-2.8zm-40.9-55.6c0.7 1.6 1.4 3.4 2.7 3.6 0-0.1 0.1-0.1 0.1-0.2q-0.3-0.5-0.7-0.9-1.1-1.2-2.1-2.5zm-20.1-4.4q0.4 0.2 0.8 0.4-0.1-0.3-0.3-0.4c-0.2-0.2-0.4-0.1-0.5 0zm-194.7-22.9q0 0 0.1 0.1c1 1.4 1.7 1.4 3.7 0.4 0.4-0.2 0.8-0.3 1.3-0.5 0.4 1.3 1.2 1.8 2.4 1 0.8-0.5 1.5-1 1.9-1.8q-1.6-0.1-3.1-0.1c-0.2 0.5-0.6 0.8-1.2 0.8q0-0.4 0-0.8c-1.7 0.1-3.4 0.3-5.1 0.9zm-16.6 3.2c0.6 0.7 1.3 1.2 2.6 0.3 1.9-1.4 4.6 0.4 6.3-1.7 0.2-0.3 0.9-0.3 1.4-0.3 0.8 0 1.3-0.2 1.6-0.6-1.4 0.1-3.1 0.2-4.8 0.5-2.3 0.4-4.8 1-7.1 1.8zm-116.6 298.4c0-0.4-0.3-0.7-0.5-1.1q-0.2 0.3-0.4 0.6c-0.2 0.1-0.3 0.3-0.3 0.5-0.1 0.4 0.2 1.1 0.4 1.1 0.8 0.2 0.9-0.5 0.8-1.1zm4.7 18.3q0-0.1 0-0.2-0.1 0-0.1 0c-0.1-0.5-0.1-1.1-0.9-1-0.1 0-0.2 0.5-0.1 0.5 0.3 0.2 0.6 0.3 1 0.5q0 0.1 0 0.1 0 0.1 0.1 0.1c0 0.6 0 1.3 0.1 2 0 0.2 0.3 0.3 0.5 0.5 0.2-0.3 0.7-0.5 0.7-0.8 0.3-1.2-0.2-1.7-1.3-1.7zm7.1 5.2c-0.4-0.3-0.8-0.7-1.2-0.7-0.4 0-0.8 0.4-1.2 0.6q0.6 0.3 1.2 0.7 0.6-0.3 1.2-0.6zm1.9 3.7q0 0 0-0.1c1.1 0.1 1.6-0.7 2.1-1.4 0.2-0.2 0.4-0.7 0.4-1.1 0-0.4-1.5-0.4-1.9 0-0.8 0.7-0.6 1.7-0.6 2.5q-0.1 0-0.1 0.1 0 0 0 0.1c-0.4 0.2-0.7 0.3-1 0.5-0.1 0 0 0.5 0.1 0.5 0.8 0.1 0.8-0.4 0.9-1q0 0 0.1-0.1zm5.8 0.8q-0.1-0.1-0.2-0.2-0.2-0.1-0.3-0.3 0 0-0.1 0c-0.4-0.1-1.2-0.3-1.3-0.1q-2.7 3.5-3.7 7.7c-0.1 0.2 0.5 0.8 0.8 0.9 0.4 0.1 1.3-0.1 1.3-0.2 0.3-2.9 2.5-4.7 3.5-7.1 0.1-0.2 0-0.5 0-0.7zm24.2 20.9c0-0.1-0.1-0.2-0.1-0.3 0.2-1.1-0.4-1.9-1.7-1.7-0.7 0.1-1 0.5-1.1 1 0.5 0.2 0.9-0.1 1.1-0.6 0.9 0.7 1.3 1.2 1.8 1.6zm8 0.6q-0.2-0.1-0.3-0.2-0.1 0.2-0.1 0.3-0.1 0.1-0.2 0.1l0.1 0.1q0.1-0.1 0.1-0.2 0.2 0 0.4-0.1zm65.3 43.6c-0.2-1.8-0.6-3.2-0.1-4.2-3.5-0.4-9.5-2.2-8.1 0.1-3.6 0.5-9-6.2-12.7-4.6-2.3-1-4.4-1.6-6.4-2.2-2-0.6-4-1-6-1.4q-1.3-0.3-2.6-0.6 0.3 0.2 0.6 0.4c2 1.3 3.7 2.4 5.5 3.2 5.5 1 10.1 3.2 14.7 5.3 4.7 1.7 9.5 3.5 15.1 4zm66.6 7.9c2-0.2 3.9-0.5 5.7-0.8 1.9-0.4 3.6-0.8 5.3-0.9-0.3-2.2-5.1 1.3-7.1-0.1 1.3-0.8 5.2 0.3 4.7-1.8-3.3 0.7-1.5 0.4-3.3 0.2-1.8 1.1-2.7 0.8-6.8 1.1-0.6 0.9 2.6 1 1.2 1.5-1-0.6-1.7 0.5-2.2-0.5 0.3-0.2 0.7-1.3-0.2-1.9-1.8 1-7.3 0.8-9.5 2.4 1.4 0.2 4.2-0.6 4.8 0.1 0.1 0.5-1.4 0.2-1.5 0.7 0.4 0.1 1 0 1.1 0.3-2 0.3-2.7-1.2-3.9-0.5 3.8 1 7.9 0.8 11.7 0.2zm-27 14c3.3-0.2 7.1 0 10.5 0.1 3.5-0.1 6.5-0.3 8.4-0.8-1 0-2.9 0.5-2.3-0.5-6.1 1.1-12.6-1.1-16.6 1.2zm-3 2.4c2-0.7 4.8-0.5 7.8-0.4 3.1 0.2 6.3 0.4 9-0.5-0.9-0.8-11.3-1.6-8.1 0-3.4-0.3-4.2-0.1-7.5-0.6-0.2 0.6-1.7 0.5-1.2 1.5zm2.3 1.4c-0.9-0.4-2.4-1.2-2.9-0.1 0.3 0.2 2.8 0.8 2.9 0.1zm54.8-1.2c-2.7-1.5-10.3 0.9-14.9 0.8 1-1.6 8-0.5 10.4-2-3.3 0.4-0.3-1-1-2.1-1.7-0.4-5.8-0.2-7.5 1.2 1.1 0 3.4-1 3 0.2-1.9 0-4 0.8-6.8 1.7-0.1-0.8 0.9-1.2-0.8-1.2-0.7 1-2.1-0.2-3.5 0.1-0.3 0.6 1.9 1.2 0.2 1.6-1.1-0.8-2.9-1.1-4.8-1.3-8.4 2.3-18.7 2.3-24.4 2.4 0.7 0.1 0.6 0.5 0.6 1-1.8 0-4.6-0.6-4.7 0.4 1.1 0.3 2.1 0.6 3.5 0.8 0.8 0 0.5-0.5 1.2-0.6 5.8 1.1 12 0.8 17.9 0.5 2.9-0.2 5.8-0.5 8.5-0.9q2.1-0.2 4-0.5 0.4-0.1 0.8-0.2l0.1 1c6.6-1.5 12.2-0.5 18.2-2.9zm11.8-6.3c-2.2 0.9-1.9-0.4-4.1 0.5 0 0.6 0.8 0.5 0.9 1 0.9-0.5 2.8-0.8 3.2-1.5zm12.1-9.8c1.3-0.5 4-1 4.2-1.8-2.2 0.7-3.7 0.1-4.2 1.8zm55.7-11.7c-1.3 1.5-3.7 1.6-3.6 3.3 1.1-1.1 4-2.3 3.6-3.3zm13.4-0.5c-0.6 0.3-0.8-0.1-1-0.5-0.8 0.5-2 1.1-1.9 1.6 1.5-1.3 1.4 1.5 2.4-0.8 0.1 0.1 0.6 0 0.5-0.3zm6.4-14.8c-2.4 2-5.9 4.7-9.1 6.9-3.3 2.2-6 4.3-6.2 5.6 1.7-1.4 4.9-3.5 8-5.6 3-2.4 6-4.9 7.3-6.9zm-3.4 6.5l-0.5-0.8c-1.3 1-2.9 2-2.5 2.7 0.7-0.1 1.9-1 3-1.9zm-2.8 3.2l-0.6-0.7-2 1.3c0.3 0.7 1.5 0 2.6-0.6zm20.2-9.7c-0.3 1.4-0.1 1.4 1 2.1 2-1.6 0.2-2.1-1-2.1zm3.7-0.4c-0.3-0.3-0.3-0.8-0.2-1.2-0.6 0.6-0.8 0-1.3 0.4 0.1 0.4-0.5 0.5-1 0.7 0.3 0.6 1.1 0 1.6 0-0.7 0.6 0.3 0.5 0.9 0.1zm10.2-7.2c-0.8 0-3.3 0.2-3.4 0.9 1.5-1.1 0 0.9 0.9 1 0.6-0.5 1.2-1.3 1.6-1.1-0.7 0.7-1.8 1.5-1.6 1.9 2-1.1 1-1.1 2.5-2.7zm7-13l2-2.2-0.7-0.7c-0.5 1-2.2 2.5-1.3 2.9zm6.9-2c-1.3 1.3-4.4 2.5-3.9 3.9 1.1-1.2 2.1-2.4 1.7-0.9 0.6-0.9 2.7-2.4 2.2-3zm5.4-12.3c-2 1.4-4.4 4.8-8.1 8.3 1.3 2.3-2.5 4.7-2.9 6.4 4.1-2.5 4.8-4.9 5.2-7.6 2.4-0.9 5.8-4.6 5.8-7.1zm6.9-10c-2.9 2.7-4.8 6.7-7.2 9l1.2 1c0.9-2.4 2-3 4.1-5.3-0.5-1.7 1.9-2.9 1.9-4.7zm26.9-43.9c-1.1 1.9-3.2 4.1-2.6 5.4-1-1.1-1.8 2.1-2.7 2.7 1.1 0 0.4 1.4 1.4 1.4 1.8-2.5 2-5.9 3.9-9.5zm0-0.1q0 0 0 0.1 0-0.1 0-0.1zm-1 16.6c-0.6-1.1-1.4 1.4-2.1 2.4 0-1.3-0.8 0.1-0.8-1.2-0.8 1.3-1.6 2.6-1 3 0.5-0.6 1-0.9 1.5-0.6 0.8-1.4 1.6-3.1 2.4-3.6zm2.8-7c-1.1 1.6-2 2-1.9 3.9 1.1-1.6 2-2 1.9-3.9zm0.8-21.7q-0.8 2.1-0.5 3.1c0.8-0.6 1.4-2.9 0.5-3.1zm0.3-10.1c-0.5 2.5-1.4 3-1.3 4.6 0.7-0.6 2.2-4.2 1.3-4.6zm1.1-4c-0.1-1.9 1.6-3.3 0.7-4.1-0.2 1.4-2 4.2-0.7 4.1zm2.3 0.1c-1.4 3.2-0.8 0.1-1-0.9-0.6 3.4-1 4.4-0.7 6.7 0.6-2.1 2.7-4.6 1.7-5.8zm-0.1-18.1q-0.3 0.8-0.7 1.6c0.1 0.4 0.3 0.7 0.5 1 0-0.8 1.1-2.8 0.4-2.9-0.1 0.2-0.2 0.3-0.2 0.3zm4.3 23.3c-1.1 1-0.4 2.1-1.4 4 1 1.2 3-4.3 1.4-4zm4-4.6c-1.5 0-2.6 2.5-3.9 3.3 1.6 1 2.8-1.1 3.9-3.3zm9-98.2q-0.1 0-0.1-0.1 0 0 0 0.1 0 0 0.1 0zm2 2.2c-0.3-2.3-0.4-5.8-0.6-4.9-0.5 1.5-0.8 4.3 0.6 4.9z"/>
			<path id="Layer" fill-rule="evenodd" class="s0" d="m66.6 184.5c-0.3 0.3-1.8 0.8-1.9 1 0.3-0.1 2.4-1 1.9-1z"/>
			<path id="Layer" fill-rule="evenodd" class="s0" d="m100.3 172.8c-0.1-0.2-0.9-0.1-1-0.2 1.1-0.3 1.8 0.5 2.8 0.6 0.1-0.1 0-0.3 0.2-0.3 0.2 0.2 0.3 0.3 0.5 0.4 1.1 0 3.2 0.7 4.2 0.4-0.2-0.2-1.2-0.3-0.6-0.5-0.8-0.2-0.1 0.2-0.6 0.3q0-0.2-0.3-0.2c0.3-0.3-1.1-0.2-1.6-0.5-0.5 0.1 0.2 0.3-0.2 0.3-0.4-0.3-1.1-0.5-1-0.1 0.1-0.1-1.4-0.2-0.8-0.4-1.8-0.2-1.7-0.3-3.1-0.3 0.2 0.3 0 0.2 0.2 0.5 0.6-0.1 0.9 0.1 1.3 0z"/>
			<path id="Layer" fill-rule="evenodd" class="s0" d="m119.5 185.7c0.4 0.1 0.9 0.5 1.3 0.5-0.4-0.2-1.1-0.6-1.3-0.5z"/>
			<path id="Layer" fill-rule="evenodd" class="s0" d="m125.7 186.1c-0.2 0.2-0.8-0.3-1.1-0.3 0.1 0.3 1.3 0.7 1.1 0.3z"/>
			<path id="Layer" fill-rule="evenodd" class="s0" d="m130 183.5c0.1-0.1 0.4 0.2 0.5 0.1-0.3-0.1-0.3-0.5 0-0.3 0.2 0.2 0.4 0 0.9 0.1-0.9-0.2-2-1-2.4-0.9 0.6 0.1 1.4 0.8 1 1z"/>
			<path id="Layer" fill-rule="evenodd" class="s0" d="m130.3 191.9c-0.2 0.2 0.1 0.4 0.5 0.7-0.1-0.4 0.7 0.4 0.4 0-0.3-0.3-0.5-0.2-0.5-0.5 0.1 0.1 0.2 0.1 0.1 0q-0.2 0-0.4 0c0-0.1 0-0.1-0.1-0.2z"/>
			<path id="Layer" fill-rule="evenodd" class="s0" d="m131.4 193c0.7 0.8 1.6 2.1 2.5 2.2-0.1 0-0.3-0.2-0.2-0.2 0.3 0.3 0.6 0.1 1 0.7 0.2-0.2-0.1-0.4-0.3-0.6-0.5-0.3-2.6-1.6-2.4-2.1-0.2 0-0.4-0.2-0.6 0z"/>
			<path id="Layer" fill-rule="evenodd" class="s0" d="m138.2 190.6c0.8 0.8 1 1.1 1.9 1.7-0.1-0.2 0.1-0.4-0.2-0.6 0.2 0 0.3 0.2 0.7 0.5-0.1 0.4 0 0.8 0.2 1.2 0.4 0.5 1.2 0.4 1.1 1 0.3 0.1 0.5-0.1 0.7-0.2 0.4 0.6 0.6 0.3 0.7 0.7q0.3-0.2-0.1-0.5c0.2-0.2 0.7 0.9 0.9 0.7 0.3 0.4-0.4 0-0.5-0.2 0 0.2-0.2 0.4 0.1 0.6 0.1 0.2 0.2 0 0.3-0.1 0.4 0.5 0.6 1.1 1 0.9 0.4 0.9 1.2 1.5 1.6 2.2 0.2 0.1 0.2 0 0.1-0.3 0.4 0.2 0.6 0.9 0.8 0.9 0.1 0.2-0.1 0.2-0.1 0.3 0.3 0.4 0.2 0.7 0.5 0.6-0.1 0.4 0.5 1.2 0.5 1.6-0.2-0.3-0.5-1.3-0.8-0.9-0.1-0.2 0-0.2 0.1-0.3-0.2-0.2-0.5-0.4-0.7-0.7q-0.1-0.4-0.2-0.9c-0.3-0.3 0 0.3-0.3 0.2 0-0.5-0.5-0.4-0.6-0.5q0 0 0-0.1-0.1 0.1 0 0.1c-0.1 0.6 0.7 1.9 1.5 2.5-0.2 0.1-0.2 0.1-0.3 0.3 0.1-0.7-1.3-1-1.4-2.1-1-0.8-2-2-3.1-3.2q-0.7-0.9-1.5-1.8-0.4-0.4-0.8-0.8-0.3-0.3-0.7-0.6c0.1 0 0.3 0.1 0.4 0-0.3-0.4-0.5-0.3-0.8-0.6 0-0.6-1.7-1.5-1.9-2.1 0.3 0.4 0.6 0.5 0.9 0.5zm5.6 6.1c0.1-0.4 0.6 0.7 0.7 0.3-0.2-0.3-0.4-0.5-0.6-0.6 0 0.1-0.2 0.2-0.1 0.3z"/>
			<path id="Layer" fill-rule="evenodd" class="s0" d="m136.7 197.3c0.2 0.3 0.1 0.5 0.1 0.8 0.2 0.3 0.3 0.1 0.5 0.3-0.1 0.1-0.1 0.2 0 0.4 0.3-0.5-0.4-0.9-0.3-1.4-0.1 0.1-0.3-0.1-0.3-0.1z"/>
			<path id="Layer" fill-rule="evenodd" class="s0" d="m154.4 214.7c0-0.8 0.6 0.3 0.6-0.2-0.2 0.1-0.5-0.5-0.8-0.6 0.4 0.5 0 0.4 0.2 0.8z"/>
			<path id="Layer" fill-rule="evenodd" class="s0" d="m154.7 217.7c-0.2 0-0.3-0.2-0.4 0 0.2 0.4 0 0.5 0 0.8 0.1-0.1 0.5 0.7 0.4 0.2-0.5-0.5 0.1-0.6 0-1z"/>
			<path id="Layer" fill-rule="evenodd" class="s0" d="m150 276.4c0.3-0.2 0.8-0.2 0.7-0.3 0.1-0.4-0.5-0.1-0.7 0.3z"/>
			<path id="Layer" fill-rule="evenodd" class="s0" d="m144.6 284.1c-0.4 0.5-0.9 0.7-0.9 1.1 0.3-0.2 0.9-0.7 0.8-0.2 0.1-0.4 1.3-1.2 0.9-1.1-0.3 0.2-1.1 0.8-0.8 0.2z"/>
			<path id="Layer" fill-rule="evenodd" class="s0" d="m150.4 290.7c0 0.2 0 0.2-0.1 0.9 0.5-0.7 0.9-1.4 0.7-1.7-0.2 0.3-0.8 0.7-0.6 0.8z"/>
			<path id="Layer" fill-rule="evenodd" class="s0" d="m129.5 298.7c-0.2 0.2-0.4 0.2-0.4 0.3 0.5-0.2-0.5 0.5-0.5 0.6 0.4-0.1 1.3-0.8 1.1-0.8-0.6 0.4-0.3 0.2-0.2-0.1z"/>
			<path id="Layer" fill-rule="evenodd" class="s0" d="m110.3 306.6c0.2 0 0.6-0.1 0.7 0.1-0.8 0.2-2 0-1.6 0.4 0.2-0.3 1-0.2 1.2-0.1 0.1-0.2 1.6-0.9 1.2-0.7-0.7 0.3-1.3 0-1.5 0.3z"/>
			<path id="Layer" fill-rule="evenodd" class="s0" d="m106.4 306.8c0 0.4-0.6 0.9 0 1 0-0.1 0.2-0.2 0.3-0.3-0.5-0.1-0.5-0.6 0.5-0.7 0.1-0.3-0.5 0-0.8 0z"/>
			<path id="Layer" fill-rule="evenodd" class="s0" d="m103.5 307.7c-0.3 0.1 0.4 0.2 0.3 0.5l-0.7 0.1-0.1-0.4c-0.5 0.3-1.4 0.4-1 0.7-0.3-0.1-0.7 0-0.9 0.2 1.3-0.1 1.7-0.4 2.7-0.4 0-0.1 0-0.2 0.3-0.2-0.5-0.2 0-0.6-0.6-0.5z"/>
			<path id="Layer" fill-rule="evenodd" class="s0" d="m96.4 312.4c0.3 0.2 1.2 0 0.9 0.4 1.3-0.1-0.5-0.7-0.9-0.4z"/>
			<path id="Layer" fill-rule="evenodd" class="s0" d="m89.5 307.9q0.3 0.1 0.5 0.2c1.8 0-0.2-0.2-0.5-0.2z"/>
			<path id="Layer" fill-rule="evenodd" class="s0" d="m88.5 308.3c0.1 0.3 0.9 0.4 1.3 0.3-0.1-0.2-0.7-0.3-0.3-0.5-0.9-0.1-1.4 0-2 0.1 0.5 0.3-0.5 0.3-0.2 0.4 0.2-0.1 0.8-0.1 1 0 0.2-0.2-0.1-0.2 0.2-0.3z"/>
			<path id="Layer" fill-rule="evenodd" class="s0" d="m86.2 307.5c0 0.2-0.3 0.3-0.5 0.3 0-0.2-0.7-0.1-0.8-0.3-0.2 0.1-0.1 0.3-0.5 0.2-2.9-0.4-5-0.7-7-1.3-0.9-0.2-1.9-0.5-2.9-0.8q-0.8-0.2-1.6-0.4-0.8-0.3-1.7-0.6c-0.1 0.6-0.5-0.2-0.9-0.1 0.2 0.5 0.6 0.6 1.3 1 0.2-0.2-0.4-0.3-0.4-0.5 0.2 0.1 0.4 0.1 0.5 0.1-0.3 0.3 0.8 0.5 0.2 0.6 1.2 0.3 2.5 0.5 3.9 0.8q1.1 0.2 2.3 0.5 0.5 0.1 1.2 0.3 0.6 0.1 1.3 0.2c0-0.1 0.1-0.2 0.3-0.2 0.4 0.3 0.4 0.2 1.2 0.3-0.3 0.2-0.2 0.3 0.2 0.4 0.1-0.1 0-0.2 0.2-0.2 0.9 0.1 2 0.2 3 0.1 0.9 0 1.7-0.2 2.1-0.3-0.4 0-1-0.1-1.4-0.1z"/>
			<path id="Layer" fill-rule="evenodd" class="s0" d="m65.3 293.7c0.5 0.2 1.2 0.6 0.5 0.5 0.3 0.2 0.7 0.5 1 0.4 0.4 0.4 0.5 1 1.1 1.1q-0.1 0.2-0.3 0.3c0.5 0.1 0.7 0 1.1 0 0.3 0.2 0 0.4 0.5 0.5 0.2-0.1 0.9 0 1.6 0.3q0 0.1 0 0.2c-0.1 0.1 0 0.2 0.1 0.3 0-0.1 0.1-0.1 0.1-0.2q0-0.1 0-0.2c0.8 0.3 1.5 0.7 1.2 0.9q0.6 0.2 1.2 0.4 0 0 0 0c-0.1 0-0.1 0.1-0.2 0.1 0 0.1 0 0.2 0.2 0.3 0.3 0.1 0.8 0 1 0.3 0.4-0.2 0.7-0.1 1 0.1 0.2 0.1 0.4 0 0.4-0.3q0.1 0 0.1 0 0 0 0 0 0-0.1 0-0.2c0.3 0 0.5 0.1 0.6-0.1q-0.3 0-0.6-0.1c0-0.2-0.1-0.4-0.2-0.3q-0.2 0.1-0.5 0.2-0.2-0.1-0.4-0.2-0.8-0.2-1.6-0.5c-1.1-0.4-2.2-0.8-3-1.2q0.1-0.1 0.3-0.1c0.5 0.1 0.6 0.6 0.9 0.3-0.5-0.1-0.6-0.3-0.9-0.5-0.3 0.2-0.6 0.1-1 0-0.4-0.2-0.8-0.4-1.1-0.4 0.2 0 0.3-0.2 0.2-0.4-0.6-0.2-1.3-0.6-1.6-1 0-0.1 0.2 0 0.3-0.1-0.8-0.4-1.2-0.3-2-0.4z"/>
			<path id="Layer" fill-rule="evenodd" class="s0" d="m69 300.3c0.8 0.1 1.5 0.2 2.3 0.8 0-0.1 0-0.2-0.1-0.3 0.3 0.1 0.4 0 0.5 0-0.9-0.2-1.4-0.5-2.3-0.7 1 0.4-0.1 0.2-0.4 0.2z"/>
			<path id="Layer" fill-rule="evenodd" class="s0" d="m67.6 299.3q-0.4-0.1-0.6-0.3c-0.2 0.1 0.5 0.8 0.3 0.5-0.4-0.2 0.3 0 0.3-0.2z"/>
			<path id="Layer" fill-rule="evenodd" class="s0" d="m64.2 299.8c-0.3 0.5 1.4 0.9 1.4 1.3l0.1-0.1c0.1 0 0.2 0 0.2 0-0.4-0.2-0.9-0.4-1.5-0.8 0.1-0.1 0.2-0.3-0.2-0.4z"/>
			<path id="Layer" fill-rule="evenodd" class="s0" d="m59.3 303.6c0.1 0.1 0.7-0.1 0.3-0.3-0.4 0.2-0.6-0.1-0.9 0 0.3 0.1 0.4 0.2 0.4 0.3-0.6-0.1-0.5-0.2-1.1-0.5-0.1 0.1 0.1 0.2 0 0.3-0.4-0.4-0.9-0.3-1.3-0.4 0.4 0.2 0.4 0.4 0.8 0.6 0.6 0 1 0.3 2 0.7 0.1-0.1 0.3 0 0.5 0-0.4-0.2-0.5-0.4-0.7-0.7z"/>
			<path id="Layer" fill-rule="evenodd" class="s0" d="m63.4 287.8c0.4 0.1 0.5 0.5 0.6 0.4-0.5-0.3-0.2-0.4-0.2-0.7-0.3 0.1-0.4 0-0.4 0.3z"/>
			<path id="Layer" fill-rule="evenodd" class="s0" d="m133.5 185.7c0.6 0.5 0.9 0.4 1.3 0.6 0.4 0.3 0.4 0.6 0.6 0.9 0.3 0.1 0.7 0.4 1.1 0.8 0.3 0.3 0.8 0.7 1.3 1.1-0.7-0.5-0.6-0.9-0.8-1.2-0.6-0.3-0.8-0.7-1.3-0.8 0.1-0.1 0-0.2-0.3-0.3 0.2-0.1 0.3-0.3 0-0.5-0.4 0-1.1-0.5-1.5-0.5-0.1-0.2-0.1-0.4-0.2-0.6-0.1 0.1-0.2 0.1-0.3 0.1 0.3 0.2 0.3 0.3 0.1 0.4z"/>
			<path id="Layer" fill-rule="evenodd" class="s0" d="m72.3 306.5q-0.6-0.4-1.2-0.7c-0.8-0.5-1.8-0.8-2.7-0.8-0.1 0.7-0.7 0.7-1.6 0.6 0.2-0.4-0.9-0.7-1-1 0 0.4-0.6 0-0.6 0.2q0-0.3-0.3-0.5c-0.2 0.4-1.1-0.2-1.7-0.4-0.1 0.3 0.1 0.3-0.2 0.5 0.6 0.6 2.2 1.3 2.7 1.7 1.6 0.1 3.3 2 5.4 2.4 1.3 0.3 2.3-0.3 2-1.4q-0.3-0.3-0.8-0.6z"/>
		</g>
	</g>
</svg>