<?xml version="1.0" standalone="no"?>
<!DOCTYPE svg PUBLIC "-//W3C//DTD SVG 20010904//EN"
 "http://www.w3.org/TR/2001/REC-SVG-20010904/DTD/svg10.dtd">
<svg version="1.0" xmlns="http://www.w3.org/2000/svg"
 width="484.000000pt" height="515.000000pt" viewBox="0 0 484.000000 515.000000"
 preserveAspectRatio="xMidYMid meet">

<g transform="translate(0.000000,515.000000) scale(0.100000,-0.100000)"
fill="#000000" stroke="none">
<path d="M1085 4474 c-133 -32 -188 -58 -255 -120 -96 -90 -140 -221 -140
-418 0 -218 38 -432 170 -951 176 -692 191 -803 155 -1170 -35 -364 -128 -711
-297 -1109 -69 -163 -74 -176 -61 -176 20 0 218 286 338 489 242 408 385 698
526 1070 188 492 260 852 261 1301 0 280 -22 463 -77 627 -67 200 -184 352
-322 420 -68 34 -81 37 -176 39 -56 2 -111 1 -122 -2z"/>
<path d="M3272 4215 c-167 -47 -353 -257 -519 -585 -72 -142 -124 -269 -222
-540 -105 -293 -275 -717 -424 -1065 -52 -121 -93 -222 -90 -225 5 -5 115 112
185 197 24 29 121 128 217 220 682 655 876 865 1061 1148 239 367 281 622 127
774 -75 74 -222 108 -335 76z"/>
<path d="M3575 2144 c-368 -33 -640 -150 -1035 -446 -194 -145 -481 -413 -636
-594 -122 -142 -301 -391 -290 -402 3 -2 40 17 83 43 43 25 155 84 248 130
363 179 765 317 1030 355 44 6 91 13 105 16 14 3 223 9 465 13 404 7 446 10
518 29 97 27 168 64 212 114 104 114 135 301 72 430 -67 138 -236 248 -447
293 -68 14 -257 25 -325 19z"/>
</g>
</svg>
