<svg version="1.2" xmlns="http://www.w3.org/2000/svg" viewBox="0 0 750 50" width="750" height="50">
	<title>11753260_4771274-svg</title>
	<style>
		.s0 { fill: #000000 } 
	</style>
	<g id="OBJECTS">
		<g id="Layer">
			<path id="Layer" class="s0" d="m667.6 13c0.4 0.3 1.1 0.1 1.6-0.6 0 0 0 0 0.1 0.1 0.6 0.8 1.1-0.3 1.3-0.1 0.8 0.7 1.4 0.6 2.2 0 0.3-0.2 1.4 0.7 2.1 0.9 0.6 0.1 0.6 0.1 0.6 0.1 0.7-0.3 1.8-0.4 2.3-0.3 0.6 0.1 3 0.5 4 0.7 0 0 0 0 0.8-0.7 0.1 0 0.4-0.1 0.6 0 0.9 0.3 1.9 0.9 2.9 0.9 0.8 0 0.8 0 0.8 0 0.7-0.5 1.2-0.1 1.1 0.9 0 0 0 0 1.5-1.2 1.3-1 1.3-1 1.3-1 1.2 0.5 2.9 0.7 3.7 0.4 0.9-0.3 3.4 1 4.2 0.9 0.9 0 3.9 0.9 4.8 1.1 0 0 0 0-0.1-1.1 0-0.1 0.6-0.3 0.7-0.2 1.1 0.7 1.1 0.7 1.1 0.7 1.4-0.2 3-0.1 3.5 0.3 0.5 0.4 2.3-0.4 2.8-0.2 0.4 0.2 2.2 0.5 2.7 0.2 0.6-0.3 3.9-0.2 5.8-0.1 0 0 0 0 1.6 0.6 0.6 0.3 1.6-0.4 2.4-0.5 0.6 0 0.6 0 0.6 0 0.7 0.1 1.5 0.1 1.8 0q0 0 0 0c1.5 1.2 1.5 1.2 1.5 1.2 1.8-0.7 3.4-0.5 3.7 0.3 0.2 0.8 1.7 2.6 2 2.6 0.4-0.1 1.3-0.1 1.4 0.2 0.1 0.2-0.4 1-1 1.3-0.5 0.3-0.6 2.8-1.5 4.1 0 0 0 0 0.3 1.6 0.1 0.4 0.1 0.4 0.1 0.4-0.1 0.6-0.3 0.9-0.5 0.8-0.3-0.2-0.9-0.2-1.1 0.2q0 0 0 0c1.6 0.6-0.3 1.7 0.4 2.5 0.1 0.1 0.1 0.3 0 0.4-1.2 1.1-1.2 1.1-1.2 1.1 0 0.8-1.4 1.7-2.9 2 0 0 0 0-1.4-1-0.3-0.2-0.3-0.2-0.3-0.2-0.9 0.4-2.3 0.7-3.2 0.7-0.9 0-3.8-0.2-4.7 0 0 0 0 0-0.7 0-0.8 0-0.8 0-0.8 0-0.8-0.1-1.7-0.3-2.1-0.3-0.3 0-1.6-0.1-2 0.1-0.4 0.1-3.3 0.2-5.3 0.2-2.1 0-8.5-0.1-9.6-0.2-1.2-0.2-4.4 0.8-4.7 0.8 0 0 0 0-0.2 0-1.6 0.2-1.6 0.2-1.6 0.2-1.6-0.3-3.6-0.4-4.4-0.2-0.8 0.2-3.3-0.4-4-0.3-0.6 0.1-2.9 0.2-3.7 0.1-0.7-0.2-4.5 0.2-6.3 0.2 0 0 0 0-1.7 0q-2.5 0-5 0c-1 0-2.7 0.4-3 0-0.7-0.9-1.8 0.3-2.3-0.5-0.1-0.1-0.7-0.1-1.1-0.1-0.8 0.1-1.9 0.7-2.2 0.4-1.1-0.8-1.1-0.8-1.1-0.8-0.9 0.6-2 0.9-2.6 0.7-0.5-0.3-1.8-0.4-2.4-0.6-0.7-0.2-2.8 0.6-3.3 0.3-0.6-0.3-2.7 0.7-3.3 0.8-0.6 0.2-3-0.8-4.2-1 0 0 0 0-1.3 0.7-0.9 0.6-0.9 0.6-0.9 0.6-1.8-0.3-3.6-0.6-3.9-0.8-0.4-0.1-2.1-0.4-3-0.5-0.9-0.2-4.5 1.2-6.1 1.8 0 0 0 0-1.1-1.6-0.1-0.1-0.9-0.1-1.1 0-1.2 1-2.6-0.6-3.9 0.3-0.4 0.3-1.2 0.4-1.7 0.3-1.1-0.1-2.1-0.5-3.2-0.5-0.9-0.1-0.9-0.1-0.9-0.1-1 0.3-2.3 0.5-2.9 0.4-0.5 0-2.6-0.1-3.1-0.3-0.5-0.2-2.4 0.6-3 0.9-0.6 0.2-2.3-0.8-2.9-0.5-0.6 0.2-3.4 0-4.5-0.2 0 0 0 0-1 0-0.9 0-1.9 0.3-2.9 0.3-1.8 0-1.8 0-1.8 0-2-0.2-5.2-0.4-7.1-0.4 0 0 0 0-1.7 0.5-1.4 0.4-1.4 0.4-1.4 0.4-1.4-0.3-4-0.5-5.7-0.5 0 0 0 0-1.5 0q-2.3 0-4.7 0-2.3 0-4.6 0-2.3 0-4.6 0c-1.6 0-3.1 0-4.7 0.1-0.9 0-0.9 0-0.9 0-1.1 0.2-2.1 0.4-2.3 0.5-0.2 0-1.6-0.2-2.8-0.4-1.2-0.2-7.7 0.3-8.2 0.2-0.5-0.2-1.8-0.1-2.2-0.2-0.5-0.1-2.9 0.4-4.1 0.5 0 0 0 0-1.2 0q-1.7 0-3.5 0-1.9 0-3.9 0-1.7 0-3.4 0-1.8 0-3.5 0-1.8 0-3.5 0c-1.2 0-1.2 0-1.2 0-1.2 0-5 0.1-8.4 0.2-3.3 0.1-13.2 0.8-14.4 1.2 0 0 0 0-0.4-0.2-1-0.8-1-0.8-1-0.8-0.6 0.5-1.9 0.5-2.9 0 0 0 0 0-1.2 0.8-0.6 0.4-2 0-3 0-1.7 0-1.7 0-1.7 0-1.8 0-3.9 0.1-4.7 0.3-0.8 0.2-3.6-0.5-4.4-1 0 0 0 0-0.6 0.8-0.9 1.1-0.9 1.1-0.9 1.1-0.7-0.6-2-1-2.9-0.9-1 0.1-4 0.3-4.8 0.3-0.7-0.1-3.6 0.4-4.9 0.2 0 0 0 0-1.2-0.1-1.3-0.1-1.3-0.1-1.3-0.1-1.4 0-3.2 0.2-3.9 0.4-0.8 0.2-3 0.3-4.1 0.8 0 0 0 0-1.4-0.4-1.1-0.4-2.5-0.1-3.8-0.1-1.3 0-1.3 0-1.3 0-1.4 0-3.2 0.3-3.9 0.6 0 0 0 0-0.7 0-0.6 0-0.6 0-0.6 0-0.8-0.3-3.9-0.5-6.9-0.4-3.1 0.1-11.6 0.9-12.1 1.5 0 0 0 0-0.9-0.9-0.2-0.2-1.5 0.4-2.2 0.4-0.8 0.1-0.8 0.1-0.8 0.1-0.8 0-2.1-0.4-2.9-0.8-0.7-0.5-3.4 0.7-4.2 0.7-0.9 0-3.8 0-4.6 0-0.9 0-3.9 0.2-4.9 0.4 0 0 0 0-0.9 0-0.8 0-1.7-0.4-2.5-0.3-1.6 0.1-1.6 0.1-1.6 0.1-1.7-0.1-4.4-0.1-5.9-0.1-1.6 0-6.1 0.7-7 0.5 0 0 0 0-0.9 0-1.2-0.1-1.2-0.1-1.2-0.1-1.4 0.2-3.1 0.2-3.7 0-0.7-0.2-3.1 0.8-4 0.9-0.9 0.1-4.3 0-5.4 0-1 0-5.6 0-7.8 0.2-2.2 0.1-9.9 0.3-12.2 0.4-2.3 0-8.6 0.1-9.1 0.3-0.5 0.2-2.6-0.3-3.2-0.4-0.6-0.1-2.8 0.7-3.9 0.8-1.1 0-5.4 0-7.2 0-1.8 0-7.8 0-9.5 0.2-1.8 0.1-9.1 0.3-12.5 0.3 0 0 0 0-3.1 0-3.2 0-3.2 0-3.2 0-3.5 0-7.2 0-8.1 0 0 0 0 0-0.7 0.6-0.7 0.6-1.3-1.2-2.2-0.1-0.2 0.2-0.2 0.2-0.2 0.2-0.8-0.1-2-0.1-2.6 0.2-0.7 0.2-3.1-0.6-4.5-0.3 0 0 0 0-1.4 0-10 0-10 0-10 0-11.1 0-21.3-0.2-22.7-0.5 0 0 0 0-1.1 1-0.1 0.1-0.1 0.1-0.1 0.1-0.5 0-1.5-0.2-2.3-0.3-0.8-0.1-3.2-0.1-3.5 0.2-0.3 0.2-1.5-0.3-1.8-0.2-0.4 0.2-2 0.3-2.8 0.2 0 0 0 0-0.7-0.1l-3.5 0.2c-0.8 0-0.8 0-0.8 0-0.8 0-1.7-0.2-1.8-0.4-0.2-0.3-1.8 0.2-2.5 0.2 0 0 0 0-0.7 0-0.3-0.1-0.8-0.4-1-0.4-2.6 1.2-2.6 1.2-2.6 1.2-3.1-0.3-8.1-0.6-11.2-0.6 0 0 0 0-2.9 0q-2.7 0-5.4 0c-1.7 0-1.7 0-1.7 0-1.8 0.1-4 0-4.9-0.1-0.8-0.2-4 1.1-5.3 1.6 0 0 0 0-0.9-1.3-0.2-0.2-0.9-0.3-1.1-0.1-1.3 0.7-1.3 0.7-1.3 0.7-1.4-0.3-3.8-0.4-5.3-0.3 0 0 0 0-1.3 0.1-1.6 0.2-3.1 0.1-4.7 0.1q-2.1 0-4.2 0-2.4 0-4.7 0-2.1 0-4.2 0-2.3 0-4.7 0c-1.4 0-1.4 0-1.4 0-1.5 0-3.8-0.1-5-0.3-1.1-0.2-4.5 0.7-4.9 0.6-0.4-0.2-3.1-0.4-4.9-0.5-1.8 0-7.1 0.7-7.7 0.7-0.7 0-2.7-0.1-3.1-0.3-0.5-0.3-2.6 0.4-3.2 0.5-0.6 0-2.6-0.6-3.4-0.4-0.8 0.2-3.5 0.4-4.3 0.5-0.7 0-3.1-0.6-3.7-0.5-0.5 0.1-3.2 0.3-4.6 0.3-1.4 0-7.2-0.2-9.7-0.4 0 0 0 0-2.1 1-0.4 0.2-0.4 0.2-0.4 0.2-0.6-0.1-2.1-0.2-3.4-0.1 0 0 0 0-0.8-0.4-1.3-0.7-1.3-0.7-1.3-0.7-0.9 0.5-2.4 0.8-3.2 0.7 0 0 0 0-1 0.3-1 0.3-1 0.3-1 0.3-1.3-0.2-2.9-0.2-3.5-0.1-0.5 0.1-4.7-0.8-8.2-1 0 0 0 0-3 1.4-1 0.5-1 0.5-1 0.5-1.2-0.3-2.8-0.4-3.6-0.4-0.8 0-3.4 0-4.2 0.1-0.8 0-2.6-0.3-2.9-0.2-0.3 0.1-2.1 0.1-3.1 0.1-0.9 0-4.2-0.1-5.1-0.2-0.8 0-3.2 0.2-3.9 0-0.7-0.2-2.3 0.7-2.5 0.5-0.2-0.2-1.1-0.6-1.4-0.4-0.2 0.3-1.8 0.7-2.7 0.7 0 0 0 0-0.7 0q-2.2 0-4.3 0c-0.8 0-0.8 0-0.8 0-0.3-0.5-0.7-0.9-0.9-0.9-0.1 0-0.5 0.2-0.6 0.5 0 0.2-2 0.2-3.4 0.1 0 0 0 0-1.2 0-1-0.1-1-0.1-1-0.1-1.1 0-1.8-0.1-1.6-0.1 0.2-0.1 0.6-0.6 0.3-1-0.3-0.3-0.5-1.7-0.4-2.2 0.2-0.5 0.3-1.8-0.2-1.8-0.4 0-1.5 0.1-1.4 0.3 0.1 0.2 0.1 0.7-0.1 0.7-0.2 0.1-0.9-0.2-1.3-0.6-0.5-0.3-2.5-1-2.9-1.4-0.4-0.3-1.1-1.9-0.3-2 0.8-0.2 1.7 1.8 2.2 2.2 0 0 0 0 0.7 0 0.2 0 0.5-0.3 0.6-0.6 0.1-0.1 0.1-0.1 0.1-0.1-0.2-0.2-0.4-0.4-0.6-0.3-0.2 0.1-0.9 0.1-0.9-0.2 0-0.3 0.7-1.2 1.5-1.4 0.8-0.2 3-1.1 3-1.5 0-0.3 0.3-1.5 0.7-1.1 0.3 0.4 1.7 1.1 2.2 0.6 0 0 0 0 0.2-0.5 0.2-0.6 0.4-0.5 0.9-0.2 0.4 0.2 0.4 0.2 0.4 0.2 0.6 0 2.1 0.1 3.4 0.1 1.3 0 4.4-1 4.1-1.2-0.3-0.1 0.7-0.8 2.8-1.3 0 0 0 0 2.3 0.8 0.4 0.2 0.9 0.3 1.3 0.4 0.4 0 0.4 0 0.4 0 0.5-0.1 0.7-0.6 0.4-1-0.4-0.3-0.9-1.4-0.5-1.5 0 0 0 0 0.3 0 0.4 0.1 0.9 0.5 1.1 0.4 1.3-0.6 1.3-0.6 1.3-0.6 0.8 0.7 1.7 1.3 2 1.4 0.3 0 1.6-0.1 1.3-0.3-0.3-0.3 0-1 0.6-1.5 0.7-0.4 3-0.5 3.5-0.5 0.4 0.1 2.2 0 2.8 0 0.7 0.1 2.6 0 3.5 0.2 0.9 0.3 2.7-1.4 3.2-1.3 0.5 0 1.4 1 1.5 1.1 0 0.1 0.4 0.2 0.5 0 0 0 0 0 0-0.2 0.1-1.7 0.1-1.7 0.1-1.7 1.5 0.3 3.5 0.8 4.4 1.2 0 0 0 0 1.2-0.5 1.1-0.6 1.1-0.6 1.1-0.6 1.5-0.1 3.3-0.4 3.9-0.7 0.6-0.2 2.1 0.8 2.4 0.7 0 0 0 0 0.1-0.2 0.2-0.2 0.2-0.2 0.2-0.2 0.3-0.1 1.2-0.1 2 0.1 0 0 0 0 0.7 0 1 0 1 0 1 0 1.1-0.2 2.4-0.5 2.9-0.6 0.4 0 2.4-0.1 3.3-0.2 0.8-0.1 3.8-0.3 4.8-0.2 0.9 0.2 3.8-0.7 4.7-0.8 0.9-0.1 3.5 0.3 3.9 0.1 0.4-0.3 2.1 0.2 2.5 0 0.4-0.3 1.8 0.2 2.1 0 0.2-0.2 1.1-0.6 1.4-0.3 0.3 0.2 1.5 0.7 2 0.5 0.5-0.1 2.6-0.3 3.4-0.2 0.8 0.1 3.2-0.2 3.8-0.1 0.6 0 2.5-0.2 3-0.4 0.4-0.1 2.2-0.3 3.1-0.5 0.8-0.2 3.3 0.9 3.8 1.1 0.5 0.2 1.2-1.2 1.5-1.3 0 0 0 0 0.1 0.1 1.2 0.5 1.2 0.5 1.2 0.5 1.2-0.4 2.3-0.7 2.5-0.8 0 0 0 0 0.1 0 0.6 0.2 1.4 0.7 1.9 0.6 0.7-0.2 0.7-0.2 0.7-0.2 0.6 0.1 1.3 0.1 1.7-0.2 0.3-0.2 1.9 0 2.7 0.3 0 0 0 0 0.7 0.1 0.4 0.1 0.4 0.1 0.4 0.1 0.6-0.1 1.6-0.2 2.4-0.3 0.7 0 3.4 0 4.4 0.5 0 0 0 0 1.1-0.8 0.7-0.5 2 0.3 2.9-0.5 0.1-0.1 0.7 0.3 1.1 0.4 1.7 0.4 1.7 0.4 1.7 0.4 1.9-0.2 3.8-0.6 4.2-0.9 0.4-0.3 2 0.2 2.3-0.1 0.4-0.4 1.7 0.5 2 0.6 0.2 0 1.2 0.1 2 0.3 0.8 0.1 3.6-0.6 5-0.7 0 0 0 0 1 0.8 0.1 0.2 0.1 0.2 0.1 0.2 0.5 0 1.1-0.2 1.5-0.5 0.3-0.3 1.2-0.6 1.8-0.7 0.6-0.1 3.4 0.1 4.9 0.4 0 0 0 0 1.3-1 0.3-0.3 1.3 0.1 1.8-0.1 1.2-0.4 1.2-0.4 1.2-0.4 1 0.4 2.2 0.9 2.7 0.9 0.4 0.1 1.9-0.3 2.5-0.1 0 0 0 0 0.5 0.3 0.7 0.3 1-1.2 1.9-0.2 0 0 0.9-0.4 1.4-0.4 0.8 0 0.8 0 0.8 0 0.7 0.1 1.6 0.3 1.9 0.4 0.3 0.1 2-0.1 3 0 1 0 3.7-0.9 4-0.8 0.3 0.1 1.6 0.7 2.4 1.2 0 0 0 0 0.7-0.9 1.1-1.5 1.1-1.5 1.1-1.5 1.6 0.6 3.6 1.3 4.5 1.4 0.9 0.2 3.9-0.5 4.6-0.8 0.7-0.2 2.6-0.2 3.3-0.4 0 0 0 0 0.5 0.3 0.5 0.3 0.5 0.3 0.5 0.3 0.4 0.4 1.2 0.4 1.8 0 0 0 0 0 0.4-0.4 0.1-0.1 0.1-0.1 0.1-0.1 0.3 0 0.8 0.1 1.1 0.3 0.3 0.2 1.6 0.6 1.9 0.4 0.4-0.3 3.3-0.3 3.9-0.1 0.6 0.1 1.9 0 2.5 0.2 0.6 0.1 1.8-0.2 2.3-0.2 0.4 0.1 2.1-0.1 2.7-0.4 0.6-0.3 3.1 0.5 4.3 0.7 0 0 0 0 0.8-0.9 0.1-0.1 0.5 0 0.7 0 1.6 0.2 1.6 0.2 1.6 0.2 1.7 0.2 3.8 0 4.6-0.3 0.8-0.4 3.8 0.6 4.8 0.6 0 0 0 0 0.8-0.2 0.8-0.2 0.8-0.2 0.8-0.2 0.8 0 2.2-0.1 3.1-0.3 0.8-0.2 3 0.8 3.3 0.9 0 0 0 0 0.2-0.1 2.3-0.8 2.3-0.8 2.3-0.8 2.6 0.1 5.3 0.2 5.9 0.2 0.7-0.1 3.1 0.1 4.2 0.7 0 0 0 0 0.9-1.3 0.4-0.5 0.4-0.5 0.4-0.5 1.1 0.2 2.2 0.7 2.5 1.1 0.3 0.3 2-0.6 2.4-0.7 0.5 0 1.9 0.6 2.3 0.7 0 0 0 0 0.2-0.2 1.1-0.8 1.1-0.8 1.1-0.8 1.1 0.5 2.5 1 3.3 1.1 0.7 0.1 2.8-0.4 3.3-0.6 0.5-0.3 2.3 0.2 2.6 0.1 0.3 0 1.2-0.5 1.5-0.7 0.3-0.3 1.5 0.1 1.7-0.2 0 0 0 0 0.9 0.4 1 0.4 1 0.4 1 0.4 1.4-0.3 3.3-0.6 4.2-0.8 0.9-0.2 3.4 0.3 3.8 0.2 0.4 0 2 0.2 2.8 0.4 0 0 0 0 0.7 0 0.3 0 0.3 0 0.3 0 0.4-0.3 0.8-0.4 0.8 0 0.1 0.4 0.9 1.3 1.5 1 0.5-0.3 2.3-1.1 2.8-1.3 0.4-0.2 3.6-0.2 4.2-0.1 0.6 0.1 2.4-0.7 3.1-0.8 0.7 0 3.2 0.1 3.8 0.3 0.6 0.2 3.7-0.1 5.3-0.1 0 0 0 0 1-0.5 0.9-0.5 0.9-0.5 0.9-0.5 0.5 0.4 1.2 0.9 1.5 1.1 0.3 0.2 2.7-0.2 3.9-0.5 1.2-0.4 5-0.3 5.6-0.1 0.5 0.1 2.4 0.1 3.1 0 0.7-0.1 3.3-0.3 4-0.2 0.7 0 2.7-0.5 3.2-0.6 0.4-0.2 1.5 0.4 1.7 0.5 0 0 0 0 0.1 0 0.6-0.2 1.3-0.6 2-0.6 0.6-0.1 1.2 0.4 1.8 0.3 0.9-0.2 0.9-0.2 0.9-0.2 1 0 2.3-0.2 3-0.3 0.6-0.2 2.1 0.5 2.2 0.2 0 0 0 0 0.2-0.2 0.2-0.1 0.2-0.1 0.2-0.1 0.2-0.1 1.3 0 2.2 0.2 1 0.1 5.4-0.4 6.1-0.2 0 0 0 0 0.6 0.2 0.7 0.4 0.7 0.4 0.7 0.4 0.6-0.4 1.7-0.5 2.4-0.3 0 0 0 0 0.5-0.1 0.9-0.3 0.9-0.3 0.9-0.3 0.8-0.5 1.9-0.8 2.5-0.6 0.5 0.2 2.3 0.1 3-0.1 0.6-0.2 1.9-0.1 2.4-0.2 0.5-0.1 2 0.1 2.5 0.3 0.4 0.1 1.8-0.2 1.9 0 0.2 0.2 1.3 0.6 2.1 0.4 0.8-0.2 5.5-0.1 7.1-0.2 1.6-0.1 4.6-0.9 5.3-1 0 0 0 0 0.8 0.2 1.5 0.3 1.5 0.3 1.5 0.3 1.8 0 3.9 0 4.6 0 0 0 0 0 0.7-0.3 0.9-0.3 0.9-0.3 0.9-0.3 1.2 0 2.6 0.1 3.2 0.2 0.6 0.1 2.6-0.2 3.1-0.1 0 0 0 0 0.5 0.1 0.4 0.1 0.4 0.1 0.4 0.1 0.5 0.1 2.1 0 3.5-0.2 0 0 0 0 1.4-0.2 1.1-0.1 1.1-0.1 1.1-0.1 1.2-0.2 2.4-0.3 2.5-0.3 0.1 0 0.9 0.2 1.5 0.3 0.7 0.1 2.9 0.2 3.5 0.4 0.6 0.2 2 0.7 2.2 0.4 0.2-0.3 1.2-0.6 1.6-0.6 0.4 0 2-0.7 2.8-0.8 0.9 0 4.3-0.1 5.7-0.1 1.4-0.1 5.5 0.3 6.1 0.4 0.7 0.1 2.5-0.6 2.9-0.5 0.4 0.1 1.2 0.1 1.5 0.2 0.2 0.1 2.2-0.3 3.9-0.6 0 0 0 0 1.5 0.1 1.1 0.1 1.1 0.1 1.1 0.1 0.9-0.4 2.4-0.5 3.2-0.2 0 0 0 0 0.9 0.1 0.8 0 0.8 0 0.8 0 0.9-0.3 2.1-0.2 2.7 0.2 0.6 0.4 3.2-1 4.6-1.2 0 0 0 0 1.2 0.7 0.1 0.1 0.5-0.1 0.6-0.2 0.2-0.2 0.2-0.2 0.2-0.2 0.1-0.3 0.6-0.7 1.1-0.8 0.4-0.2 2 0.5 2.6 0.6 0.6 0.2 2.9 0.1 3.4 0.2 0.6 0.2 1.9-0.1 2.3-0.1 0.4-0.1 2.4 0.2 3.3 0.3 0.8 0.1 3.6-0.5 4.6-0.3 0 0 0 0 0.3-0.2 1.2-0.9 1.6 0.6 2.3 0.3 0.8-0.2 0.8-0.2 0.8-0.2 0.7-0.5 1.8-1 2.4-1.1 0.7-0.2 3 0.1 3.7 0.2 0.6 0.1 2.8 0.1 3.4-0.1 0.6-0.2 2.7 0.2 3.3 0.4 0.6 0.2 2.7 0 3.9-0.2 0 0 0 0 1.2 0.4 0.8 0.3 2 0.2 2.7-0.7l2.5-0.3c2.5 0.8 5.2 0.6 7.7 0.1 1-0.2 1.9 1.1 2.8-0.2 0.3-0.4 2-0.2 3-0.1 0.5 0 0.5 0 0.5 0 0.6 0.3 1.3 0.4 1.6 0.3 0.3-0.1 1-0.4 1.6-0.7 0.6-0.3 2.1 0.8 2.7 0.7 0.5 0 1.8-0.5 2.1-0.6 0.2-0.1 1.4 0.5 2 0.8 0 0 0 0 0.5 0 0.5 0 1.1-0.4 1.6-0.5 0.9-0.3 0.9-0.3 0.9-0.3 1 0.3 2.1 0.7 2.3 0.7 0.3 0.1 1-0.1 1.4-0.3 0.3-0.2 1.5 0.2 1.8 0.2 0 0 0 0 0.3-0.2 0.3-0.2 0.6-0.6 0.8-0.6 0.7 0.1 1.3 0.5 1.9 0.4 0.8 0 1.6-0.4 2.4-0.5 0.7-0.1 0.7-0.1 0.7-0.1 0.8 0.1 2 0.1 2.6-0.2 0 0 0 0 0.6 0.5 0.4 0.2 0.4 0.2 0.4 0.2 0.7 0.1 2.1 0.2 3.1 0.3 1 0.1 4-0.5 4.7-0.2 0.6 0.2 4.2-0.2 6.6 0.3 0 0 0 0 2.1-0.8 0.7-0.3 1.7-0.3 2.3 0 1 0.4 1 0.4 1 0.4 1-0.2 2.3-0.7 2.9-1 0 0 0 0 0.6 0 0.5 0 1 0.3 1.6 0.6 0.2 0.1 0.2 0.1 0.2 0.1 0.3 0.2 2.1 0.5 4 0.6 1.8 0.2 6.6-1.3 6.7-1.2 0.1 0.1 0.3 0.3 0.5 0.4 0.2 0.1 1.6 0 2.5-0.1 0.8-0.2 3.7-0.4 4.5-0.3 0.8 0.1 3.4 0.9 4 1.1 0.6 0.3 2.7-0.4 3.2 0 0.5 0.3 2.8-0.9 3.9-1.3 0 0 0 0 1.2 0.9 0.5 0.4 0.5 0.4 0.5 0.4 1.5-0.3 3.9-0.7 5.3-0.7 0 0 0 0 1.3 0.1 1.4 0 1.4 0 1.4 0 1.4 0.3 3.3 0.1 4.3-0.4 0 0 0 0 1.2 0.8 1 0.7 2.1-1.2 3.4-0.3 1 0.8 2 0.6 2.9-0.1 0.1-0.1 0.3-0.1 0.4 0 0.9 0.3 0.9 0.3 0.9 0.3 0.9 0.1 2 0.2 2.4 0.3 0.4 0.2 2.1-0.4 2.9-0.6 0 0 0 0 0.7 0 1.5 0.1 1.5 0.1 1.5 0.1 1.6-0.1 4.3-0.1 6-0.2 0 0 0 0 1.6 0.1 0.9 0 0.9 0 0.9 0 1.1 0.2 2.4 0.5 2.9 0.6 0.6 0.1 1.9-0.3 2.3-0.4 0.4-0.2 1.7 0.4 2.1 0.4 0 0 0 0 0.1 0 0.8-1.2 0.8-1.2 0.8-1.2 0.9 0.6 3.5 1 4 1.3z"/>
		</g>
	</g>
</svg>