<svg version="1.2" xmlns="http://www.w3.org/2000/svg" viewBox="0 0 500 190" width="500" height="190">
	<title>11701402_4783114-svg</title>
	<style>
		.s0 { fill: #231f33 } 
	</style>
	<g id="BACKGROUND_1_">
	</g>
	<g id="OBJECTS">
		<g id="Layer">
		</g>
		<g id="Layer">
		</g>
		<filter id="f0">
			<feFlood flood-color="#000000" flood-opacity="1" />
			<feBlend mode="normal" in2="SourceGraphic"/>
			<feComposite in2="SourceAlpha" operator="in" />
		</filter>
		<g id="Layer" filter="url(#f0)">
			<path id="Layer" class="s0" d="m294.1 168.7q0 0 0 0 0 0.1-0.1 0.1z"/>
			<path id="Layer" class="s0" d="m452 132.9q-0.1 0.1-0.1 0.1 0 0 0 0z"/>
			<path id="Layer" class="s0" d="m214.6 174.2q0.1-0.1 0.1-0.2-0.1 0-0.2 0z"/>
			<path id="Layer" fill-rule="evenodd" class="s0" d="m434.3 81.3c1.2 0.4 0.9 1.6 1 2.5 1.2 0 2.2 0.6 3.2 1.2 1 0.6 1.8-1.5 3.1-0.3 0.9 0.8 2.2 0.6 3.3-0.2 0.1-0.2 0.4-0.4 0.5-0.4 2.6 2.1 5.7 0.7 8.5 1.1 1.2 0.2 2.3 0 3.2-1 1.2 1 2.4 1.2 3.8 1.1 1.2-0.2 2.4 0 3.5-0.1 2.2-0.2 4 1.6 6.1 1.7 0.1 0 0.3 0.7 0.3 1.1-0.1 0.4-0.4 0.9-0.6 1-0.9 0.2-1.9 0.2-2.8 0.2-0.1 0.7 0 1.4-0.2 1.8-0.3 0.5-1 0.7-1.6 0.7-2.1 0.2-4.3 0.1-6.5 0.2-0.3 0-0.7 0.3-1 0.5 0.3 0.6 0.8 0.7 1.3 0.8 2 0.1 3.6 1.2 5.4 1.9 1.1 0.4 2.8 0.8 2.8 2.8 1.5 0.4 2.7 2.8 4.7 1.1 0.1-0.2 0.4-0.3 0.5-0.3 2.2 2.4 5.4-0.1 7.8 1.9 0.8 0.6 1.5-1.2 2.5 0 0.5 0.6 1.4 0.7 2 1.2 0.9 0.7 2.2-1.1 2.9 0.6 0.1 0.1 0.4 0.4 0.3 0.5-0.1 0.3-0.2 0.6-0.5 0.8-0.1 0.1-0.3 0.1-0.5 0.1-5.2 0-10.3 0-15.4-0.1-0.8 0-1.5-0.4-2.3-0.6-0.5-0.2-1.2-0.6-1.6-0.4-2.5 1.9-5.4 0.7-8 1.1-0.4 0.1-0.8 0-1.2 0.1-0.6 0.2-1 0.7-0.9 1.4q0.1 0.3 0.2 0.6c0.2 0.4 0.5 0.2 0.9-0.1 0.5-0.3 1.1-0.6 1.6-0.6 0.5 0 0.6 0.4 0.4 0.9-0.2 0.4-1 0.8-0.3 1.6 0.6 0.6 0.8 1.4 0.7 2.3 0 1-0.6 1.3-1.4 1.7-1.4 0.6-2.4-1.8-3.7-0.4-3-1.7-6.5-0.4-9.6-2-1.4-0.8-3.5 0.3-5-1.4-0.1-0.1-0.4-0.1-0.5 0-1.8 1-3.4 1.5-5.4 0.1-1.6-1.2-3.9 0.6-5.6-1.1-0.3-0.3-0.7 0-0.8 0.5 0 0.4 0.1 1 0.3 1.2 1 0.6 2.2 0.8 2.8 2.1 0.2 0.5 0.2 0.7-0.3 1-0.5 0.2-0.9 0.5-1.4 0.8 0.4 0.2 0.7 0.5 1 0.5 1.4 0 1.9 0.7 2.6 2 1 1.7 0.1 2.2-0.7 3.1-0.1 0.2-0.2 0.4-0.3 0.5-0.5 0.4-0.4 0.8 0.2 0.9 1.3 0.3 2.6 0.6 3.8 1.4 0.3 0.2 1-0.4 1.6-0.6 0.5-0.1 1.3-0.6 1.6-0.3 1.7 1.6 3.7 0.8 5.7 1 1.9 0.2 3.9 0.2 5.9 0.1 3-0.2 5.8 0.5 7.9 3 0.8 1 1.8 0.7 2.8 1 0.3 0.1 0.7 0.5 0.8 0.8 0.1 0.6-0.1 1.3-0.7 1.6-1.6 0.7-3.1 1.7-5 1.5-2.7-0.4-5.5 0.9-8-1.2-0.1-0.1-0.4-0.1-0.6 0-2 1.6-3.9 1-6 0-1-0.4-2.3-0.3-3.4 0.5-1.1 0.8-2.3 1.4-3.5 2 0 1 0.8 1.4 1.3 2 0.9 1 1.3-0.6 2-0.6 0.7 0 1.5-0.2 2.3-0.1 0.5 0.1 1.1 0.3 1.6 0.7 1.1 1 1.5-1 2.5-0.5 0.9 0.4 1.5 1.5 2.6 1.1 0.8-0.3 1.4-1 2.1-1.1 0.6-0.2 0.9 0.4 1 1.1-0.4 0.2-0.8 0.3-0.9 0.6-0.4 1.2-0.6 2.8-2.1 1-1.6 1.5-3 1.1-4.8 0-1.1-0.7-2.7-0.9-3 1.5-0.1 0.7-0.7 0.9-1.4 1-0.7 0.1-1.5 0.3-2.2 0.7-0.9 0.6-1.3-0.9-2-0.6-3.8 2-7.8 0.7-11.6 1.1-0.9 0.1-1.9 1-2.6 0.8-0.9-0.4-1.9-0.5-2.8-0.9-1.8-1-3.6-1.7-5.4 0q-2.6 0.1-5.3 0.1c-1.8 0.1-3.6-0.3-5.1 1.1-0.3 0.2-0.9 0.3-1.1 0.1-1.7-1.8-3.7-1-5.7-1.1-0.8-0.1-1.5 0.1-2.2 0.7-0.6 0.6-1.4 0.7-2.1 0.1-1.6-1.4-3.4-0.7-5.1-0.7-0.3 0-0.6 0.4-0.9 0.7-0.3 0.3 0.1 1.5 0.5 1.7 0.9 0.5 1.8 1.1 2.7 1.3 1.4 0.2 2.8 0 4.1 0 1.3-1.7 2.4 0.1 3.6 0.1 1.4-0.1 2.8 0 4.1-0.5 0.8-0.3 1.3-0.3 2 0.2 0.9 0.5 2 0.6 2.7-0.3 1.5-1.7 2.7-2 4.1 0.1 0.2 0.3 1.1 0.3 1.6 0.2 1.2-0.1 3.9-0.3 4.5 0.1 1.1 0.5 2.3 0.1 3.4 0.9 0.9 0.8 1.6-1 2.6-0.7 0.4 0.1 0.8-0.1 1.2 0 1.6 0 3.4-0.4 4.6 0.3 1.9 1.1 3.3-0.7 5-0.3 1.5 0.3 3.1-0.1 4.7 0.1 0.9 0 1.8 0.8 2.6 0.7 0.9-0.1 1.9-0.7 2.6-1.3 0.9-0.8 1.8-0.9 2.8-0.8 1.3 0.1 3-0.3 4 0.4 1.4 1.1 2.1-0.6 3.2-0.4 0.3 0 0.9-0.2 1.1 0 1.3 1.2 2.9 1.3 4.4 1.4 1.4 0.1 2.5 1.2 3.9 1.5 1.2 0.2 2.5 1 3.8 1.1 2.2 0.3 3.9 1.3 4.9 3.8 0.5 1.2 1.6 2 2.9 0.9 0.3-0.2 0.8-0.4 0.9-0.3 1.1 1 2.2 0.9 3.4 0.9 1.8-0.1 3.5-0.1 5 1.2 0.2 0.1 0.8-0.1 1.1-0.3 0.6-0.4 1.2-1.2 1.6 0.3 0.1 0.6 0.5 1.2 0.8 1.7 0.3 0.3 0.6 0.5 1 0.7 0.1-0.3 0.4-0.6 0.5-1 0.1-0.6 0.1-1.3 0.3-1.9 0.1-0.3 0.5-0.5 0.9-0.6 0.7-0.1 1.2 0.5 1 1.2-0.4 1.4-0.3 2.5 0.1 3.9 0.7 2-1 3.5-1.8 5.2-0.3 0.6-2.5-0.2-2.8-1.1-0.4-1.1-1.1-1.5-1.8-1.1-1.9 1.1-3.7 2.4-5.5 3.6-1.7-1.4-3.6-1.2-5.6-1.2-1.2 0.1-2.3-0.1-3.2 1.1-1.8-2-3.5-0.5-5.4 0.1-1.6 0.5-3.5 0.3-5.2 0.4-0.2 0-0.3 0.3-0.4 0.4 0.1 0.1 0.3 0.3 0.4 0.4 0.4 0.1 0.8 0.2 1.2 0.2 3.1-0.6 4 2.1 4.9 4.5 0.2 0.7-1.2 1.5-0.1 2.7 0.2 0.3 0.8 0 0.1 0.3-1.4 0.6-2.6 2-4.3 1.9-1.5-0.1-3.1 0-4.7 0-0.6 0-1.2-0.1-1.8 0.1-1 0.5-2.1 1-3 1.8-1.2 1-1.6-0.7-2.5-0.6-1.2 0.1-2.4-0.2-3.6-0.1-1.7 0.3-3.5-0.4-5.1 1-0.7 0.6-1.5 0.1-2.1-0.4-0.2-0.1-0.4-0.3-0.5-0.3-1.3-0.5-2.1 1.3-3.3 0.9-0.9-0.2-1.6-1.6-2.6-0.8-1 0.9-1.8-0.2-2.5-0.1-1.5 0.2-2.8 0.5-4.3-0.1-1.4-0.5-3.3-0.6-4.7 0.1-1.6 0.8-2.7 1.2-4.2-0.1-0.5-0.4-1.8-0.2-2.2 0.3-1.1 1.3-2.7-1.1-3.5 0.8-1.5 0.3-2.6-2.2-4.3-0.5-1.1 1.1-2.7 0.5-4 0.5-2.8 0-5.5 0.3-7.8 2.2-0.5 0.3-1.4 0.5-1.6 0.3-1.5-1.6-3.4-1-5.1-1.1-0.9 0-1.3-0.9-2-1-0.6-0.1-1.1 1.2-1.9 0.2-0.7-0.7-1.4-0.6-2.1 0-0.9 0.8-1.3 0.4-1.4-0.8-0.1-0.2-0.6-0.7-0.7-0.6-1.9 1.6-4.2 0.6-6.3 0.9-1.5 0.2-2.6-0.6-3.5-1.8-0.8-1-1.3-0.5-1.4 0.6-0.1 0.3-0.6 0.8-0.6 0.8-3.3-2.1-7-0.3-10.4-1-0.6-0.2-0.8-1-0.7-1.6 0.1-0.6 0.4-0.9 0.7-0.5 1.1 1.2 1.7 0.1 2.3-0.7 0.5-0.7 0.6-2.7 0.2-3.1-0.3-0.2-0.7-0.6-1-0.5-1.4 0.6-2.5-2.1-4.2-0.4-0.9 1-2.3-1.8-3.6 0-0.2 0.3-1.4 0.4-1.7 0.1-2.6-2.7-5.1 0.3-7.6 0.2-0.8 2-2.5-0.8-3.5 0.8-0.1 0.1-1.2-0.6-1.9-0.9-0.7-0.3-1.4-0.9-2-0.8-0.7 0.2-1.3 0.9-2.1 0.9-4.4 0-8.7 0-13.1 0-1.1 0-2.3-0.2-3.3 0.8-0.5 0.5-1 0.4-1.6 0.1-3.2-1.5-6.4-1.7-9.6 0.2-0.5 0.3-1.7 0.3-2.2-0.2-1.7-1.7-2.8-0.6-3.9 0.8-0.9 1-1.1 0.3-1.5-0.6-0.6-1.6-1.1-1.5-2.2 0.1-0.4 0-0.7 0-1.1 0.1-1.1 0.4-1.6 1.4-1 2.1 1 1.2 1.8 2.5 3.2 3.1-0.2 0.4-0.3 0.9-0.5 1.1-0.5 0.2-1.1 0.3-1.7 0.3-1.5 0-3.1 0-4.4-1-1.5 1.6-3.4 0.8-5.1 0.9-1.5 0.2-3.1 0-4.7 0-1.6 0.1-3.1 0.2-4.5-1-0.4-0.4-1.7-0.4-2.1 0.1-1.2 1.2-2.5 1.1-3.9 1.1-1-0.1-2-0.2-2.8 0.6-0.8 0.9-1.4-0.9-1.9-0.3-1 1.2-1.7-0.2-2.6 0.1-1.7 0.6-3.3-1-5-0.4-1 0.4-1.9 1.3-3 0.2-0.8 1.2-1.8-0.2-2.5 0.2-0.8 0.4-1.3 0.3-2-0.1-0.7-0.3-1.6-0.5-2.3-0.3-1.1 0.4-1.9 1.7-3.2 0.6-0.8-0.8-1.9 0.8-3-0.5-0.9-1-1.9 1.5-3 0.4-1-1-1.8-0.3-2.7 0.3-0.5 0.4-1.2 0.5-1.6 0-1-1.4-2.7-0.3-3.8-1.4-0.4-0.5-0.7-0.5-1.3-0.2-2.7 1.1-5.2 1.1-7.9-0.4-1.4-0.8-3.3-0.3-5-0.3 0.2-0.5 0.4-1.1 0.7-1.5 0.4-0.6 0.4-1.3 0.1-1.8-0.3-0.8-1-0.6-1.5-0.4q-1.6 0.7-3 1.7c-1.3 0.9-1-0.3-1.3-1-0.4-1-1.1-1-1.9-0.9-1 0.2-2.4-0.5-2.7 1.2-1 0.1-1.9-1.8-3-0.1-0.1 0.2-0.9 0.3-1 0.1-1.5-1.6-3.3-1.2-5.1-1.2-3.5 0-7.1 0.3-10.6 0-2.1-0.1-3.6 1.6-5.6 1.4-1.7-0.2-3.6-0.6-5.1 1.1-0.1 0.1-0.4 0.1-0.5 0-1.5-0.4-2.8-2-4.4-0.7-1.6 1.3-3.4 0.6-5.1 0.8-1.6 0.1-3.2 0.4-4.7 0-1.5-0.3-2.6 1.8-4.3 0.3-1.1-0.9-2.2 1.4-3.8 1.1-1.5-0.3-3.1 0-4.7 0q-2.1 0-4.2 0c-1.5 0-3.1 0.1-4.7 0-1.1 0-1.8 0.6-2.7 1-0.4 0.1-1.1-0.8-2-0.2-0.8 0.5-2.2 0.1-2.7 0.8-1 1.4-2-0.5-2.9 0.3-0.8 0.8-1.8 0.7-2.7 0.7-1.2 0.1-2.5-0.3-3.5 0.2-1.2 0.5-2 0.9-3.1 0-1.6 0.5-3.1 1.5-4.6 2.4-0.7 0.3-1.4 0.3-1.5 1.3q5.7 0 11.4 0.1c0.9 0 1.5 0.3 1.5 1.3q-1 0.2-1.1 1.3c-0.4 0.2-0.7 0.3-1 0.6-0.9 0.8-1.3 0.4-1.5-0.7-0.1-0.7-0.4-1.2-1.1-0.5-0.8 0.9-1.3-0.5-1.9-0.4-0.5 0.1-0.9 0.9-1.5 1-1.2 0-2.1 0.4-3.2 1.3-2.6 2.3-3.6 2.6-6.9 2.7-2.1 0-4.3-0.1-6.5 0.1-2.1 0.2-3.8-0.3-5.2-2.2-0.6-0.8-1.4 1.2-1.8 0.2-1.4-3.5-4-2.3-5.9-1.4-2.1 0.9-4.3 1.7-6.4 2.8-1.1 0.5-2.2 0.7-3.3 0-0.3-0.3-0.6-0.7-1-0.7-2 0.1-3.3-0.8-3.9-3-0.6-1.9-1.9-2.5-3.8-2.4-1.7 0.1-3.5 0.4-5.1-1-0.5-0.4-1.7-0.4-2.2 0-1.4 1.2-3 1.2-4.5 0.9-2.5-0.4-4.6 0.7-6.7 2-2.7 1.6-5.4 3.2-8.5 4.1-1.2 0.3-2.4-0.5-3.6 0.5-0.2 0.2-0.8 0.1-1.1 0-0.9-0.4-1.9-0.7-2.7-1.3-1.3-1.1-2.7-1.3-4.4-1.3-2.1 0-4-1.2-6-2.1-0.4-0.1-0.9-1.1-0.8-1.4 0.4-0.8 0.9-1.2-0.4-1.8-3-1.4-5.9-3-8.5-5.3q-1.4-1.2-2.7-2.5c-0.5-0.5-0.5-1.2 0.3-1.3 2.2-0.5 2.6-2.3 2.6-4.5 0-1.2-0.1-2.1-1.4-2.3-0.6-0.1-0.9-0.7-0.9-1.5 0-0.9 0-1.8-0.1-2.6-0.1-0.7-0.6-0.6-1.2-0.5-1.8 0-3.2-0.9-4.3-2.5-0.4-0.5-0.4-1.2 0-1.7 0.8-1 1.7-2 2.5-2.9 0.9-1.1 1.1-2.5 0.4-3.6-0.7-1.2-1-2.4-1-3.7 0-4 0.1-8 0.1-11.9 0-1.8 1.4-3.1 1.1-5.1-0.2-1.7-0.4-3.7 0.2-5.2 0.7-1.6-0.2-3.2 0.8-4.6 0.3-0.5 0.1-1.3 0.2-2 0-2.4-0.5-3.1-3.1-3.8-1.4-0.4-1.1-0.3-0.7-1.9 0.5-2.5 2.8-2.9 3.6-4.6 0.8-1.7 0-3.9 1-5.7 1.1-2.1 1.7-4.4 1.6-6.9-0.1-2.1 1.5-3.9 1.2-6.3-0.3-2 1.2-3.5 1.9-5.3 0.5-1 0.2-2.2 0.6-3.1 0.4-0.9 1.3-1.6 1.9-2.4 0.8-1.1 0-2.8 1.1-3.7 0.9-0.8 2-1.2 2.8-2.1 0.7-0.7 1-1.9 1.5-2.7 0.6-0.9 1.2-1.8 2.3-1.8 0.7-0.1 1.9 0.4 1.8-0.7-0.1-0.9-0.9-1.8-1.9-2 0.1-1.1 1.2-1.5 1.4-1.1 1.1 1.8 2.5-0.6 3.5 0.6 0.3 0.4 0.8 0.2 0.8-0.3 0.2-1.5 1-1.8 2.1-1.7 2.2 0.2 4.2-0.5 6-1.9 0.8-0.7 1.3-0.3 2 0.1 0.5 0.4 1.1 0.3 1.6-0.2 1.9-2 4.1-3.4 6.8-3.5 0.8 0 1.5-0.3 2-1 1.7-1.9 4.1-2.4 6.1-3.8 0.8-0.6 1.4 0.2 2.2 0.3 1.4 0.3 2.8-1.1 4.4-0.7 1.5 0.3 2.6-0.6 3.6-1.8 0.2-0.2 0.8-0.5 0.9-0.4 0.8 1.3 1.6-0.2 2.5 0 0.4 0.1 1.1 1.1 1.3 0 0.3-1.9 1.6-2.2 2.5-1.6 3.8 2.6 6.6 0.6 9.4-2.1 0.8-0.7 1.1-0.5 1.3 1 0 0.2 0 0.4 0 0.6 0.2 1.5 0.4 1.7 1.2 1 0.9-0.9 1.6-1.8 2.9-2.2 0.9-0.4 1.5-0.9 2.4-0.1 0.4 0.4 1.3 0.5 1.7 0.2 2.1-1.5 4 0.1 5.8 0.7 0.9 0.3 1.4 0.4 1.9-0.4 1.5-2.2 3.4-1.8 5.2-0.9 0.8 0.3 1.4 0.6 2.2 0.8 1.4 0.2 2.2-2.4 3.7-0.9 1 1 2.3 1 3.4 0.8 1.5-0.3 2.6 0.6 3.8 1.2 0.3 0.1 0.7-0.2 1.1-0.4 0 0-0.1-0.4-0.2-0.5-0.9-1.2-0.9-2.3 0.3-3.3 0.9-0.8 1.7-1.8 2.8-2.4 2-1.1 3.9-1.9 6-0.3 0.8 0.6 1.7 0.3 1.9-0.5 0.4-1.9 1.8-2.2 2.7-1.6 1.8 1.3 3.7 1.2 5.7 1.2 1.5 0 3 0 4.5 1.1 0.7 0.6 2 0.5 2.7-0.4 1.1-1.5 2.4-2 4-2.4 1.3-0.3 2.7-1.1 3.5-2.2 1.3-1.7 3.4-1 4.8-2.3 0 0 0.6 0.3 0.7 0.6 0.1 0.4 0.1 0.9 0.1 1.3 0.2 1.2 0.8 1.8 1.4 1.4 0.7-0.3 1.4-1.1 2.1-1 1.2 0.1 2.4-1.3 3.2-0.9 1.1 0.7 2.3 0.4 3.3 1 3.1 2.1 6.4 0.9 9.7 0.9 1.1-1.3 2.5-1.3 3.8-1.1 3.1 0.4 5.8-0.8 8.4-2 1.8-0.8 3.4-1.2 5 0.2 0.5 0.5 1.2 0.7 1.6 0.3 1.1-1.2 2.5-1.3 3.8-1.1 1.1 0.1 1.9-2 3.2-0.5 0 0.1 0.4 0 0.4 0 0.4-3 3.2-1.8 4.5-3.2 0.3-0.3 1.2-0.1 1.6 0.3 1 0.7 1.7 0.3 2.7 0 2.2-0.8 4.2-2.2 6.7-1.9 0.8 0.1 5.5 1.4 6.1 1.8 1 0.9 2.2 1.1 3.3 0.3 1.1-0.9 2-0.8 3.1 0.1 0.4 0.3 1.3 0.3 1.6 0 1.1-0.9 2.2-1 3.4-0.8 2.3 0.4 4.3-0.5 6-1.9 1.5-1.2 3.1-0.6 4.5-1.1 1-0.3 0.3-1 0-1.4-0.3-0.5-0.3-0.8 0.3-0.9 1.3-0.2 1.4-0.6 0.8-2-1-2.6-0.1-3.7 2.4-3.3 0.8 0.1 1.5 0.4 2.2 0.7 2.9 0.9 5.8 0.5 8.8 0.1 0.3 0 0.6-0.5 1-0.6 0.7-0.2 1.9-0.6 2.2-0.2 1.8 2.3 4.8 0.2 6.6 2.4 0.3 0.4 1.6 0.2 2.1-0.2 2.1-1.7 4-1.2 6 0.2 0.4 0.3 1.2 0 1.4-0.7 0.2-0.4 0.1-0.9-0.1-1.2-0.6-1.2-1.6-2-2.7-2.4-0.1 0-0.3-0.3-0.2-0.4 0.1-0.2 0.3-0.4 0.4-0.4 0.8-0.1 1.6-0.3 2.3 0 1.2 0.3 2.4 0.6 3.2 1.4 1.1 1 2.1 0 2.9 0.3 1.4 0.6 1.6 1.9 0.7 3.7-0.1 0.3-0.2 0.7-0.3 1.1 2.6 0.7 5.1 1.8 7.8 1.4 0.8-0.1 1.6-0.1 2.3-0.4 0.9-0.4 0.4-1.6 0.6-2.4 0.1-0.5 0.5-1.1 0.9-1.6 0.2-0.3 0.8-0.7 0.8-0.7 1.1 1.2 3.1 1.1 3.8 2.9 0.2 0.3 0.2 0.8 0.3 1.2 0.6 2.4 1.1 2.7 3.2 1.9 2.3-0.8 2.9-0.9 3.7 1.2 0.6 1.5 1.2 2 2.6 1.8 1.3-0.1 1.9 0.5 2.6 1.8 0.8 1.2 2.4 2.2 4 2.1 1.2-0.1 1.8 0.8 2.4 1.6 0.6 0.6 1 1.3 1.9 0.3 0.6-0.6 1-1.2 0.2-2-0.3-0.5-0.3-0.9 0.3-0.9 0.9-0.2 1.9-0.2 2.8-0.3 0.1-0.1 0.1-0.4 0.2-0.5 1.4-1.7 3.8 0.4 5.1-1.8 0.4 0.4 0.9 0.6 1.2 1.1 0.8 1.2 1.9 1.3 3 1.3 0.1 0.5 0.2 1.1 0.9 0.9 0.1-0.1 0.2-0.5 0.3-0.9 1.1 0.4 2.1 1.5 3.3-0.2 1.1-1.6 1.4-1.4 2.7 0.6 0.5 0.8 0.8 0.4 1.3 0.2 0.8-0.3 1.7 0.5 2.1 1.4 0.1 0.4 0.1 1-0.1 1.3-0.1 0.3-0.5 0.5-0.9 0.6-0.5 0.1-1.1 0.1-1.7 0.2-0.1 0-0.3 0.3-0.4 0.4 0 0.1 0.1 0.4 0.2 0.5 1.3 0.3 2.4 2.2 3.9 0.3 1 0.2 2.3-0.4 2.7 1.3 0.6 0 1.2 0 1.7 0.2 0.9 0.4 0.5 2.2 1.7 2.3 1 0.2 2.2-0.3 2.9 0.3 1.6 1.3 3 1.8 4.7 0.3 0.4-0.4 1.8 0.9 2 1.8 0.1 0.7-0.2 1.3-0.7 1.6-0.5 0.3-0.9 0.6-1.4 0.9 0.4 0.2 0.7 0.6 1 0.6 2.1-0.5 3.8 0.6 5.4 1.7 1.2 0.7 2.1 1.2 3.2 0.1 0.3-0.3 0.7-0.1 0.8 0.4 0.1 1.1 0 2.2 0.2 3.3 0.1 0.7 0.6 1.3 1.2 1 1.4-0.8 2.7-2 4-0.1 1.5-1.6 2.8 0.5 4.2 0.3 1.3-0.1 2.8-0.5 3.9 0.8 1-0.5 2.3-1.5 3.2-0.8 2.1 1.8 5 0.6 7.1 2.5 0.5 0.5 1.5 0.2 2.1 0.6 0.9 0.7 1.4 0.3 1.9-0.4 1.4-1.7 2.9-2 4.7-0.6 0.6 0.6 1.9 0.4 2 1.7q0.6 0 1.1 0c0.2-0.6 0.5-1.1 1.1-1.1 0.7 0.2 1.4 0.8 2.1 0.8 0.7 0 1.4-0.8 2.1-0.9 1.3-0.2 2.5 0.9 3 2.5 0 0.3-0.2 1-0.4 1q-1.4 0.4-2.9 0.4c-0.7 0-1.2 0.4-1.3 1-0.1 0.8-0.1 2.3 0.3 2.4 1 0.6 1.9 2.1 3.4 1.1 0.6-0.4 1.5-0.4 2.3-0.4 0.6 0 1 0.4 1.1 1.2 0.1 0.5 0 1.4 1 0.8 2.2-1.2 4.5-0.8 6.8-0.4 0.1 0 0.2 0.4 0.2 0.4-2 2.9-0.3 3.2 1.8 3.3 0.1 0 0.3 0.2 0.4 0.4 0.1 0.1 0 0.4 0 0.4-1.8 0.6-3.7 1.5-5.5 1.7-2.7 0.2-5.5 0.9-8-1.1-0.4-0.3-1.4-0.3-1.7 0-1.6 1.6-3.8 0.9-5.5 1.8-0.6 0.3-1 0.4-1.5 0-1.3-1.1-2.5-0.7-3.8 0.2-1.5 1-3.3 1.5-4.5 2.8-1.6 1.6-2.8 2.1-4.5 0.5-0.1-0.2-0.7 0.2-1 0.3-0.1 0 0 0.4 0 0.5 0.9 1.3 1 3.2 2.9 3.5 0.7 0.1 1.3 1 2.1 0.9 1.5-0.2 2.2 1.7 3.8 1.4 1.6-0.2 2.2 1.7 3.4 2.3 0.4 0.3 1.1 0.2 1.6 0.3 0.1 0.6 0.1 1.2 0.2 1.7 0 0.2 0.2 0.5 0.3 0.5 0.2-0.1 0.6-0.3 0.7-0.5 0.1-0.5 0.1-1.1 0.1-1.7 1.2-0.4 2.1-1.2 2.3-2.5 0.3-1.2 0.5-1.1 1.5-0.7 2.6 1 5.3 2.4 8.2 1.8 1.5-0.2 2.7 1.8 4.3 0.3 0.4-0.5 1.4 0.1 1.5 1.3 0 0.9-0.3 2.2 1.1 2.3 0.3-2.3 1-2.9 2.6-2.5zm-5.9-16.7c0.2 0.5 0.4 0.6 0.7 0.2 0 0 0-0.2 0-0.3-0.1-0.1-0.3-0.2-0.3-0.2-0.2 0.1-0.4 0.3-0.4 0.3zm-15.7-11.1q0.1 0 0.2 0c0 0.3 0.1 0.7 0.3 0.8 0.3 0.2 0.6-0.1 0.4-0.4-0.2-0.2-0.5-0.3-0.7-0.4q-0.1-0.1-0.1-0.2zm-2 0.9c0.7 0.2 0.8-0.3 0.8-0.8q0.1 0 0.1-0.1l-0.1-0.1q0 0.1 0 0.2-0.4 0.2-0.8 0.4c0 0 0 0.4 0 0.4zm-1.1 3.6c0.2 0.2 0.4 0.6 0.6 0.6 0.4 0.1 0.7-0.2 1.1-0.3-0.2-0.3-0.5-0.7-0.7-0.7-0.3 0-0.7 0.2-1 0.4zm-7.3-1.1c0.2 0.1 0.3 0.3 0.5 0.4 0.3 0.1 0.7 0.1 1.1 0.2 0.3-0.1 0.7-0.1 1-0.2 0.2-0.1 0.3-0.3 0.5-0.4-0.2-0.2-0.4-0.6-0.7-0.7-0.5-0.1-1.1-0.1-1.7 0-0.2 0-0.4 0.4-0.7 0.7zm-373.1 10.4q-0.2-0.2-0.3-0.4-0.2 0.2-0.4 0.4 0.2 0.2 0.5 0.4 0.1-0.2 0.2-0.4zm57-18.4c-0.1-0.2-0.2-0.4-0.4-0.4q-0.1 0-0.2 0.1-0.1 0.1-0.2 0.2 0.1 0.2 0.2 0.3 0.1 0.1 0.2 0.2c0.1 0 0.3-0.3 0.4-0.4zm20.2 131.3q-0.1-0.2-0.3-0.4-0.2 0.3-0.4 0.6 0.2 0.1 0.4 0.1 0.2-0.1 0.3-0.3zm6.1 0.5q-0.1 0.1-0.1 0.2c-0.3 0.1-0.6 0.2-0.7 0.4-0.2 0.4 0.1 0.7 0.4 0.5 0.2-0.2 0.2-0.6 0.3-0.9q0.1 0 0.2 0zm106.5-8.8c-0.5-0.5-1.1-1-1.6-1.5q-0.2 0.6-0.4 1.1c0.1 0.4 0.3 0.8 0.6 1 0.2 0.2 0.6 0.3 0.9 0.2 0.2-0.1 0.5-0.7 0.5-0.8zm9.6 0.1q-1.5-0.8-2.9-1.6c-0.2 0.5-0.4 1-0.3 1.3 0.4 1.1 1.9 1.4 2.9 0.8 0.1-0.1 0.2-0.3 0.3-0.5zm26.1-1.2c0-0.1-0.2-0.3-0.4-0.4-0.1 0.1-0.4 0.3-0.4 0.4 0.3 0.6 0.6 0.6 0.8 0zm7-151.6q-0.1 0-0.2 0-0.1 0-0.2 0-0.1 0.1-0.1 0.2-0.1 0.2-0.1 0.2c0.1 0.2 0.3 0.5 0.3 0.5 0.5-0.3 0.6-0.6 0.3-0.9zm8.3 150c-0.1 0-0.3 0-0.4 0-0.1 0.1-0.2 0.3-0.2 0.3 0.1 0.2 0.3 0.5 0.3 0.4 0.5-0.2 0.5-0.5 0.3-0.7zm9.7 0.9c0-0.4-0.2-0.9-0.5-1.1-1.5-0.6-3.2 0.3-5.8-1.1q-0.1-0.1-0.2-0.1c-0.1 0-0.3 0.3-0.4 0.5-0.4 1.1-0.8 2.3-1.1 3.4-0.1 0.2 0.5 0.7 0.6 0.7 1-0.8 1.9-1.5 3-0.2 0.3 0.5 0.5 0.4 0.9-0.1 0.9-1 1.7-2.4 3.2-0.9 0.1-0.4 0.4-0.8 0.3-1.1zm-6.8-2.5q0.3 0.1 0.5 0.3 0 0 0.1 0-0.1 0-0.6-0.3zm11 1.4c-0.4-0.3-1.1-0.4-1.4 0.3-0.2 0.6-0.4 1.2 0.2 1.9 0.4-0.3 0.8-0.5 1.1-0.9 0.3-0.4 1.1-0.9 0.1-1.3zm2.7 1.5c-0.1-0.1-0.3 0-0.4-0.1 0 0.2-0.2 0.3-0.2 0.4 0.1 0.2 0.3 0.4 0.4 0.4 0.4-0.2 0.5-0.5 0.2-0.7zm2.8-1.8c-0.2-0.3-0.4-0.7-0.6-1-0.2 0.3-0.6 0.6-0.6 1-0.1 0.6-0.1 1.2 0 1.8 0.1 0.2 0.5 0.4 0.7 0.5 0.1 0 0.3-0.3 0.4-0.4 0.1-0.4 0.1-0.9 0.1-1.1 0-0.4 0-0.6 0-0.8zm2.4-148.4l-0.1-0.1q0 0.1-0.1 0.1c-0.3 0.1-0.6 0.2-0.8 0.4-0.2 0.4 0.1 0.7 0.5 0.5 0.2-0.1 0.2-0.5 0.3-0.9q0.1 0 0.2 0zm41.4 8.9c0-0.6-0.5-0.9-1.1-0.9q0-0.1 0-0.2l-0.1 0.2q0.1 0 0.1 0c0 1 0 2 0.1 3 0 0.1 0.2 0.3 0.3 0.4 0.1 0.1 0.4 0 0.4-0.1 0.1-0.8 0.3-1.6 0.3-2.4zm22.5 5.7q0.1 0 0.2 0l-0.2-0.1q0 0 0 0.1c-0.4 0-0.8 0.1-0.8 0.8 0.1 0 0.4 0.1 0.4 0.1q0.2-0.5 0.4-0.9zm5.2 7.4q0.1 0.1 0.3 0.2 0.2-0.2 0.4-0.4-0.2-0.2-0.4-0.3-0.2 0.2-0.3 0.5zm5.5 126.1c0-0.2-0.4-0.4-0.7-0.5 0 0-0.3 0.3-0.3 0.5-0.1 0.9-0.4 1.5-1.2 1.7q0 0 0 0-0.1 0-0.1 0c0-0.7-0.4-1.2-1-1.3-2-0.3-3 0.9-2.5 3 0.2 0.7 1.4 1.1 1.9 0.6 0.6-0.7 0.4-2.2 1.6-2.3q0 0 0 0.1 0 0 0.1-0.1 0 0.6 0 1.3c0 0.7 0.3 1.1 0.9 1.2 0.7 0.2 1.2-0.3 1.3-0.9 0.1-1.1 0.1-2.2 0-3.3zm2 2.1c0-0.1-0.2 0-0.3 0-0.1 0.1-0.2 0.3-0.2 0.3 0.1 0.2 0.3 0.5 0.3 0.5 0.5-0.3 0.5-0.6 0.2-0.8zm0.2-2.4q-0.1-0.2-0.3-0.4-0.2 0.2-0.4 0.3 0.3 0.2 0.6 0.5 0-0.2 0.1-0.4zm3.5 2.5c-0.1-0.1-0.3-0.3-0.3-0.2-0.2 0.1-0.4 0.3-0.4 0.3 0.2 0.5 0.5 0.6 0.7 0.3 0-0.1 0-0.3 0-0.4zm1.2-2.7c-0.1 0-0.3-0.2-0.4-0.1-0.1 0-0.3 0.2-0.3 0.3 0.2 0.4 0.4 0.5 0.7 0.2 0-0.1 0-0.3 0-0.4zm1.4 3.3c-0.1-0.3-0.4-0.5-0.6-0.7-0.1 0.4-0.4 0.8-0.4 1.1 0.1 0.3 0.4 0.5 0.6 0.8 0.5-0.3 0.6-0.7 0.4-1.2zm2.2-31q-0.1-0.2-0.3-0.4-0.2 0.2-0.4 0.4 0.3 0.2 0.5 0.4 0.1-0.2 0.2-0.4zm4.8 1.4q-0.1-0.1-0.2-0.3-0.1-0.1-0.2-0.1c-0.1-0.1-0.3 0.2-0.4 0.3q0.2 0.3 0.4 0.5 0.2-0.2 0.4-0.4zm105 17.5q0.1 0.1 0.3 0.2 0.2-0.2 0.4-0.4-0.2-0.2-0.4-0.4-0.2 0.3-0.3 0.6zm-57.2-6.9c0.5 0.2 1 0.4 1.5 0.5 0.1 0 0.3-0.5 0.4-0.7q-0.5-0.2-1-0.4-0.4 0.3-0.9 0.6zm-3.4 0q0.4 0.2 0.9 0.5 0.5-0.2 1-0.5c-0.3-0.2-0.6-0.5-0.9-0.5-0.4 0-0.7 0.3-1 0.5zm-13-1.1c0 0 0.3 0.3 0.5 0.3 0.7 0.1 1.5 0.2 1.5 0.2 1.3 0 1.9 0 2.5-0.1 0.3 0 0.6-0.4 0.9-0.6-0.2-0.2-0.5-0.6-0.8-0.6q-2-0.1-4 0c-0.2 0-0.4 0.5-0.6 0.8zm-7.3-0.3c0 0.1 0.2 0.3 0.3 0.5 1.2 1.6 1.6 1.7 2.9 1q1-0.5 2-1.1c0.1-0.1 0.2-0.3 0.3-0.4-0.2-0.1-0.3-0.4-0.5-0.4q-2.3 0-4.5 0c-0.2 0-0.5 0.2-0.5 0.4zm-9.3 0.3c-0.1 0.1 0.1 0.3 0.3 0.5 0.5 0.4 0.9 1.3 1.8 0.5 0.5-0.3 1.1-0.4 1.6-0.7 0.1-0.1 0.2-0.3 0.4-0.4-0.3-0.2-0.5-0.6-0.7-0.7q-0.1 0-0.2 0 0.1 0 0.1 0c0 0 0 0-0.1 0-0.3-0.1-0.4 0 0 0q0 0 0 0c-1.6 0-2.1-0.1-2.7 0-0.2 0.1-0.4 0.5-0.5 0.8zm-0.5-78.3c-0.3-0.6-0.9-0.8-1.4-0.6-0.9 0.3-1.7 0.9-2.6 1.3-0.2 0.1-0.3 0.3-0.5 0.4 0.2 0.2 0.3 0.4 0.5 0.4 0.4 0.2 0.7 0.2 0.9 0.3 0.8 0 1.4 0 2 0 0.7 0 1-0.4 1.1-1.1 0.1-0.3 0.1-0.5 0-0.7zm19.9 11.5c0-0.1-0.2 0-0.3 0-0.1 0.1-0.2 0.2-0.2 0.3 0.1 0.2 0.3 0.4 0.3 0.4 0.5-0.2 0.5-0.5 0.2-0.7zm2.4-1.3c-0.1-0.1-0.2 0-0.4 0 0 0.1-0.2 0.2-0.1 0.3 0 0.2 0.2 0.4 0.3 0.4 0.4-0.2 0.5-0.5 0.2-0.7zm3.8 24.1c0 0-0.3-0.3-0.4-0.4-0.2 0.1-0.5 0.3-0.4 0.4 0.2 0.6 0.5 0.6 0.8 0zm3.4-22.4q0.1 0 0.2-0.1-0.1-0.2-0.2-0.3-0.1-0.1-0.3-0.2c-0.1 0-0.3 0.3-0.3 0.4 0 0.2 0.2 0.3 0.3 0.5q0.1-0.1 0.3-0.3zm8.7 45.8q0 0.2 0.1 0.5c0.2 0.5 0.4 0.5 0.9 0.1 0.3-0.3 0.8-0.5 1.2-0.8 0-0.9-0.4-1.4-1.3-1.1-0.6 0.1-1 0.5-0.9 1.3zm2.2-0.2q0 0 0 0 0 0 0 0 0 0 0 0 0 0 0 0zm0 0q0.1 0.1 0.1 0.1l0.1-0.1q-0.1 0-0.2 0zm-3.8-45.5c0.1-0.7-0.3-0.8-0.7-0.8q-0.1-0.1-0.1-0.2l-0.1 0.2q0.1 0 0.2 0 0.1 0.4 0.3 0.8c0 0.1 0.4 0 0.4 0zm33.9 3.9c0.2 0.3 0.5 0.3 0.8 0.4q0 0.1 0 0.2l0.1-0.2q-0.1 0-0.1 0c-0.1-0.3-0.2-0.7-0.4-0.8-0.3-0.2-0.6 0.1-0.4 0.4zm-12 3.9c0.1 0.2 0.3 0.5 0.4 0.4 0.4-0.2 0.5-0.5 0.2-0.7q-0.1-0.1-0.2-0.1-0.1 0-0.2 0 0 0.1-0.1 0.2-0.1 0.1-0.1 0.2zm-6.7-3.7c0 0.1 0.2-0.2 0.4-0.3-0.2-0.2-0.3-0.5-0.4-0.5-0.6 0.3-0.6 0.6 0 0.8zm-4.9-0.2c0.3 0.2 0.7 0.3 1 0.5 0.4 0 0.8 0 1.2-0.1 0.2 0 0.3-0.2 0.5-0.4 0 0 0-0.3 0-0.3-0.5-0.6-2.3-0.6-2.7 0-0.1 0-0.1 0.3 0 0.3zm-8.4-3.9c0 0 0.3 0.1 0.4 0q0.2-0.4 0.3-0.8 0.1 0 0.2 0l-0.1-0.2q-0.1 0.1-0.1 0.2c-0.4 0-0.8 0.1-0.7 0.8z"/>
			<path id="Layer" class="s0" d="m205.1 171.4q0 0 0 0 0 0-0.1 0.1z"/>
			<path id="Layer" class="s0" d="m27.2 62.8q0-0.1 0-0.1c-0.1-0.1-0.1-0.1-0.2-0.1z"/>
			<path id="Layer" class="s0" d="m295.2 174q0 0.1 0 0.1 0.1 0 0.1 0.1z"/>
			<path id="Layer" class="s0" d="m271.3 14.8q2.4-0.8 4.8-1.8c0.7-0.3 1.5-0.6 2-1.2 0.4-0.3 0.5-1.1 0.5-1.7-0.1-1.8-1.1-3-2.5-3-1.6-0.1-3.2-0.3-4.2 1.5-0.3 0.3-0.9 0.8-0.9 0.8-1.5-1.6-1.7-0.3-2.1 1-0.2 0.8-0.6 1.6-0.9 2.4-0.3 1.2 0.4 2.1 1.5 2.1 0.6 0 1.2 0.1 1.8-0.1z"/>
			<path id="Layer" class="s0" d="m56.8 182.8c-0.6-0.5-1-0.3-1.4 0.2-0.7 0.7-1.4 1.5-2 2.3-0.3 0.5-0.3 1.3 0.2 1.7 0.3 0.2 0.9 0.4 1 0.3 1.5-1.4 2.1-0.4 2.7 1 0 0.2 0.8 0.4 1 0.3 0.7-0.6 1.4-1.3 2-1.9-0.1-0.7-0.1-1.1-0.3-1.5-0.6-1.5-2-1.7-3.2-2.4z"/>
			<path id="Layer" class="s0" d="m452 134.9c0 0.6 0.1 1.4 0.5 1.7 0.6 0.7 1.3 0.2 1.9-0.5 0.8-0.7 1.4-2.3 2.7-0.7 0.6-0.6 1.2-1 1.7-1.7 0-0.1-0.6-1-1-1.3-0.5-0.4-1.1-0.5-1.6-0.7-1.6-0.5-2.9 0.6-4.2 1.3 0 0.6-0.1 1.3 0 1.9z"/>
			<path id="Layer" class="s0" d="m452 133q0 0 0-0.1l-0.1 0.1q0 0 0.1 0z"/>
			<path id="Layer" class="s0" d="m65.7 187c1.2-0.6 1.7-0.9 1.8 0.8 0 0.1 0.5 0.2 0.7 0.4 0.5-1.8 1.1-3.6 1.5-5.4 0.1-0.5-0.4-0.6-0.8-0.3-0.8 0.8-1.6 1.2-2.6 0.3-0.3-0.3-0.6-0.6-0.9-0.7-0.4 0-0.8 0.2-1.1 0.3 0.1 0.3 0.1 0.8 0.3 1 0.3 0.4 0.4 0.7 0.1 1.1-0.3 1.4 0.3 2.9 1 2.5z"/>
			<path id="Layer" class="s0" d="m426.8 76c-1.1 0-2.4 0.4-3.4-0.6-1-1-2.2-0.5-3.3-0.7-0.4 0.2-1 0.4-1 0.5 0.1 0.7 0.6 0.7 1.2 0.7 0.5 0.1 1.1 0.2 1.6 0.5 0.7 0.4 1.2 1.2 1.8 1.7 0.7 0.6 1.5-1.2 2.4 0 0.6 0.8 1.4 0.4 1.9-0.4 0.1-0.1 0.1-0.4 0.1-0.6-0.2-0.8-0.6-1-1.3-1.1z"/>
			<path id="Layer" class="s0" d="m94.1 23c-0.5-0.1-1.3-0.1-1.6 1-0.3 0.5-0.4 1.2-0.8 1.7-0.3 0.5-0.4 0.9 0.1 0.9 1.4 0.2 2.2 2 3.8 1.5 0.3-0.1 0.9-0.1 1-0.3 0.3-0.9-0.5-0.8-0.9-0.9-0.9-0.4-1-1.2-0.8-2.1 0.5-1.8 0.5-1.8-0.8-1.8z"/>
			<path id="Layer" class="s0" d="m471.8 168.9c-0.7 0-1 1.5-1.9 0.7-0.6-0.5-1.3-1.1-2.1-0.5-0.6 0.5-1.1 1.2-1.6 1.9-0.1 0.2 0.1 0.8 0.2 1.2 0 0.1 0.3 0.3 0.4 0.3 1.7-1.6 3.7-0.9 5.6-1.2 0.6-0.1 0.9-0.7 0.7-1.4-0.1-0.9-0.6-1-1.3-1z"/>
			<path id="Layer" class="s0" d="m289.8 8.3c0.5-1.2 1.1-2.3 1.5-3.5 0.1-0.3-0.7-1-1.1-1.3-0.2-0.1-0.7 0.1-0.9 0.3-1.1 1.3-1.4 2.5-0.7 3.9 0.1 0.3 0.6 0.3 1.2 0.6z"/>
			<path id="Layer" class="s0" d="m25.1 189.9c0.5-0.1 0.6-0.4 0.5-0.8-0.8-1.6-2.4-2.2-3.9-1.3-0.2 0.1-0.4 0.7-0.4 1 0 0.3 0.3 0.9 0.5 1 0.5 0.2 1.1 0.2 1.6 0.2 0.6 0 1.2 0 1.7-0.1z"/>
			<path id="Layer" class="s0" d="m460.9 134.6c-0.2 0-0.3 0.2-0.5 0.3 0.2 0.2 0.3 0.4 0.5 0.4q1.3 0.4 2.6 0.7c0.4 0.2 0.9 1.3 1.3 0.2 0.2-0.7 0-1.6 0-2.4 0-0.2-0.2-0.4-0.3-0.5-1 1-2.4 0.9-3.6 1.3z"/>
			<path id="Layer" class="s0" d="m134.4 181.9c0.1 0 0.3-0.2 0.4-0.3 0-0.2 0-0.4-0.1-0.5-0.8-1.4-1.9-1.9-3.3-1.7-0.3 0.1-0.6 0.4-0.8 0.7 0 0 0.2 0.3 0.3 0.5 0.9 1.4 2.1 1.7 3.5 1.3z"/>
			<path id="Layer" class="s0" d="m307 172.8q-0.4 0.3-0.9 0.7c0.2 0.1 0.3 0.3 0.5 0.4 0.8 0.5 1.6 1 2.5 1.4 0.3 0.1 0.9 0 1.1-0.2 0.5-0.7-0.2-1-0.5-1.4-0.7-1-1.7-0.9-2.7-0.9z"/>
			<path id="Layer" class="s0" d="m428.3 55.9c0.2 0 0.5-0.4 0.7-0.6-0.3-0.2-0.6-0.5-1-0.5q-1.2-0.1-2.3 0c-0.3 0.1-0.6 0.5-0.8 0.7 0.1 0.1 0.3 0.3 0.5 0.4 0.3 0.1 0.7 0 0.9 0 0.8 0 1.4 0.1 2 0z"/>
			<path id="Layer" class="s0" d="m473.3 89c0.7-0.1 1.1-0.4 1-1.1-0.1-1-0.4-1.3-1.2-1.2-0.6 0.1-1 0.4-0.9 1.3 0.1 0.8 0.4 1.1 1.1 1z"/>
			<path id="Layer" class="s0" d="m472.8 136.5c0.5 0 1.1-0.7 1.2-1.3 0.1-0.3-0.3-1-0.7-1.4-0.1-0.2-0.5-0.2-0.9-0.3q-0.1 0.5-0.3 1.1c0.1 0.7-0.3 1.9 0.7 1.9z"/>
			<path id="Layer" class="s0" d="m124.4 183.4c0.1 1 0.7 1.4 1.5 1.2 0.8-0.4 1.6-1 1.7-2.1 0-0.1-0.2-0.4-0.4-0.4-0.5 0-1.1 0-1.6 0-0.1 0.8-0.5 1.2-1.2 1.3z"/>
			<path id="Layer" class="s0" d="m99.5 39.5c0-0.2 0-0.4-0.1-0.6-0.1-0.4-0.3-0.8-0.4-1.1-0.3 0.3-0.5 0.5-0.7 0.9-0.3 0.7-0.6 1.5-0.9 2.2 0.3 0.2 0.6 0.5 1 0.4 1 0 1-0.9 1.1-1.8z"/>
			<path id="Layer" class="s0" d="m81.2 41.9c-0.9-0.8-2.6-0.4-3 0.6-0.1 0.3 0.2 0.8 0.3 1.4q1.5-0.8 2.9-1.6c-0.1-0.2-0.1-0.3-0.2-0.4z"/>
			<path id="Layer" class="s0" d="m245 21.1c0 0 0.1-0.3 0-0.4-0.4-0.6-2.2-0.6-2.7 0 0 0.1 0 0.4 0 0.4 0.4 0.2 0.7 0.3 1.3 0.6 0.3-0.2 0.9-0.4 1.4-0.6z"/>
			<path id="Layer" class="s0" d="m149.1 178.2c-0.3 0-0.5 0.4-0.7 0.6 0.1 0.1 0.3 0.3 0.4 0.4 0.4 0.1 0.8 0.1 1.1 0.2 0.4-0.1 0.7-0.1 1.1-0.2 0.1 0 0.3-0.2 0.4-0.4-0.2-0.2-0.4-0.6-0.6-0.7-0.6-0.1-1.2-0.1-1.7 0.1z"/>
			<path id="Layer" class="s0" d="m9.4 173.9c0 0.3 0.2 0.7 0.3 1.3 0.4-0.3 0.8-0.6 1.2-0.9 0.2-0.3 0.3-0.7 0.5-1-0.3-0.2-0.6-0.4-0.9-0.4-0.7-0.2-1 0.3-1.1 1z"/>
			<path id="Layer" class="s0" d="m297.2 171.8c-0.1-0.2-0.3-0.3-0.5-0.3-0.6 0-1.1 0.1-1.3 0.8-0.1 0.5-0.1 1.1-0.1 1.7 0.5-0.3 1-0.5 1.3-0.8 0.4-0.3 1-0.7 0.6-1.4z"/>
			<path id="Layer" class="s0" d="m295.3 174q0 0-0.1 0l0.1 0.2q0-0.1 0-0.2z"/>
			<path id="Layer" class="s0" d="m206.3 173.4c0.2 0.2 0.5 0.3 0.8 0.2 0.4 0 0.4-1.3 0-1.7-0.5-0.6-1.3-0.4-2-0.4 0 0.9 0.6 1.4 1.2 1.9z"/>
			<path id="Layer" class="s0" d="m205.1 171.5q0-0.1 0-0.1l-0.1 0.1q0.1 0 0.1 0z"/>
			<path id="Layer" class="s0" d="m475.4 170.2c-0.3 0-0.5 0.5-0.7 0.7 0.2 0.1 0.3 0.3 0.5 0.4 0.3 0 0.7 0 0.8 0.1 0.4 0 0.6 0 0.8 0 0.3-0.2 0.6-0.4 0.9-0.5-0.2-0.3-0.4-0.6-0.7-0.6-0.5-0.2-1.1-0.2-1.6-0.1z"/>
			<path id="Layer" class="s0" d="m117.7 185.2c0.1 0.2 0.2 0.7 0.4 0.7 0.4 0 0.9-0.2 1.5-0.4-0.4-0.3-0.7-0.7-1-0.7-0.3 0-0.6 0.2-0.9 0.4z"/>
			<path id="Layer" class="s0" d="m48.1 192.5c0.5 0.1 1 0.1 1.2-0.7 0-0.1-0.3-0.2-0.4-0.4-0.5 0.1-1.1-0.1-1.3 0.7 0 0.1 0.3 0.4 0.5 0.4z"/>
			<path id="Layer" class="s0" d="m179.5 174.5c-0.2 0.3-0.4 0.7-0.4 1.1 0 0.3 0.4 0.5 0.6 0.7 0.4-0.2 0.6-0.6 0.4-1.1-0.1-0.3-0.4-0.5-0.6-0.7z"/>
			<path id="Layer" class="s0" d="m302.8 171.9c-0.5 0.4-0.4 1-0.2 1.6 0.1 0.2 0.3 0.3 0.4 0.4 0.1-0.1 0.3-0.2 0.4-0.4 0.2-0.6 0.3-1.1-0.2-1.6-0.1-0.1-0.2 0-0.4 0z"/>
			<path id="Layer" class="s0" d="m342.7 26.4c-0.1-0.2-0.5-0.3-0.8-0.4 0-0.1-0.3 0.2-0.3 0.4 0 0.6 0 1.2 0 1.8q0.5 0 1.1 0c0-0.6 0.1-1.2 0-1.8z"/>
			<path id="Layer" class="s0" d="m452.1 117.7c0.5 0.2 0.9 0.4 1.4 0.6 0.1 0 0.3-0.5 0.5-0.7-0.5-0.6-1-0.5-1.5-0.3-0.1 0.1-0.2 0.3-0.4 0.4z"/>
			<path id="Layer" class="s0" d="m93.8 38.1q0.4 0.4 0.8 0.7 0.5-0.2 0.9-0.4c-0.1-0.3-0.3-0.8-0.3-0.8-0.5 0.1-1 0.4-1.4 0.5z"/>
			<path id="Layer" class="s0" d="m101.5 28.7c-0.4-0.8-0.9-0.5-1.4-0.3-0.2 0.1-0.3 0.3-0.4 0.4 0.4 0.2 0.9 0.5 1.4 0.6 0.1 0 0.3-0.5 0.4-0.7z"/>
			<path id="Layer" class="s0" d="m297.2 3.3q-0.2 0.3-0.4 0.6 0.2 0.1 0.4 0.2 0.1-0.2 0.3-0.4-0.1-0.2-0.3-0.4z"/>
			<path id="Layer" class="s0" d="m322.3 10.4c0-0.1-0.1-0.2-0.2-0.4q-0.2 0-0.3 0 0.1 0.4 0.1 0.8c0.2-0.1 0.3-0.2 0.4-0.4z"/>
			<path id="Layer" class="s0" d="m296.3 14.3c-0.1-0.1-0.3-0.4-0.4-0.4-0.6 0.2-0.6 0.5 0 0.8 0.1 0.1 0.3-0.2 0.4-0.4z"/>
			<path id="Layer" class="s0" d="m320.6 14c0 0.1-0.1 0.3-0.1 0.4 0 0.1 0.2 0.3 0.3 0.4q0.1-0.4 0.2-0.8-0.2 0-0.4 0z"/>
			<path id="Layer" class="s0" d="m251.2 19.6c0-0.1-0.2-0.3-0.4-0.4-0.5 0.2-0.5 0.5 0 0.8 0.1 0.1 0.3-0.2 0.4-0.4z"/>
			<path id="Layer" class="s0" d="m48.4 187.3q0 0.1 0 0.2 0-0.1 0.1-0.1z"/>
			<path id="Layer" class="s0" d="m48.4 187.5c-0.3 0.1-0.7 0.1-0.8 0.3-0.2 0.4 0.1 0.7 0.4 0.5 0.2-0.2 0.3-0.5 0.4-0.8z"/>
			<path id="Layer" class="s0" d="m51.5 187.1q0.2-0.2 0.4-0.4-0.2-0.2-0.4-0.4-0.2 0.3-0.4 0.6 0.2 0.1 0.4 0.2z"/>
			<path id="Layer" class="s0" d="m49.3 186.5c0-0.1-0.4-0.1-0.4-0.1q-0.2 0.4-0.3 0.9c0.4-0.1 0.8-0.1 0.7-0.8z"/>
			<path id="Layer" class="s0" d="m48.6 187.3q-0.1 0-0.2 0l0.1 0.1q0 0 0.1-0.1z"/>
			<path id="Layer" class="s0" d="m155.4 178.7c0.2 0.4 0.5 0.5 0.7 0.2 0.1-0.1 0-0.2 0-0.4-0.1 0-0.2-0.2-0.3-0.1-0.2 0-0.4 0.3-0.4 0.3z"/>
			<path id="Layer" class="s0" d="m204.2 176.1c0 0.1 0.2 0.4 0.3 0.4 0.4-0.2 0.5-0.5 0.2-0.7-0.1-0.1-0.2 0-0.4-0.1 0 0.2-0.1 0.3-0.1 0.4z"/>
			<path id="Layer" class="s0" d="m165.3 176.5c0.1 0 0.3-0.2 0.4-0.4q-0.2-0.2-0.4-0.5-0.2 0.3-0.4 0.5c0.1 0.1 0.3 0.4 0.4 0.4z"/>
			<path id="Layer" class="s0" d="m214.5 174.2q0.1 0 0.1 0l-0.1-0.2q0 0.1 0 0.2z"/>
			<path id="Layer" class="s0" d="m213.8 175c0 0 0.3 0.1 0.3 0q0.2-0.4 0.4-0.8c-0.5 0-0.8 0.1-0.7 0.8z"/>
			<path id="Layer" class="s0" d="m299 173.4c0.2 0.5 0.5 0.6 0.7 0.2 0.1 0 0-0.2 0-0.4-0.1 0-0.2-0.2-0.3-0.1-0.2 0-0.4 0.3-0.4 0.3z"/>
			<path id="Layer" class="s0" d="m294.9 169.7c0 0 0.1-0.4 0-0.4q-0.3-0.2-0.7-0.4c0 0.5 0 1 0.7 0.8z"/>
			<path id="Layer" class="s0" d="m294.2 168.9q-0.1-0.1-0.1-0.2l-0.1 0.1q0.1 0.1 0.2 0.1z"/>
			<path id="Layer" class="s0" d="m468.9 143.9c0 0.2-0.1 0.3-0.1 0.4 0 0.2 0.3 0.4 0.3 0.4 0.4-0.2 0.5-0.5 0.2-0.7-0.1-0.1-0.2-0.1-0.4-0.1z"/>
			<path id="Layer" class="s0" d="m442.6 136.3c0.2 0.6 0.5 0.6 0.8 0 0-0.1-0.2-0.3-0.4-0.4-0.1 0.1-0.4 0.3-0.4 0.4z"/>
			<path id="Layer" class="s0" d="m476 135.2q0.1 0.1 0.3 0.2c0.1-0.2 0.3-0.3 0.3-0.4 0-0.1-0.2-0.3-0.3-0.4q-0.2 0.3-0.3 0.6z"/>
			<path id="Layer" class="s0" d="m469.3 134.7c0-0.1-0.2-0.1-0.4-0.1 0 0.2-0.2 0.4-0.1 0.5 0 0.1 0.3 0.4 0.3 0.4 0.5-0.2 0.6-0.6 0.2-0.8z"/>
			<path id="Layer" class="s0" d="m459.2 119q0.4 0.1 0.7 0.2 0-0.2 0-0.4c-0.1 0-0.2-0.1-0.3-0.1-0.2 0-0.3 0.2-0.4 0.3z"/>
			<path id="Layer" class="s0" d="m455.7 119c0.2 0.5 0.4 0.6 0.6 0.2 0.1-0.1 0-0.2 0-0.4-0.1 0-0.2-0.2-0.3-0.1-0.1 0-0.3 0.3-0.3 0.3z"/>
			<path id="Layer" class="s0" d="m450.1 118.1c0.1 0 0.3-0.2 0.4-0.4q-0.2-0.2-0.4-0.5-0.2 0.3-0.4 0.5c0.1 0.1 0.3 0.4 0.4 0.4z"/>
			<path id="Layer" class="s0" d="m447.3 117.7c0 0.1 0.2 0.4 0.4 0.4 0.1 0.1 0.3-0.1 0.4-0.2 0-0.1 0-0.3 0-0.4-0.3-0.4-0.6-0.3-0.8 0.2z"/>
			<path id="Layer" class="s0" d="m459.6 116.1c-0.2 0-0.3 0.2-0.4 0.3q0.3 0.1 0.7 0.2 0-0.2 0-0.4c-0.1 0-0.2-0.2-0.3-0.1z"/>
			<path id="Layer" class="s0" d="m456.1 115.9q-0.2 0.2-0.4 0.4 0.3 0.2 0.5 0.4 0.1-0.2 0.2-0.4-0.1-0.2-0.3-0.4z"/>
			<path id="Layer" class="s0" d="m412 80.3c-0.2 0-0.3 0.5-0.4 0.9q0.6 0 1.1 0c0-0.5-0.1-1.1-0.7-0.9z"/>
			<path id="Layer" class="s0" d="m429.6 76.5q0.3 0.2 0.6 0.4 0-0.1 0.1-0.3c-0.1-0.2-0.2-0.4-0.3-0.4-0.1 0-0.3 0.2-0.4 0.3z"/>
			<path id="Layer" class="s0" d="m458.4 65.1q0.2-0.2 0.4-0.4-0.1-0.3-0.3-0.5c-0.2 0.1-0.4 0.3-0.4 0.5 0 0.1 0.2 0.3 0.3 0.4z"/>
			<path id="Layer" class="s0" d="m436.7 64.7q0.3 0.1 0.7 0.2 0-0.2 0-0.4c-0.1-0.1-0.3-0.2-0.4-0.2-0.1 0.1-0.2 0.2-0.3 0.4z"/>
			<path id="Layer" class="s0" d="m433.5 63.8c0.4-0.2 0.5-0.5 0.2-0.7-0.1-0.1-0.2 0-0.4 0 0 0.1-0.1 0.2-0.1 0.3 0.1 0.2 0.3 0.5 0.3 0.4z"/>
			<path id="Layer" class="s0" d="m27 62.8q0.1 0 0.2 0l-0.2-0.2q0 0.1 0 0.2z"/>
			<path id="Layer" class="s0" d="m26.2 63.6c0 0 0.4 0.1 0.4 0q0.2-0.4 0.4-0.8c-0.5 0-0.8 0.1-0.8 0.8z"/>
			<path id="Layer" class="s0" d="m90.8 37.9c-0.1-0.1-0.3 0-0.4 0-0.1 0.1-0.2 0.2-0.2 0.3 0.1 0.2 0.3 0.5 0.4 0.4 0.4-0.2 0.5-0.5 0.2-0.7z"/>
		</g>
		<g id="Layer">
		</g>
		<g id="Layer">
			<path id="Layer" fill-rule="evenodd" class="s0" d="m94 309.1c-1.3 0.2-1.9 0.1-2.9 0.2 0.8 0.1 2 0.3 2.7 0-0.3-0.1 0.1-0.1 0.2-0.2z"/>
			<path id="Layer" fill-rule="evenodd" class="s0" d="m88.3 309.4c0.8 0.5 0 0.1 0.6 0 0.4 0 1 0.2 1.2-0.1-0.8 0.1-1.1-0.1-1.8 0.1z"/>
			<path id="Layer" fill-rule="evenodd" class="s0" d="m96.4 312.4c0.3 0.2 1.2 0 0.9 0.4 1.3-0.1-0.5-0.7-0.9-0.4z"/>
		</g>
	</g>
</svg>